<svg width="111" height="101" viewBox="0 0 111 101" fill="none" xmlns="http://www.w3.org/2000/svg">
<path d="M31.3559 80.1273C30.7346 79.8856 30.329 79.549 30.1392 79.1175C29.9874 78.7723 30.0772 78.4496 30.4086 78.1493L83.2849 24.1453C83.8614 23.5827 84.4966 23.329 85.1904 23.3843C85.9464 23.4638 86.7282 23.6607 87.5359 23.9749C88.1572 24.2166 88.5006 24.529 88.5662 24.9121C88.6317 25.2953 88.4867 25.6681 88.1311 26.0305L35.2548 80.0346C34.7646 80.5592 34.1536 80.7507 33.4218 80.6091C32.728 80.5538 32.0394 80.3932 31.3559 80.1273ZM27.806 60.2908C27.3711 60.1216 26.9535 59.8161 26.5531 59.3742C26.239 58.8943 25.975 58.4697 25.761 58.1004C24.988 56.2259 24.1719 54.3704 23.3125 52.534C22.4774 50.6353 21.587 48.7868 20.6414 46.9883C19.6958 45.1897 18.6328 43.4171 17.4524 41.6703C16.3342 39.9477 15.0555 38.27 13.6162 36.6371C13.278 36.2194 13.0398 35.9121 12.9018 35.7153C12.85 35.4806 12.8725 35.239 12.9692 34.9905C13.09 34.6798 13.2057 34.4744 13.3161 34.3743C13.4887 34.2984 13.934 34.257 14.652 34.2502C16.8164 34.0192 18.8927 33.6466 20.881 33.1325C22.9315 32.6425 24.9129 32.0542 26.8253 31.3675C28.7378 30.6808 30.6312 29.9509 32.5056 29.1779C34.4042 28.3427 36.2718 27.4955 38.1083 26.6362C38.5398 26.4464 39.0093 26.3429 39.5167 26.3256C40.0862 26.3326 40.5885 26.4207 41.0234 26.5899C41.5204 26.7832 41.7517 27.0163 41.7171 27.289C41.7447 27.5858 41.6601 27.8033 41.4634 27.9413C39.9685 29.5774 38.3978 31.0408 36.7511 32.3316C35.1286 33.5603 33.4923 34.6406 31.8422 35.5724C30.2542 36.5284 28.7146 37.3601 27.2233 38.0676L84.2596 60.2554C83.6764 58.8124 83.0915 57.19 82.5049 55.3881C81.9804 53.6103 81.5474 51.6893 81.2059 49.625C80.8644 47.5608 80.6954 45.4206 80.6991 43.2045C80.6957 42.8455 80.7924 42.597 80.9892 42.4589C81.2481 42.345 81.5639 42.3606 81.9367 42.5056C82.3716 42.6748 82.8013 42.9493 83.2259 43.329C83.6504 43.7088 83.9265 44.1023 84.0542 44.5097C84.8272 46.3841 85.6313 48.2706 86.4665 50.1693C87.3258 52.0057 88.2283 53.8232 89.1739 55.6218C90.1195 57.4203 91.1514 59.1809 92.2696 60.9035C93.45 62.6502 94.7598 64.3401 96.1991 65.9729C96.7754 66.6979 96.9911 67.2468 96.8461 67.6196C96.7494 67.8681 96.6148 68.0303 96.4422 68.1062C96.3317 68.2063 95.9054 68.2908 95.1632 68.3598C92.9989 68.5908 90.8915 68.9513 88.841 69.4413C86.8527 69.9554 84.9023 70.5558 82.9899 71.2425C81.0775 71.9293 79.172 72.6902 77.2734 73.5253C75.3989 74.2984 73.5435 75.1145 71.707 75.9739C71.3618 76.1257 70.8923 76.2292 70.2986 76.2844C69.729 76.2774 69.2268 76.1893 68.7919 76.0201C68.1706 75.7784 67.9445 75.4401 68.1137 75.0052C68.1379 74.9431 68.162 74.881 68.1862 74.8188C68.2104 74.7567 68.2656 74.7067 68.3519 74.6687C69.8467 73.0327 71.4054 71.6003 73.0279 70.3716C74.6746 69.0808 76.2919 67.9574 77.8799 67.0014C79.53 66.0695 81.1007 65.2499 82.5919 64.5424L25.5556 42.3546C26.201 43.8218 26.7168 45.3458 27.1033 46.9268C27.5519 48.532 27.902 50.2062 28.1538 51.9494C28.4678 53.7168 28.7575 55.5463 29.0231 57.438C29.0887 57.8211 29.1421 58.2353 29.1835 58.6806C29.2249 59.1259 29.1852 59.5039 29.0643 59.8146C28.8468 60.3737 28.4274 60.5325 27.806 60.2908Z" fill="#D6BA73"/>
</svg>
