<svg width="98" height="66" viewBox="0 0 98 66" fill="none" xmlns="http://www.w3.org/2000/svg">
<path d="M34.1913 57.2621C33.7522 57.4202 33.2479 57.4956 32.6784 57.4881C32.149 57.3954 31.6823 57.28 31.2783 57.142C29.4642 56.2365 27.6299 55.3736 25.7757 54.5534C23.8988 53.6705 22.0132 52.8615 20.1187 52.1266C18.2243 51.3917 16.2584 50.7534 14.221 50.2117C12.2464 49.6474 10.1801 49.2224 8.02231 48.9366C7.11151 48.7686 6.58834 48.4965 6.4528 48.1201C6.33986 47.8065 6.29216 47.5757 6.3097 47.4277C6.38997 47.257 6.69854 46.9333 7.23542 46.4565C8.71555 44.8606 10.0364 43.2158 11.1978 41.522C12.422 39.8057 13.5295 38.0605 14.5204 36.2865C15.5112 34.5125 16.4594 32.7184 17.365 30.9043C18.2479 29.0274 19.0995 27.1619 19.9197 25.3076C20.1204 24.881 20.4064 24.4946 20.7777 24.1483C21.2117 23.7794 21.6482 23.5159 22.0873 23.3578C22.7145 23.1319 23.1072 23.2385 23.2653 23.6776C23.2879 23.7403 23.3105 23.803 23.3331 23.8657C23.3331 23.8657 23.3243 23.9397 23.3068 24.0878C23.2544 26.3033 23.0313 28.4385 22.6377 30.4934C22.2214 32.4856 21.6972 34.375 21.0652 36.1615C20.4959 37.9254 19.8813 39.5639 19.2217 41.0769L27.407 38.1291C28.699 36.6009 29.8429 35.0552 30.8388 33.492C31.8974 31.9061 32.882 30.3115 33.7926 28.7081C34.7433 27.0194 35.62 25.322 36.4227 23.6157C37.2254 21.9095 37.9967 20.2145 38.7366 18.5309C38.9373 18.1043 39.2233 17.7179 39.5946 17.3716C40.0286 17.0027 40.4651 16.7392 40.9042 16.5811C41.5314 16.3552 41.9241 16.4618 42.0822 16.9008C42.1048 16.9636 42.1274 17.0263 42.15 17.089C42.15 17.089 42.1412 17.163 42.1237 17.3111C42.0713 19.5265 41.8482 21.6618 41.4546 23.7167C41.0383 25.7089 40.5142 27.5983 39.8821 29.3848C39.3128 31.1487 38.6983 32.7872 38.0386 34.3002L89.1265 15.9014C89.4401 15.7885 89.7562 15.7809 90.0749 15.8787C90.4563 15.954 90.7034 16.1484 90.8164 16.462C90.9519 16.8383 90.9532 17.3339 90.8203 17.9486C90.7502 18.5407 90.5432 19.1467 90.1996 19.7665C89.896 20.3009 89.4934 20.6585 88.9916 20.8392L39.5972 38.6281C40.621 39.1097 41.8718 39.8284 43.3497 40.7842C44.8904 41.7173 46.3909 42.7358 47.8513 43.8396C49.3744 44.9208 50.6755 45.9757 51.7545 47.0043C52.8109 47.9701 53.4634 48.798 53.7119 49.488C53.8022 49.7389 53.7759 49.9609 53.6329 50.1541C53.5301 50.262 53.3218 50.3725 53.0082 50.4854C52.5691 50.6435 52.0648 50.7189 51.4953 50.7114C50.9659 50.6186 50.4992 50.5033 50.0952 50.3653C48.4517 49.5401 46.7768 48.7261 45.0706 47.9234C43.3643 47.1207 41.6179 46.4034 39.8314 45.7713C38.0851 45.0539 36.2986 44.4219 34.4719 43.8751C32.708 43.3058 30.8412 42.8444 28.8716 42.4908L20.7803 45.4048C21.804 45.8864 23.0549 46.6051 24.5328 47.5609C26.0735 48.4941 27.574 49.5125 29.0344 50.6163C30.5575 51.6975 31.8586 52.7524 32.9376 53.781C33.994 54.7468 34.6465 55.5747 34.895 56.2647C34.9853 56.5156 34.959 56.7376 34.816 56.9309C34.7131 57.0388 34.5049 57.1492 34.1913 57.2621Z" fill="#D6BA73"/>
</svg>
