<svg width="90" height="90" viewBox="0 0 90 90" fill="none" xmlns="http://www.w3.org/2000/svg">
<path d="M73.2421 48.1318C73.5699 48.4639 73.85 48.89 74.0823 49.4101C74.2204 49.9295 74.3116 50.4015 74.356 50.8261C74.2957 52.8528 74.2826 54.8798 74.3166 56.9071C74.3032 58.9812 74.3606 61.0323 74.4889 63.0602C74.6172 65.0881 74.8631 67.1403 75.2268 69.2169C75.5437 71.246 76.0253 73.2998 76.6719 75.3782C76.9018 76.2754 76.8744 76.8645 76.5897 77.1455C76.3525 77.3797 76.163 77.5199 76.0213 77.5661C75.8327 77.5649 75.4094 77.4207 74.7513 77.1336C72.6814 76.4602 70.634 75.952 68.6092 75.6088C66.5375 75.2183 64.4886 74.9457 62.4625 74.7912C60.4364 74.6366 58.4101 74.5292 56.3834 74.469C54.3092 74.4555 52.2585 74.4658 50.2312 74.4998C49.7598 74.4968 49.289 74.3994 48.8189 74.2078C48.3018 73.9688 47.8794 73.6832 47.5516 73.3511C47.0832 72.8766 47.0151 72.4755 47.3472 72.1476C47.3947 72.1008 47.4421 72.054 47.4896 72.0071C47.4896 72.0071 47.5604 71.984 47.7022 71.9378C49.735 71.0553 51.7665 70.3613 53.7969 69.8559C55.7798 69.3973 57.7147 69.0799 59.6015 68.9035C61.4414 68.6798 63.1865 68.5496 64.8367 68.5132L58.7248 62.3216C56.7955 61.7906 54.9123 61.4012 53.0754 61.1536C51.1917 60.8586 49.3311 60.6344 47.4935 60.4811C45.5617 60.3271 43.653 60.2441 41.7675 60.2318C39.8819 60.2196 38.0197 60.2311 36.181 60.2664C35.7096 60.2633 35.2388 60.166 34.7686 59.9744C34.2516 59.7353 33.8292 59.4497 33.5014 59.1176C33.033 58.6432 32.9649 58.242 33.297 57.9142C33.3445 57.8673 33.3919 57.8205 33.4394 57.7737C33.4394 57.7737 33.5102 57.7506 33.6519 57.7043C35.6847 56.8218 37.7163 56.1279 39.7467 55.6225C41.7296 55.1639 43.6644 54.8464 45.5512 54.6701C47.3912 54.4463 49.1363 54.3162 50.7865 54.2797L12.6401 15.6359C12.4059 15.3987 12.2664 15.1149 12.2214 14.7846C12.1295 14.4069 12.2022 14.101 12.4394 13.8668C12.7241 13.5858 13.1733 13.3766 13.787 13.2391C14.3539 13.0542 14.9908 12.9876 15.6976 13.0394C16.3101 13.0905 16.8037 13.3058 17.1783 13.6854L54.0602 51.0482C54.0675 49.9168 54.1947 48.4798 54.4417 46.7372C54.6418 44.9471 54.9363 43.1577 55.325 41.3688C55.6669 39.5325 56.0781 37.9088 56.5586 36.4977C56.9918 35.1334 57.4693 34.1936 57.9911 33.6785C58.1809 33.4911 58.3935 33.4218 58.6289 33.4705C58.77 33.5185 58.9577 33.6611 59.1918 33.8984C59.5197 34.2305 59.7998 34.6566 60.0321 35.1766C60.1702 35.6961 60.2614 36.1681 60.3058 36.5927C60.2467 38.4308 60.2111 40.2926 60.1989 42.1782C60.1867 44.0638 60.2687 45.95 60.4451 47.8368C60.5271 49.723 60.7035 51.6098 60.9741 53.4972C61.1979 55.3372 61.5628 57.2252 62.0688 59.1613L68.1104 65.2816C68.1177 64.1503 68.2449 62.7133 68.4919 60.9707C68.692 59.1806 68.9865 57.3911 69.3752 55.6023C69.7171 53.766 70.1283 52.1422 70.6089 50.7311C71.042 49.3668 71.5195 48.4271 72.0414 47.9119C72.2312 47.7246 72.4437 47.6552 72.6791 47.7039C72.8202 47.752 73.0079 47.8946 73.2421 48.1318Z" fill="#D6BA73"/>
</svg>
