<svg width="365" height="414" viewBox="0 0 365 414" fill="none" xmlns="http://www.w3.org/2000/svg">
<circle cx="182.5" cy="182.5" r="180.5" fill="#0A2239" stroke="#D6BA73" stroke-width="4"/>
<circle cx="183" cy="183" r="143" fill="#0A2239" stroke="#D6BA73" stroke-width="8"/>
<circle cx="192.5" cy="215.5" r="99.5" fill="#0A2239" stroke="#D6BA73" stroke-width="16"/>
<rect x="85" y="332" width="195" height="82" fill="#D6BA73"/>
<circle cx="183" cy="183" r="17.5" fill="#D6BA73" stroke="black"/>
<path d="M166 40L184 21V185H166V40Z" fill="#D6BA73"/>
<path d="M166 40L184 21V185H166V40Z" stroke="black"/>
<path d="M200 312.97L182 330L182 183H200L200 312.97Z" fill="#D6BA73"/>
<path d="M200 312.97L182 330L182 183H200L200 312.97Z" stroke="black"/>
<path d="M75 272L133 226L118 207L146 182.111L163 203.111L291 87" stroke="#D6BA73" stroke-width="8"/>
<path d="M159.62 362.128C159.385 362.128 159.183 362.096 159.012 362.032C158.841 361.989 158.756 361.893 158.756 361.744C158.756 361.595 158.841 361.477 159.012 361.392C159.183 361.285 159.417 361.2 159.716 361.136C160.527 360.987 161.135 360.741 161.54 360.4C161.945 360.059 162.148 359.515 162.148 358.768V346.096C162.148 345.157 162.127 344.453 162.084 343.984C162.041 343.493 161.977 343.163 161.892 342.992C161.807 342.8 161.689 342.683 161.54 342.64C161.284 342.576 160.996 342.544 160.676 342.544C160.356 342.523 159.983 342.512 159.556 342.512H158.308C157.753 342.512 157.199 342.64 156.644 342.896C156.111 343.131 155.705 343.472 155.428 343.92C155.343 344.048 155.215 344.229 155.044 344.464C154.895 344.677 154.724 344.869 154.532 345.04C154.34 345.189 154.148 345.264 153.956 345.264C153.849 345.264 153.764 345.221 153.7 345.136C153.657 345.051 153.636 344.944 153.636 344.816C153.636 344.581 153.7 344.347 153.828 344.112C154.169 343.429 154.415 342.832 154.564 342.32C154.713 341.808 154.831 341.2 154.916 340.496C154.959 340.155 155.044 339.941 155.172 339.856C155.3 339.771 155.428 339.728 155.556 339.728C155.663 339.728 155.801 339.867 155.972 340.144C156.164 340.4 156.313 340.613 156.42 340.784C156.591 340.976 156.911 341.125 157.38 341.232C157.849 341.339 158.287 341.392 158.692 341.392L170.244 341.36C170.905 341.36 171.449 341.317 171.876 341.232C172.324 341.147 172.687 341.04 172.964 340.912C173.263 340.763 173.497 340.603 173.668 340.432C173.839 340.24 174.063 340.144 174.34 340.144C174.425 340.144 174.489 340.219 174.532 340.368C174.575 340.496 174.596 340.645 174.596 340.816C174.596 340.901 174.585 341.029 174.564 341.2C174.543 341.371 174.521 341.509 174.5 341.616C174.415 342.021 174.329 342.341 174.244 342.576C174.18 342.811 174.127 343.035 174.084 343.248C174.063 343.44 174.052 343.696 174.052 344.016V344.464C174.052 344.72 174.009 344.965 173.924 345.2C173.839 345.435 173.711 345.552 173.54 345.552C173.369 345.552 173.231 345.445 173.124 345.232C173.017 344.997 172.911 344.667 172.804 344.24C172.676 343.685 172.388 343.259 171.94 342.96C171.513 342.661 170.799 342.512 169.796 342.512H167.108C166.681 342.512 166.351 342.587 166.116 342.736C165.881 342.864 165.721 343.184 165.636 343.696C165.572 344.187 165.54 344.987 165.54 346.096V358.768C165.54 359.493 165.743 360.027 166.148 360.368C166.575 360.709 167.193 360.965 168.004 361.136C168.303 361.2 168.527 361.275 168.676 361.36C168.847 361.445 168.932 361.573 168.932 361.744C168.932 361.872 168.857 361.968 168.708 362.032C168.559 362.096 168.356 362.128 168.1 362.128C167.567 362.128 167.076 362.107 166.628 362.064C166.18 362.043 165.743 362.021 165.316 362C164.889 361.979 164.441 361.968 163.972 361.968C163.46 361.968 162.98 361.979 162.532 362C162.084 362.021 161.625 362.043 161.156 362.064C160.687 362.107 160.175 362.128 159.62 362.128ZM176.443 362.096C176.016 362.096 175.803 361.968 175.803 361.712C175.803 361.499 176.048 361.307 176.539 361.136C176.859 361.029 177.158 360.901 177.435 360.752C177.712 360.603 177.851 360.304 177.851 359.856V344.08C177.851 343.504 177.766 343.003 177.595 342.576C177.424 342.128 177.062 341.861 176.507 341.776C176.315 341.733 176.219 341.573 176.219 341.296C176.219 341.083 176.304 340.944 176.475 340.88C176.838 340.773 177.264 340.645 177.755 340.496C178.267 340.347 178.768 340.187 179.259 340.016C179.75 339.824 180.166 339.653 180.507 339.504C180.635 339.461 180.731 339.44 180.795 339.44C180.88 339.44 180.944 339.472 180.987 339.536C181.03 339.579 181.051 339.643 181.051 339.728C181.051 339.835 181.03 340.005 180.987 340.24C180.944 340.453 180.902 340.805 180.859 341.296C180.816 341.765 180.795 342.437 180.795 343.312V349.52C180.795 349.819 180.806 350.053 180.827 350.224C180.87 350.373 180.923 350.501 180.987 350.608C181.328 350.352 181.734 350.064 182.203 349.744C182.694 349.424 183.238 349.147 183.835 348.912C184.454 348.677 185.104 348.56 185.787 348.56C186.875 348.56 187.771 348.965 188.475 349.776C189.2 350.587 189.563 351.653 189.563 352.976V359.792C189.563 360.219 189.691 360.528 189.947 360.72C190.224 360.891 190.523 361.029 190.843 361.136C191.056 361.221 191.227 361.307 191.355 361.392C191.483 361.456 191.547 361.563 191.547 361.712C191.547 361.968 191.323 362.096 190.875 362.096C190.427 362.096 190.075 362.075 189.819 362.032C189.563 362.011 189.318 361.989 189.083 361.968C188.848 361.947 188.528 361.936 188.123 361.936C187.718 361.936 187.398 361.947 187.163 361.968C186.95 361.989 186.715 362.011 186.459 362.032C186.224 362.075 185.872 362.096 185.403 362.096C184.955 362.096 184.731 361.968 184.731 361.712C184.731 361.541 184.795 361.424 184.923 361.36C185.051 361.296 185.222 361.221 185.435 361.136C185.734 361.051 186.011 360.912 186.267 360.72C186.523 360.528 186.651 360.208 186.651 359.76V353.296C186.651 352.784 186.512 352.325 186.235 351.92C185.958 351.493 185.616 351.163 185.211 350.928C184.827 350.693 184.422 350.576 183.995 350.576C183.611 350.576 183.174 350.629 182.683 350.736C182.214 350.843 181.819 351.024 181.499 351.28C181.222 351.493 181.03 351.728 180.923 351.984C180.838 352.219 180.795 352.613 180.795 353.168V359.856C180.816 360.283 180.944 360.581 181.179 360.752C181.414 360.901 181.68 361.029 181.979 361.136C182.192 361.2 182.363 361.275 182.491 361.36C182.619 361.445 182.683 361.563 182.683 361.712C182.683 361.968 182.47 362.096 182.043 362.096C181.616 362.096 181.264 362.075 180.987 362.032C180.731 362.011 180.475 361.989 180.219 361.968C179.984 361.947 179.675 361.936 179.291 361.936C178.928 361.936 178.608 361.947 178.331 361.968C178.075 361.989 177.798 362.011 177.499 362.032C177.222 362.075 176.87 362.096 176.443 362.096ZM199.651 362.48C198.499 362.48 197.475 362.192 196.579 361.616C195.704 361.019 195.011 360.197 194.499 359.152C193.987 358.085 193.731 356.859 193.731 355.472C193.731 354.213 194.019 353.061 194.595 352.016C195.192 350.971 195.982 350.139 196.963 349.52C197.944 348.88 199.022 348.56 200.195 348.56C201.07 348.56 201.848 348.741 202.531 349.104C203.235 349.445 203.779 349.936 204.163 350.576C204.568 351.195 204.771 351.909 204.771 352.72C204.771 353.424 204.44 353.776 203.779 353.776H197.155C196.856 353.776 196.643 353.861 196.515 354.032C196.387 354.203 196.323 354.512 196.323 354.96C196.323 355.899 196.536 356.763 196.963 357.552C197.39 358.32 197.955 358.939 198.659 359.408C199.363 359.877 200.142 360.112 200.995 360.112C201.635 360.112 202.211 359.995 202.723 359.76C203.256 359.504 203.747 359.152 204.195 358.704C204.259 358.619 204.312 358.555 204.355 358.512C204.419 358.469 204.483 358.448 204.547 358.448C204.739 358.448 204.835 358.565 204.835 358.8C204.835 359.141 204.686 359.547 204.387 360.016C204.088 360.464 203.704 360.88 203.235 361.264C202.787 361.627 202.254 361.915 201.635 362.128C201.038 362.363 200.376 362.48 199.651 362.48ZM197.187 352.688H199.747C200.302 352.688 200.739 352.677 201.059 352.656C201.379 352.635 201.678 352.592 201.955 352.528C202.062 352.485 202.136 352.4 202.179 352.272C202.222 352.123 202.243 351.941 202.243 351.728C202.243 351.131 201.998 350.629 201.507 350.224C201.016 349.797 200.43 349.584 199.747 349.584C199.278 349.584 198.808 349.723 198.339 350C197.891 350.277 197.518 350.629 197.219 351.056C196.92 351.461 196.782 351.877 196.803 352.304C196.803 352.56 196.931 352.688 197.187 352.688ZM120.287 404.16C120.031 404.16 119.818 404.117 119.647 404.032C119.476 403.968 119.391 403.861 119.391 403.712C119.391 403.541 119.476 403.403 119.647 403.296C119.818 403.189 120.052 403.083 120.351 402.976C120.927 402.805 121.45 402.549 121.919 402.208C122.388 401.867 122.772 401.344 123.071 400.64C123.647 399.339 124.18 398.101 124.671 396.928C125.162 395.733 125.631 394.56 126.079 393.408C126.527 392.256 126.986 391.072 127.455 389.856C127.924 388.619 128.404 387.307 128.895 385.92C129.087 385.429 129.226 385.024 129.311 384.704C129.396 384.363 129.45 384.064 129.471 383.808C129.748 383.744 130.004 383.68 130.239 383.616C130.474 383.531 130.73 383.413 131.007 383.264C131.263 383.136 131.455 382.955 131.583 382.72C131.732 382.464 131.85 382.283 131.935 382.176C131.978 382.155 132.02 382.144 132.063 382.144C132.127 382.123 132.18 382.155 132.223 382.24C132.287 382.347 132.33 382.464 132.351 382.592C132.394 382.72 132.436 382.859 132.479 383.008C132.97 384.565 133.471 386.155 133.983 387.776C134.516 389.376 135.039 390.944 135.551 392.48C136.063 394.016 136.543 395.445 136.991 396.768C137.439 398.069 137.823 399.211 138.143 400.192C138.378 400.896 138.655 401.44 138.975 401.824C139.295 402.187 139.636 402.464 139.999 402.656C140.362 402.827 140.756 402.955 141.183 403.04C141.503 403.104 141.738 403.2 141.887 403.328C142.058 403.456 142.143 403.605 142.143 403.776C142.143 403.904 142.058 403.989 141.887 404.032C141.738 404.096 141.546 404.128 141.311 404.128C140.97 404.128 140.522 404.107 139.967 404.064C139.412 404.043 138.836 404.021 138.239 404C137.642 403.979 137.098 403.968 136.607 403.968C136.202 403.968 135.754 403.968 135.263 403.968C134.772 403.968 134.303 403.979 133.855 404C133.428 404.021 133.055 404.032 132.735 404.032C132.479 404.032 132.266 404 132.095 403.936C131.946 403.851 131.871 403.744 131.871 403.616C131.871 403.445 131.967 403.307 132.159 403.2C132.351 403.093 132.575 403.019 132.831 402.976C133.556 402.848 134.079 402.656 134.399 402.4C134.74 402.144 134.879 401.803 134.815 401.376C134.794 401.013 134.719 400.565 134.591 400.032C134.463 399.477 134.314 398.901 134.143 398.304C133.972 397.685 133.812 397.12 133.663 396.608C133.62 396.437 133.546 396.331 133.439 396.288C133.332 396.245 133.151 396.224 132.895 396.224H126.975C126.868 396.224 126.772 396.267 126.687 396.352C126.602 396.416 126.516 396.555 126.431 396.768C126.367 397.024 126.26 397.355 126.111 397.76C125.983 398.144 125.855 398.56 125.727 399.008C125.599 399.435 125.482 399.84 125.375 400.224C125.29 400.587 125.236 400.853 125.215 401.024C125.151 401.557 125.279 401.984 125.599 402.304C125.94 402.603 126.442 402.837 127.103 403.008C127.743 403.179 128.063 403.392 128.063 403.648C128.063 403.797 127.978 403.904 127.807 403.968C127.658 404.011 127.455 404.032 127.199 404.032C126.794 404.032 126.324 404.021 125.791 404C125.258 403.979 124.692 403.968 124.095 403.968C123.412 403.968 122.751 404 122.111 404.064C121.471 404.128 120.863 404.16 120.287 404.16ZM127.871 394.912H132.543C132.842 394.912 132.991 394.859 132.991 394.752C132.991 394.688 132.98 394.635 132.959 394.592C132.959 394.549 132.948 394.485 132.927 394.4L130.559 386.816C130.452 386.475 130.367 386.304 130.303 386.304C130.26 386.304 130.186 386.464 130.079 386.784L127.295 394.4C127.252 394.528 127.231 394.613 127.231 394.656C127.231 394.763 127.284 394.837 127.391 394.88C127.519 394.901 127.679 394.912 127.871 394.912ZM147.46 404.448C146.777 404.448 146.126 404.352 145.508 404.16C144.91 403.968 144.388 403.691 143.94 403.328C143.79 403.051 143.684 402.613 143.62 402.016C143.556 401.419 143.524 400.875 143.524 400.384C143.524 400.171 143.684 400.064 144.004 400.064C144.132 400.064 144.238 400.096 144.324 400.16C144.43 400.203 144.494 400.267 144.516 400.352C144.836 401.355 145.284 402.112 145.86 402.624C146.436 403.136 147.065 403.392 147.748 403.392C148.345 403.392 148.836 403.2 149.22 402.816C149.604 402.411 149.796 401.931 149.796 401.376C149.796 400.8 149.593 400.32 149.188 399.936C148.782 399.531 148.164 399.072 147.332 398.56C146.649 398.155 146.062 397.76 145.572 397.376C145.081 396.971 144.708 396.533 144.452 396.064C144.196 395.573 144.068 395.019 144.068 394.4C144.068 393.653 144.249 392.992 144.612 392.416C144.996 391.84 145.529 391.381 146.212 391.04C146.894 390.699 147.716 390.528 148.676 390.528C149.358 390.528 149.934 390.603 150.404 390.752C150.894 390.88 151.246 391.019 151.46 391.168C151.63 391.403 151.769 391.787 151.876 392.32C152.004 392.853 152.068 393.387 152.068 393.92C152.068 394.091 151.929 394.176 151.652 394.176C151.524 394.176 151.385 394.144 151.236 394.08C151.108 394.016 151.022 393.931 150.98 393.824C150.702 393.077 150.35 392.512 149.924 392.128C149.518 391.744 149.017 391.552 148.42 391.552C147.908 391.552 147.449 391.712 147.044 392.032C146.638 392.331 146.436 392.768 146.436 393.344C146.436 393.835 146.606 394.272 146.948 394.656C147.31 395.019 147.876 395.413 148.644 395.84C149.924 396.544 150.862 397.216 151.46 397.856C152.078 398.475 152.388 399.307 152.388 400.352C152.388 401.589 151.94 402.581 151.044 403.328C150.169 404.075 148.974 404.448 147.46 404.448ZM160.386 404.448C159.212 404.448 158.306 404.117 157.666 403.456C157.047 402.795 156.738 401.824 156.738 400.544V393.12C156.738 392.949 156.663 392.832 156.514 392.768C156.386 392.683 156.119 392.64 155.714 392.64H155.458C155.33 392.64 155.223 392.555 155.138 392.384C155.052 392.192 155.01 392.011 155.01 391.84C155.01 391.797 155.031 391.744 155.074 391.68C155.138 391.595 155.191 391.541 155.234 391.52C155.682 391.243 156.119 390.944 156.546 390.624C156.994 390.283 157.399 389.941 157.762 389.6C158.146 389.259 158.466 388.96 158.722 388.704C158.85 388.597 158.956 388.501 159.042 388.416C159.127 388.331 159.234 388.288 159.362 388.288C159.49 388.288 159.596 388.32 159.682 388.384C159.788 388.448 159.831 388.576 159.81 388.768L159.618 390.336C159.596 390.592 159.65 390.763 159.778 390.848C159.927 390.933 160.13 390.976 160.386 390.976H164.098C164.162 390.976 164.226 391.051 164.29 391.2C164.354 391.349 164.386 391.499 164.386 391.648C164.386 391.883 164.354 392.107 164.29 392.32C164.226 392.533 164.151 392.64 164.066 392.64H160.962C160.428 392.64 160.076 392.693 159.906 392.8C159.756 392.907 159.682 393.152 159.682 393.536V399.744C159.682 400.64 159.863 401.333 160.226 401.824C160.588 402.293 161.1 402.528 161.762 402.528C162.38 402.528 162.85 402.475 163.17 402.368C163.49 402.261 163.778 402.133 164.034 401.984C164.098 401.941 164.151 401.92 164.194 401.92C164.3 401.92 164.364 401.973 164.386 402.08C164.428 402.187 164.45 402.304 164.45 402.432C164.45 402.56 164.258 402.784 163.874 403.104C163.49 403.424 162.988 403.723 162.37 404C161.751 404.299 161.09 404.448 160.386 404.448ZM166.816 404.096C166.624 404.096 166.464 404.064 166.336 404C166.23 403.936 166.176 403.84 166.176 403.712C166.176 403.541 166.24 403.424 166.368 403.36C166.518 403.275 166.699 403.2 166.912 403.136C167.36 403.029 167.67 402.88 167.84 402.688C168.032 402.496 168.128 402.24 168.128 401.92V394.88C168.128 394.347 168.054 393.899 167.904 393.536C167.755 393.152 167.435 392.907 166.944 392.8C166.859 392.779 166.774 392.725 166.688 392.64C166.624 392.555 166.592 392.448 166.592 392.32C166.592 392.085 166.699 391.936 166.912 391.872C167.51 391.701 168.15 391.467 168.832 391.168C169.515 390.848 170.07 390.571 170.496 390.336C170.624 390.251 170.742 390.187 170.848 390.144C170.955 390.101 171.03 390.08 171.072 390.08C171.222 390.08 171.296 390.165 171.296 390.336C171.296 390.421 171.286 390.603 171.264 390.88C171.264 391.157 171.254 391.467 171.232 391.808C171.211 392.149 171.2 392.48 171.2 392.8C171.2 392.885 171.222 392.928 171.264 392.928C171.606 392.501 171.979 392.107 172.384 391.744C172.811 391.381 173.259 391.093 173.728 390.88C174.198 390.645 174.646 390.528 175.072 390.528C175.627 390.528 176.054 390.645 176.352 390.88C176.651 391.093 176.8 391.381 176.8 391.744C176.8 391.979 176.726 392.256 176.576 392.576C176.448 392.875 176.267 393.141 176.032 393.376C175.819 393.589 175.584 393.696 175.328 393.696C175.179 393.696 175.019 393.664 174.848 393.6C174.678 393.515 174.496 393.429 174.304 393.344C174.134 393.259 173.952 393.184 173.76 393.12C173.59 393.035 173.419 392.992 173.248 392.992C172.715 392.992 172.224 393.184 171.776 393.568C171.328 393.952 171.104 394.699 171.104 395.808V401.824C171.104 402.165 171.243 402.432 171.52 402.624C171.798 402.816 172.214 402.997 172.768 403.168C173.003 403.232 173.184 403.307 173.312 403.392C173.44 403.456 173.504 403.563 173.504 403.712C173.504 403.968 173.302 404.096 172.896 404.096C172.256 404.096 171.702 404.064 171.232 404C170.784 403.957 170.283 403.936 169.728 403.936C169.366 403.936 169.046 403.947 168.768 403.968C168.491 403.989 168.203 404.011 167.904 404.032C167.606 404.075 167.243 404.096 166.816 404.096ZM184.973 404.448C183.757 404.448 182.648 404.171 181.645 403.616C180.664 403.04 179.885 402.261 179.309 401.28C178.733 400.299 178.445 399.179 178.445 397.92C178.445 396.981 178.626 396.075 178.989 395.2C179.352 394.325 179.864 393.536 180.525 392.832C181.186 392.128 181.954 391.573 182.829 391.168C183.704 390.741 184.642 390.528 185.645 390.528C186.904 390.528 188.045 390.837 189.069 391.456C190.093 392.053 190.904 392.843 191.501 393.824C192.098 394.805 192.397 395.883 192.397 397.056C192.397 398.336 192.12 399.541 191.565 400.672C191.01 401.803 190.178 402.72 189.069 403.424C187.981 404.107 186.616 404.448 184.973 404.448ZM185.645 403.328C186.264 403.328 186.818 403.211 187.309 402.976C187.8 402.72 188.184 402.336 188.461 401.824C188.717 401.333 188.888 400.736 188.973 400.032C189.08 399.307 189.133 398.571 189.133 397.824C189.133 396.757 188.962 395.755 188.621 394.816C188.28 393.877 187.81 393.12 187.213 392.544C186.616 391.968 185.912 391.68 185.101 391.68C184.61 391.68 184.162 391.765 183.757 391.936C183.373 392.085 183.021 392.352 182.701 392.736C182.296 393.227 182.029 393.867 181.901 394.656C181.773 395.424 181.709 396.267 181.709 397.184C181.709 398.208 181.88 399.189 182.221 400.128C182.562 401.067 183.021 401.835 183.597 402.432C184.194 403.029 184.877 403.328 185.645 403.328ZM194.778 404.096C194.629 404.096 194.479 404.075 194.33 404.032C194.202 403.989 194.138 403.893 194.138 403.744C194.138 403.573 194.213 403.456 194.362 403.392C194.511 403.307 194.682 403.221 194.874 403.136C195.194 403.029 195.493 402.912 195.77 402.784C196.047 402.656 196.186 402.368 196.186 401.92V386.08C196.186 385.461 196.079 384.949 195.866 384.544C195.674 384.117 195.311 383.851 194.778 383.744C194.607 383.701 194.522 383.552 194.522 383.296C194.522 383.061 194.597 382.923 194.746 382.88C195.301 382.773 195.823 382.635 196.314 382.464C196.805 382.293 197.263 382.123 197.69 381.952C198.117 381.781 198.501 381.632 198.842 381.504C198.97 381.461 199.066 381.44 199.13 381.44C199.194 381.44 199.237 381.472 199.258 381.536C199.301 381.6 199.322 381.664 199.322 381.728C199.322 381.899 199.29 382.261 199.226 382.816C199.162 383.371 199.13 384.203 199.13 385.312V401.92C199.13 402.347 199.269 402.635 199.546 402.784C199.823 402.912 200.122 403.029 200.442 403.136C200.634 403.2 200.805 403.275 200.954 403.36C201.103 403.445 201.178 403.573 201.178 403.744C201.178 403.872 201.103 403.957 200.954 404C200.826 404.043 200.687 404.064 200.538 404.064C200.133 404.064 199.781 404.053 199.482 404.032C199.183 404.011 198.895 403.989 198.618 403.968C198.341 403.947 198.01 403.936 197.626 403.936C197.263 403.936 196.943 403.947 196.666 403.968C196.389 403.989 196.111 404.011 195.834 404.032C195.557 404.075 195.205 404.096 194.778 404.096ZM206.261 404.448C205.813 404.448 205.376 404.299 204.949 404C204.523 403.723 204.171 403.371 203.893 402.944C203.616 402.496 203.477 402.059 203.477 401.632C203.477 400.928 203.669 400.363 204.053 399.936C204.459 399.509 205.077 399.125 205.909 398.784L209.013 397.472C209.44 397.301 209.696 397.152 209.781 397.024C209.867 396.875 209.92 396.587 209.941 396.16L210.005 394.208C210.027 393.632 209.888 393.152 209.589 392.768C209.291 392.384 208.853 392.192 208.277 392.192C207.979 392.192 207.669 392.256 207.349 392.384C207.051 392.491 206.805 392.619 206.613 392.768C206.507 392.853 206.432 392.971 206.389 393.12C206.368 393.269 206.357 393.429 206.357 393.6C206.357 393.707 206.357 393.835 206.357 393.984C206.379 394.112 206.389 394.219 206.389 394.304C206.389 394.432 206.24 394.592 205.941 394.784C205.664 394.955 205.333 395.115 204.949 395.264C204.587 395.413 204.277 395.488 204.021 395.488C203.893 395.488 203.787 395.456 203.701 395.392C203.637 395.307 203.605 395.2 203.605 395.072C203.605 394.731 203.712 394.379 203.925 394.016C204.16 393.632 204.501 393.248 204.949 392.864C205.461 392.416 206.016 392.021 206.613 391.68C207.232 391.317 207.829 391.04 208.405 390.848C209.003 390.656 209.525 390.56 209.973 390.56C210.869 390.56 211.595 390.869 212.149 391.488C212.725 392.085 212.992 392.864 212.949 393.824L212.789 401.056C212.768 401.525 212.864 401.909 213.077 402.208C213.291 402.507 213.557 402.656 213.877 402.656C214.368 402.656 214.752 402.528 215.029 402.272C215.115 402.187 215.189 402.144 215.253 402.144C215.36 402.144 215.445 402.176 215.509 402.24C215.595 402.304 215.637 402.389 215.637 402.496C215.637 402.752 215.488 403.019 215.189 403.296C214.827 403.659 214.432 403.936 214.005 404.128C213.6 404.341 213.205 404.448 212.821 404.448C211.755 404.448 210.901 403.872 210.261 402.72H210.165C209.461 403.317 208.8 403.755 208.181 404.032C207.563 404.309 206.923 404.448 206.261 404.448ZM207.925 402.72C208.288 402.72 208.587 402.667 208.821 402.56C209.077 402.432 209.301 402.261 209.493 402.048C209.6 401.941 209.675 401.813 209.717 401.664C209.781 401.493 209.824 401.237 209.845 400.896L209.909 399.072C209.931 398.859 209.92 398.709 209.877 398.624C209.835 398.517 209.749 398.464 209.621 398.464C209.579 398.464 209.515 398.475 209.429 398.496C209.344 398.517 209.227 398.56 209.077 398.624C208.117 398.987 207.445 399.371 207.061 399.776C206.677 400.16 206.485 400.587 206.485 401.056C206.485 401.632 206.635 402.059 206.933 402.336C207.253 402.592 207.584 402.72 207.925 402.72ZM224.728 404.448C224.195 404.448 223.683 404.395 223.192 404.288C222.701 404.203 222.243 404.107 221.816 404C221.411 403.893 221.048 403.797 220.728 403.712C220.408 403.605 220.184 403.552 220.056 403.552C219.885 403.552 219.725 403.595 219.576 403.68C219.448 403.765 219.32 403.861 219.192 403.968C219.043 404.096 218.925 404.16 218.84 404.16C218.712 404.16 218.595 404.117 218.488 404.032C218.381 403.947 218.328 403.851 218.328 403.744C218.328 403.552 218.371 403.211 218.456 402.72C218.563 402.229 218.616 401.707 218.616 401.152L218.552 386.08C218.552 385.525 218.435 385.045 218.2 384.64C217.965 384.213 217.624 383.915 217.176 383.744C217.069 383.701 216.973 383.648 216.888 383.584C216.803 383.499 216.76 383.392 216.76 383.264C216.76 383.157 216.792 383.072 216.856 383.008C216.941 382.944 217.037 382.901 217.144 382.88C217.485 382.816 217.923 382.699 218.456 382.528C218.989 382.336 219.491 382.144 219.96 381.952C220.451 381.76 220.803 381.621 221.016 381.536C221.165 381.472 221.272 381.44 221.336 381.44C221.421 381.44 221.485 381.472 221.528 381.536C221.571 381.579 221.592 381.643 221.592 381.728C221.592 381.835 221.571 382.165 221.528 382.72C221.507 383.253 221.496 383.883 221.496 384.608L221.464 391.264C221.464 391.627 221.485 391.883 221.528 392.032C221.592 392.181 221.667 392.256 221.752 392.256C222.413 391.744 223.149 391.339 223.96 391.04C224.792 390.72 225.549 390.56 226.232 390.56C227.32 390.56 228.301 390.837 229.176 391.392C230.051 391.947 230.744 392.715 231.256 393.696C231.789 394.656 232.056 395.744 232.056 396.96C232.056 398.432 231.747 399.733 231.128 400.864C230.509 401.995 229.645 402.88 228.536 403.52C227.448 404.139 226.179 404.448 224.728 404.448ZM225.4 403.328C226.125 403.328 226.744 403.083 227.256 402.592C227.789 402.08 228.195 401.397 228.472 400.544C228.771 399.691 228.92 398.752 228.92 397.728C228.92 396.875 228.781 396.011 228.504 395.136C228.227 394.261 227.789 393.536 227.192 392.96C226.595 392.363 225.837 392.064 224.92 392.064C224.237 392.064 223.597 392.171 223 392.384C222.403 392.597 221.891 392.885 221.464 393.248V399.68C221.464 400.405 221.645 401.045 222.008 401.6C222.392 402.155 222.883 402.581 223.48 402.88C224.099 403.179 224.739 403.328 225.4 403.328ZM240.485 404.48C239.333 404.48 238.309 404.192 237.413 403.616C236.538 403.019 235.845 402.197 235.333 401.152C234.821 400.085 234.565 398.859 234.565 397.472C234.565 396.213 234.853 395.061 235.429 394.016C236.026 392.971 236.815 392.139 237.797 391.52C238.778 390.88 239.855 390.56 241.029 390.56C241.903 390.56 242.682 390.741 243.365 391.104C244.069 391.445 244.613 391.936 244.997 392.576C245.402 393.195 245.605 393.909 245.605 394.72C245.605 395.424 245.274 395.776 244.613 395.776H237.989C237.69 395.776 237.477 395.861 237.349 396.032C237.221 396.203 237.157 396.512 237.157 396.96C237.157 397.899 237.37 398.763 237.797 399.552C238.223 400.32 238.789 400.939 239.493 401.408C240.197 401.877 240.975 402.112 241.829 402.112C242.469 402.112 243.045 401.995 243.557 401.76C244.09 401.504 244.581 401.152 245.029 400.704C245.093 400.619 245.146 400.555 245.189 400.512C245.253 400.469 245.317 400.448 245.381 400.448C245.573 400.448 245.669 400.565 245.669 400.8C245.669 401.141 245.519 401.547 245.221 402.016C244.922 402.464 244.538 402.88 244.069 403.264C243.621 403.627 243.087 403.915 242.469 404.128C241.871 404.363 241.21 404.48 240.485 404.48ZM238.021 394.688H240.581C241.135 394.688 241.573 394.677 241.893 394.656C242.213 394.635 242.511 394.592 242.789 394.528C242.895 394.485 242.97 394.4 243.013 394.272C243.055 394.123 243.077 393.941 243.077 393.728C243.077 393.131 242.831 392.629 242.341 392.224C241.85 391.797 241.263 391.584 240.581 391.584C240.111 391.584 239.642 391.723 239.173 392C238.725 392.277 238.351 392.629 238.053 393.056C237.754 393.461 237.615 393.877 237.637 394.304C237.637 394.56 237.765 394.688 238.021 394.688Z" fill="#0A2239"/>
</svg>
