<svg width="354" height="374" viewBox="0 0 354 374" fill="none" xmlns="http://www.w3.org/2000/svg">
<path d="M22.4665 126.316L40.2725 192.768L81.1505 216.369M81.1505 216.369L133.321 253.164M81.1505 216.369L163.92 156.817M133.321 253.164L107.419 314.404L112.475 359.592M133.321 253.164L201.181 201.132M201.181 201.132L298.47 248.403L327.054 228.756M201.181 201.132L163.92 156.817M163.92 156.817L179.08 66.0161L149.693 37.9259" stroke="#D6BA73" stroke-width="2"/>
<circle cx="23.2536" cy="123.989" r="7.49275" transform="rotate(-15 23.2536 123.989)" fill="#D6BA73"/>
<circle cx="151.714" cy="40.205" r="7.49275" transform="rotate(-15 151.714 40.205)" fill="#D6BA73"/>
<circle cx="112.428" cy="356.783" r="7.49275" transform="rotate(-15 112.428 356.783)" fill="#D6BA73"/>
<circle cx="327.23" cy="229.414" r="6.81159" transform="rotate(-15 327.23 229.414)" fill="#D6BA73"/>
<circle cx="298.117" cy="247.087" r="8.17391" transform="rotate(-15 298.117 247.087)" fill="#D6BA73"/>
<circle cx="41.2358" cy="191.1" r="8.85507" transform="rotate(-15 41.2358 191.1)" fill="#D6BA73"/>
<circle cx="108.077" cy="314.228" r="8.85507" transform="rotate(-15 108.077 314.228)" fill="#D6BA73"/>
<circle cx="179.562" cy="65.1819" r="8.85507" transform="rotate(-15 179.562 65.1819)" fill="#D6BA73"/>
<circle cx="80.3163" cy="215.888" r="6.13043" transform="rotate(-15 80.3163 215.888)" fill="#D6BA73"/>
<circle cx="163.614" cy="158.309" r="6.13043" transform="rotate(-15 163.614 158.309)" fill="#D6BA73"/>
<circle cx="201.181" cy="201.132" r="5.44928" transform="rotate(-15 201.181 201.132)" fill="#D6BA73"/>
<circle cx="133.321" cy="253.164" r="4.08696" transform="rotate(-15 133.321 253.164)" fill="#D6BA73"/>
</svg>
