<svg width="137" height="154" viewBox="0 0 137 154" fill="none" xmlns="http://www.w3.org/2000/svg">
<rect width="137" height="154" fill="#D6BA73"/>
<rect x="3" y="119" width="131" height="21" fill="#0A2239"/>
<rect x="3" y="8" width="131" height="21" fill="#0A2239"/>
<path d="M14.3818 14.8311L14.5446 15.63L15.1829 15.1226L18.6397 12.3747L16.5338 16.2562L16.145 16.9729L16.9601 16.9945L21.3745 17.1115L17.2663 18.7313L16.5078 19.0304L17.1183 19.5708L20.4247 22.498L16.2365 21.0981L15.4632 20.8397L15.5835 21.6461L16.2348 26.0138L13.9262 22.2493L13.5 21.5542L13.0738 22.2493L10.7652 26.0138L11.4165 21.6461L11.5368 20.8397L10.7635 21.0981L6.57526 22.498L9.88172 19.5708L10.4922 19.0304L9.73369 18.7313L5.62548 17.1115L10.0399 16.9945L10.855 16.9729L10.4662 16.2562L8.36027 12.3747L11.8171 15.1226L12.4554 15.63L12.6182 14.8311L13.5 10.504L14.3818 14.8311Z" fill="#0A2239" stroke="#D6BA73"/>
<path d="M36.3818 14.8311L36.5446 15.63L37.1829 15.1226L40.6397 12.3747L38.5338 16.2562L38.145 16.9729L38.9601 16.9945L43.3745 17.1115L39.2663 18.7313L38.5078 19.0304L39.1183 19.5708L42.4247 22.498L38.2365 21.0981L37.4632 20.8397L37.5835 21.6461L38.2348 26.0138L35.9262 22.2493L35.5 21.5542L35.0738 22.2493L32.7652 26.0138L33.4165 21.6461L33.5368 20.8397L32.7635 21.0981L28.5753 22.498L31.8817 19.5708L32.4922 19.0304L31.7337 18.7313L27.6255 17.1115L32.0399 16.9945L32.855 16.9729L32.4662 16.2562L30.3603 12.3747L33.8171 15.1226L34.4554 15.63L34.6182 14.8311L35.5 10.504L36.3818 14.8311Z" fill="#0A2239" stroke="#D6BA73"/>
<path d="M58.3818 14.8311L58.5446 15.63L59.1829 15.1226L62.6397 12.3747L60.5338 16.2562L60.145 16.9729L60.9601 16.9945L65.3745 17.1115L61.2663 18.7313L60.5078 19.0304L61.1183 19.5708L64.4247 22.498L60.2365 21.0981L59.4632 20.8397L59.5835 21.6461L60.2348 26.0138L57.9262 22.2493L57.5 21.5542L57.0738 22.2493L54.7652 26.0138L55.4165 21.6461L55.5368 20.8397L54.7635 21.0981L50.5753 22.498L53.8817 19.5708L54.4922 19.0304L53.7337 18.7313L49.6255 17.1115L54.0399 16.9945L54.855 16.9729L54.4662 16.2562L52.3603 12.3747L55.8171 15.1226L56.4554 15.63L56.6182 14.8311L57.5 10.504L58.3818 14.8311Z" fill="#0A2239" stroke="#D6BA73"/>
<path d="M80.3818 14.8311L80.5446 15.63L81.1829 15.1226L84.6397 12.3747L82.5338 16.2562L82.145 16.9729L82.9601 16.9945L87.3745 17.1115L83.2663 18.7313L82.5078 19.0304L83.1183 19.5708L86.4247 22.498L82.2365 21.0981L81.4632 20.8397L81.5835 21.6461L82.2348 26.0138L79.9262 22.2493L79.5 21.5542L79.0738 22.2493L76.7652 26.0138L77.4165 21.6461L77.5368 20.8397L76.7635 21.0981L72.5753 22.498L75.8817 19.5708L76.4922 19.0304L75.7337 18.7313L71.6255 17.1115L76.0399 16.9945L76.855 16.9729L76.4662 16.2562L74.3603 12.3747L77.8171 15.1226L78.4554 15.63L78.6182 14.8311L79.5 10.504L80.3818 14.8311Z" fill="#0A2239" stroke="#D6BA73"/>
<path d="M102.382 14.8311L102.545 15.63L103.183 15.1226L106.64 12.3747L104.534 16.2562L104.145 16.9729L104.96 16.9945L109.375 17.1115L105.266 18.7313L104.508 19.0304L105.118 19.5708L108.425 22.498L104.236 21.0981L103.463 20.8397L103.583 21.6461L104.235 26.0138L101.926 22.2493L101.5 21.5542L101.074 22.2493L98.7652 26.0138L99.4165 21.6461L99.5368 20.8397L98.7635 21.0981L94.5753 22.498L97.8817 19.5708L98.4922 19.0304L97.7337 18.7313L93.6255 17.1115L98.0399 16.9945L98.855 16.9729L98.4662 16.2562L96.3603 12.3747L99.8171 15.1226L100.455 15.63L100.618 14.8311L101.5 10.504L102.382 14.8311Z" fill="#0A2239" stroke="#D6BA73"/>
<path d="M124.382 14.8311L124.545 15.63L125.183 15.1226L128.64 12.3747L126.534 16.2562L126.145 16.9729L126.96 16.9945L131.375 17.1115L127.266 18.7313L126.508 19.0304L127.118 19.5708L130.425 22.498L126.236 21.0981L125.463 20.8397L125.583 21.6461L126.235 26.0138L123.926 22.2493L123.5 21.5542L123.074 22.2493L120.765 26.0138L121.417 21.6461L121.537 20.8397L120.764 21.0981L116.575 22.498L119.882 19.5708L120.492 19.0304L119.734 18.7313L115.625 17.1115L120.04 16.9945L120.855 16.9729L120.466 16.2562L118.36 12.3747L121.817 15.1226L122.455 15.63L122.618 14.8311L123.5 10.504L124.382 14.8311Z" fill="#0A2239" stroke="#D6BA73"/>
<path d="M14.3818 125.831L14.5446 126.63L15.1829 126.123L18.6397 123.375L16.5338 127.256L16.145 127.973L16.9601 127.995L21.3745 128.112L17.2663 129.731L16.5078 130.03L17.1183 130.571L20.4247 133.498L16.2365 132.098L15.4632 131.84L15.5835 132.646L16.2348 137.014L13.9262 133.249L13.5 132.554L13.0738 133.249L10.7652 137.014L11.4165 132.646L11.5368 131.84L10.7635 132.098L6.57526 133.498L9.88172 130.571L10.4922 130.03L9.73369 129.731L5.62548 128.112L10.0399 127.995L10.855 127.973L10.4662 127.256L8.36027 123.375L11.8171 126.123L12.4554 126.63L12.6182 125.831L13.5 121.504L14.3818 125.831Z" fill="#0A2239" stroke="#D6BA73"/>
<path d="M36.3818 125.831L36.5446 126.63L37.1829 126.123L40.6397 123.375L38.5338 127.256L38.145 127.973L38.9601 127.995L43.3745 128.112L39.2663 129.731L38.5078 130.03L39.1183 130.571L42.4247 133.498L38.2365 132.098L37.4632 131.84L37.5835 132.646L38.2348 137.014L35.9262 133.249L35.5 132.554L35.0738 133.249L32.7652 137.014L33.4165 132.646L33.5368 131.84L32.7635 132.098L28.5753 133.498L31.8817 130.571L32.4922 130.03L31.7337 129.731L27.6255 128.112L32.0399 127.995L32.855 127.973L32.4662 127.256L30.3603 123.375L33.8171 126.123L34.4554 126.63L34.6182 125.831L35.5 121.504L36.3818 125.831Z" fill="#0A2239" stroke="#D6BA73"/>
<path d="M58.3818 125.831L58.5446 126.63L59.1829 126.123L62.6397 123.375L60.5338 127.256L60.145 127.973L60.9601 127.995L65.3745 128.112L61.2663 129.731L60.5078 130.03L61.1183 130.571L64.4247 133.498L60.2365 132.098L59.4632 131.84L59.5835 132.646L60.2348 137.014L57.9262 133.249L57.5 132.554L57.0738 133.249L54.7652 137.014L55.4165 132.646L55.5368 131.84L54.7635 132.098L50.5753 133.498L53.8817 130.571L54.4922 130.03L53.7337 129.731L49.6255 128.112L54.0399 127.995L54.855 127.973L54.4662 127.256L52.3603 123.375L55.8171 126.123L56.4554 126.63L56.6182 125.831L57.5 121.504L58.3818 125.831Z" fill="#0A2239" stroke="#D6BA73"/>
<path d="M80.3818 125.831L80.5446 126.63L81.1829 126.123L84.6397 123.375L82.5338 127.256L82.145 127.973L82.9601 127.995L87.3745 128.112L83.2663 129.731L82.5078 130.03L83.1183 130.571L86.4247 133.498L82.2365 132.098L81.4632 131.84L81.5835 132.646L82.2348 137.014L79.9262 133.249L79.5 132.554L79.0738 133.249L76.7652 137.014L77.4165 132.646L77.5368 131.84L76.7635 132.098L72.5753 133.498L75.8817 130.571L76.4922 130.03L75.7337 129.731L71.6255 128.112L76.0399 127.995L76.855 127.973L76.4662 127.256L74.3603 123.375L77.8171 126.123L78.4554 126.63L78.6182 125.831L79.5 121.504L80.3818 125.831Z" fill="#0A2239" stroke="#D6BA73"/>
<path d="M102.382 125.831L102.545 126.63L103.183 126.123L106.64 123.375L104.534 127.256L104.145 127.973L104.96 127.995L109.375 128.112L105.266 129.731L104.508 130.03L105.118 130.571L108.425 133.498L104.236 132.098L103.463 131.84L103.583 132.646L104.235 137.014L101.926 133.249L101.5 132.554L101.074 133.249L98.7652 137.014L99.4165 132.646L99.5368 131.84L98.7635 132.098L94.5753 133.498L97.8817 130.571L98.4922 130.03L97.7337 129.731L93.6255 128.112L98.0399 127.995L98.855 127.973L98.4662 127.256L96.3603 123.375L99.8171 126.123L100.455 126.63L100.618 125.831L101.5 121.504L102.382 125.831Z" fill="#0A2239" stroke="#D6BA73"/>
<path d="M124.382 125.831L124.545 126.63L125.183 126.123L128.64 123.375L126.534 127.256L126.145 127.973L126.96 127.995L131.375 128.112L127.266 129.731L126.508 130.03L127.118 130.571L130.425 133.498L126.236 132.098L125.463 131.84L125.583 132.646L126.235 137.014L123.926 133.249L123.5 132.554L123.074 133.249L120.765 137.014L121.417 132.646L121.537 131.84L120.764 132.098L116.575 133.498L119.882 130.571L120.492 130.03L119.734 129.731L115.625 128.112L120.04 127.995L120.855 127.973L120.466 127.256L118.36 123.375L121.817 126.123L122.455 126.63L122.618 125.831L123.5 121.504L124.382 125.831Z" fill="#0A2239" stroke="#D6BA73"/>
</svg>
