<svg width="197" height="30" viewBox="0 0 197 30" fill="none" xmlns="http://www.w3.org/2000/svg">
<path d="M1 29L8 1L15 29L22 1L29 29L36 1L43 29L50 1L57 29L64 1L71 29L78 1L85 29L92 1L99 29L106 1L113 29L120 1L127 29L134 1L141 29L148 1L155 29L162 1L169 29L176 1L183 29L190 1L196 29" stroke="#D6BA73"/>
<path d="M196 1L189 29L182 1L175 29L168 1L161 29L154 1L147 29L140 1L133 29L126 1L119 29L112 1L105 29L98 1L91 29L84 1L77 29L70 1L63 29L56 1L49 29L42 1L35 29L28 1L21 29L14 1L7 29L1 1" stroke="#D6BA73"/>
<circle cx="11" cy="14" r="2" fill="#D6BA73"/>
<circle cx="25" cy="14" r="2" fill="#D6BA73"/>
<circle cx="39" cy="14" r="2" fill="#D6BA73"/>
<circle cx="53" cy="14" r="2" fill="#D6BA73"/>
<circle cx="67" cy="14" r="2" fill="#D6BA73"/>
<circle cx="81" cy="14" r="2" fill="#D6BA73"/>
<circle cx="95" cy="14" r="2" fill="#D6BA73"/>
<circle cx="109" cy="14" r="2" fill="#D6BA73"/>
<circle cx="123" cy="14" r="2" fill="#D6BA73"/>
<circle cx="137" cy="14" r="2" fill="#D6BA73"/>
<circle cx="151" cy="14" r="2" fill="#D6BA73"/>
<circle cx="165" cy="14" r="2" fill="#D6BA73"/>
<circle cx="179" cy="14" r="2" fill="#D6BA73"/>
<circle cx="193" cy="14" r="2" fill="#D6BA73"/>
<path d="M1 29H196" stroke="#D6BA73"/>
<path d="M1 1H196" stroke="#D6BA73"/>
</svg>
