<svg width="582" height="471" viewBox="0 0 582 471" fill="none" xmlns="http://www.w3.org/2000/svg">
<path d="M424.336 30.2626C424.13 29.9011 424.006 29.5854 423.963 29.3154C423.891 29.0613 423.939 28.8867 424.106 28.7917C424.44 28.6016 424.951 28.9179 425.641 29.7404C426.437 30.6861 427.203 31.3183 427.936 31.6368C428.698 31.9394 429.566 31.8136 430.539 31.2592L449.391 20.5204C450.392 19.9502 450.99 19.3516 451.185 18.7248C451.38 18.0979 451.274 17.2008 450.867 16.0333C450.511 15.0207 450.528 14.4035 450.917 14.1818C451.084 14.0867 451.259 14.1346 451.441 14.3254C451.651 14.5003 451.859 14.7685 452.065 15.1299C452.493 15.8807 452.827 16.5003 453.069 16.9888C453.326 17.5052 453.568 17.9937 453.793 18.4544C454.047 18.8993 454.355 19.4415 454.72 20.081C455.068 20.6927 455.353 21.1932 455.575 21.5825C455.825 21.9559 456.09 22.3572 456.371 22.7862C456.652 23.2153 457.007 23.8052 457.435 24.5559C457.64 24.9174 457.765 25.2331 457.808 25.503C457.879 25.7571 457.832 25.9317 457.665 26.0268C457.47 26.1376 457.24 26.1214 456.974 25.9782C456.708 25.835 456.399 25.5507 456.047 25.1256C455.266 24.2077 454.532 23.6311 453.846 23.396C453.176 23.1887 452.34 23.3702 451.339 23.9404L432.57 34.6318C431.903 35.0119 431.444 35.5312 431.193 36.1898C430.958 36.8761 431.022 37.539 431.387 38.1785L434.879 44.3096C435.37 45.1715 435.866 45.718 436.365 45.9488C436.865 46.1797 437.355 46.232 437.836 46.1056C438.344 45.9634 438.793 45.7814 439.182 45.5597L457.617 35.0584C458.646 34.4724 459.25 33.852 459.429 33.1974C459.625 32.5705 459.519 31.6733 459.111 30.5059C458.926 29.9857 458.839 29.5747 458.851 29.2731C458.863 28.9715 458.967 28.7652 459.162 28.6543C459.328 28.5593 459.503 28.6072 459.685 28.7979C459.895 28.9729 460.103 29.2411 460.309 29.6025C460.737 30.3533 461.072 30.9729 461.313 31.4614C461.57 31.9778 461.812 32.4663 462.037 32.927C462.291 33.3719 462.6 33.9141 462.964 34.5536C463.312 35.1653 463.598 35.6658 463.819 36.0551C464.069 36.4285 464.334 36.8297 464.615 37.2588C464.897 37.6878 465.251 38.2777 465.679 39.0285C465.885 39.3899 466.009 39.7056 466.053 39.9756C466.124 40.2297 466.076 40.4043 465.909 40.4993C465.52 40.7211 464.98 40.4207 464.291 39.5981C463.51 38.6802 462.777 38.1037 462.09 37.8686C461.432 37.6177 460.602 37.7773 459.601 38.3475L440.499 49.2289C440.249 49.3715 439.988 49.5934 439.718 49.8947C439.448 50.196 439.29 50.5986 439.246 51.1026C439.202 51.6067 439.401 52.2479 439.845 53.0265L443.314 59.1158C443.725 59.8387 444.35 60.2563 445.187 60.3686C446.052 60.465 446.791 60.339 447.403 59.9906L465.879 49.4655C466.88 48.8953 467.47 48.2829 467.65 47.6282C467.845 47.0014 467.739 46.1042 467.332 44.9367C467.146 44.4165 467.059 44.0056 467.072 43.704C467.084 43.4023 467.187 43.1961 467.382 43.0852C467.549 42.9902 467.723 43.038 467.906 43.2288C468.116 43.4037 468.324 43.6719 468.53 44.0334C468.957 44.7841 469.292 45.4038 469.533 45.8923C469.791 46.4086 470.032 46.8971 470.258 47.3579C470.511 47.8027 470.82 48.3449 471.184 48.9845C471.533 49.5962 471.818 50.0967 472.04 50.4859C472.289 50.8594 472.555 51.2606 472.836 51.6897C473.117 52.1187 473.472 52.7086 473.899 53.4593C474.105 53.8208 474.23 54.1365 474.273 54.4065C474.344 54.6606 474.296 54.8352 474.129 54.9302C473.74 55.1519 473.201 54.8515 472.511 54.029C471.731 53.1111 470.997 52.5346 470.311 52.2995C469.624 52.0644 468.795 52.224 467.821 52.7784L448.97 63.5172C447.996 64.0716 447.454 64.7675 447.341 65.6048C447.229 66.4421 447.369 67.4306 447.76 68.5703C448.116 69.5829 448.127 70.1842 447.793 70.3743C447.627 70.4693 447.452 70.4215 447.27 70.2307C447.06 70.0558 446.852 69.7876 446.646 69.4261C446.218 68.6754 445.889 68.0339 445.66 67.5017C445.418 67.0132 445.185 66.5386 444.959 66.0779C444.734 65.6172 444.439 65.067 444.074 64.4275C442.475 61.6192 441.01 59.0472 439.679 56.7116C438.392 54.3879 437.115 52.1139 435.848 49.8895C434.597 47.6929 433.314 45.4407 431.999 43.1328C430.685 40.825 429.214 38.2749 427.586 35.4824C427.19 34.7872 426.828 34.1834 426.499 33.671C426.186 33.1863 425.857 32.6739 425.513 32.1336C425.156 31.637 424.764 31.0133 424.336 30.2626Z" fill="#0A2239"/>
<path d="M445.742 70.691C445.688 70.5403 445.648 70.3337 445.623 70.071C445.577 69.8493 445.645 69.7062 445.826 69.6417C446.067 69.5557 446.271 69.6021 446.436 69.7809C446.643 69.979 446.834 70.1825 447.011 70.3914C447.323 70.7898 447.639 71.1527 447.959 71.48C448.321 71.8268 448.818 71.8873 449.451 71.6616L461.839 67.2447C462.442 67.0297 462.784 66.7038 462.866 66.2669C462.989 65.8494 463.031 65.393 462.99 64.8979C462.994 64.6246 463.014 64.3458 463.048 64.0617C463.094 63.8077 463.222 63.6431 463.433 63.5679C463.614 63.5034 463.757 63.5713 463.862 63.7715C464.009 63.9912 464.109 64.1763 464.162 64.327C464.377 64.9299 464.523 65.3874 464.601 65.6995C464.689 66.0418 464.751 66.3594 464.787 66.6521C464.865 66.9643 464.995 67.3766 465.177 67.889C465.371 68.4315 465.526 68.818 465.642 69.0484C465.799 69.2981 465.946 69.5684 466.084 69.859C466.221 70.1497 466.398 70.5965 466.613 71.1993C466.666 71.35 466.701 71.5416 466.716 71.7741C466.771 72.0259 466.709 72.1841 466.528 72.2486C466.317 72.3238 466.108 72.2624 465.902 72.0642C465.706 71.8962 465.52 71.7078 465.343 71.4989C465.062 71.0898 464.736 70.7473 464.366 70.4716C464.036 70.2153 463.57 70.1946 462.968 70.4095L453.925 73.6336C453.805 73.6766 453.736 73.7691 453.718 73.9112C453.742 74.0726 453.774 74.163 453.815 74.1824L465.801 79.6422C465.943 79.6595 466.034 79.6779 466.075 79.6973C466.127 79.7468 466.228 79.7447 466.379 79.691C466.982 79.476 467.32 79.1856 467.393 78.8197C467.497 78.4431 467.528 78.0072 467.487 77.5121C467.492 77.2387 467.511 76.96 467.546 76.6759C467.591 76.4219 467.72 76.2573 467.931 76.1821C468.111 76.1176 468.254 76.1855 468.36 76.3857C468.495 76.5752 468.595 76.7604 468.66 76.9412C468.875 77.544 469.021 78.0015 469.098 78.3137C469.176 78.6259 469.232 78.9283 469.269 79.2211C469.335 79.5031 469.46 79.9003 469.643 80.4127C469.836 80.9553 469.996 81.3568 470.123 81.6173C470.28 81.8671 470.428 82.1373 470.565 82.428C470.714 82.7488 470.895 83.2106 471.11 83.8135C471.175 83.9943 471.214 84.201 471.229 84.4335C471.274 84.6552 471.206 84.7983 471.026 84.8628C470.815 84.938 470.606 84.8766 470.399 84.6784C470.204 84.5104 470.017 84.322 469.841 84.1131C469.559 83.7039 469.228 83.3464 468.847 83.0406C468.496 82.724 468.02 82.6731 467.417 82.8881L455.029 87.305C454.426 87.52 454.094 87.876 454.034 88.3733C453.984 88.9006 453.964 89.4172 453.975 89.9231C453.97 90.1964 453.945 90.4601 453.9 90.7141C453.896 90.9875 453.773 91.1671 453.532 91.2531C453.351 91.3176 453.202 91.2346 453.086 91.0043C452.951 90.8148 452.856 90.6447 452.802 90.4939C452.587 89.8911 452.446 89.3981 452.377 89.0149C452.289 88.6726 452.206 88.3454 452.129 88.0332C452.051 87.7211 451.916 87.2937 451.723 86.7512C451.54 86.2388 451.374 85.8222 451.226 85.5013C451.088 85.2107 450.94 84.8899 450.781 84.5389C450.603 84.2289 450.406 83.7724 450.191 83.1696C450.137 83.0189 450.097 82.8122 450.072 82.5496C450.027 82.3278 450.095 82.1847 450.275 82.1203C450.516 82.0343 450.72 82.0807 450.886 82.2594C451.092 82.4576 451.284 82.6611 451.46 82.87C451.772 83.2684 452.103 83.6259 452.454 83.9425C452.815 84.2892 453.297 84.3551 453.9 84.1402L463.53 80.7066C463.651 80.6636 463.721 80.6216 463.74 80.5807C463.79 80.5291 463.774 80.4839 463.692 80.4451L451.125 74.7848C451.003 74.7266 450.821 74.7405 450.579 74.8265C449.947 75.0522 449.6 75.4136 449.539 75.9108C449.52 76.4274 449.515 76.9387 449.526 77.4445C449.521 77.7179 449.496 77.9816 449.451 78.2355C449.446 78.5089 449.324 78.6886 449.082 78.7746C448.902 78.839 448.753 78.7561 448.637 78.5257C448.501 78.3362 448.407 78.1661 448.353 78.0154C448.138 77.4126 447.996 76.9196 447.928 76.5364C447.84 76.1941 447.757 75.8668 447.68 75.5547C447.602 75.2425 447.467 74.8152 447.273 74.2726C447.091 73.7602 446.925 73.3436 446.777 73.0228C446.639 72.7321 446.491 72.4113 446.332 72.0604C446.153 71.7503 445.957 71.2939 445.742 70.691Z" fill="#0A2239"/>
<path d="M440.618 97.6638C440.583 97.5076 440.569 97.2976 440.576 97.0338C440.552 96.777 440.634 96.6278 440.821 96.5862C441.071 96.5308 441.283 96.5986 441.456 96.7896C441.605 97.0187 441.755 97.2479 441.904 97.477C442.164 97.911 442.452 98.3225 442.767 98.7114C443.052 99.1072 443.506 99.2359 444.131 99.0974L467.89 93.8304C468.14 93.775 468.498 93.6138 468.963 93.3467C469.435 93.111 469.871 92.7849 470.27 92.3686C470.67 91.9523 470.857 91.4682 470.833 90.9163C470.837 90.7845 470.894 90.6734 471.005 90.5832C471.117 90.493 471.235 90.4341 471.36 90.4064C471.516 90.3718 471.648 90.3753 471.755 90.417C471.863 90.4587 471.943 90.523 471.995 90.6098C472.539 91.7346 473.061 92.6842 473.56 93.4584C474.091 94.2258 474.596 94.9497 475.074 95.6303C475.081 95.6615 475.085 95.6771 475.085 95.6771C475.116 95.6702 475.135 95.6824 475.142 95.7136C475.156 95.7761 475.123 95.849 475.043 95.9322C474.963 96.0155 474.876 96.0675 474.782 96.0883C474.501 96.1506 474.038 96.2042 473.392 96.2489C472.785 96.3181 472.294 96.3942 471.919 96.4773C471.669 96.5327 471.532 96.5795 471.507 96.6176C471.889 96.8608 472.404 97.3366 473.053 98.045C473.74 98.7777 474.388 99.6336 474.999 100.613C475.64 101.585 476.068 102.555 476.283 103.524C476.643 105.148 476.511 106.62 475.885 107.938C475.298 109.281 474.383 110.402 473.14 111.3C471.935 112.223 470.598 112.847 469.13 113.173C467.724 113.484 466.291 113.523 464.829 113.29C463.4 113.05 462.046 112.563 460.769 111.83C459.492 111.097 458.384 110.163 457.444 109.027C456.535 107.885 455.918 106.58 455.592 105.111C455.495 104.674 455.456 104.126 455.474 103.466C455.467 102.845 455.507 102.213 455.594 101.571C455.688 100.96 455.841 100.467 456.053 100.093C456.046 100.061 455.852 100.072 455.47 100.124C455.119 100.169 454.753 100.217 454.371 100.269C453.965 100.359 453.715 100.414 453.622 100.435L444.858 102.378C444.452 102.468 444.174 102.693 444.025 103.054C443.851 103.453 443.763 103.866 443.759 104.293C443.731 104.758 443.705 105.157 443.68 105.49C443.642 105.761 443.6 106.016 443.555 106.256C443.485 106.533 443.325 106.7 443.076 106.755C442.888 106.797 442.751 106.696 442.664 106.453C442.546 106.217 442.467 106.005 442.425 105.818C442.224 104.912 442.102 104.136 442.057 103.49C441.988 102.883 441.863 102.173 441.683 101.361C441.565 100.83 441.453 100.396 441.345 100.059C441.245 99.7536 441.141 99.4325 441.033 99.0958C440.895 98.766 440.756 98.2886 440.618 97.6638ZM457.201 105.492C457.305 105.961 457.57 106.492 457.997 107.086C458.43 107.711 459.032 108.282 459.802 108.8C460.58 109.348 461.548 109.724 462.707 109.926C463.873 110.159 465.237 110.102 466.799 109.756C468.611 109.354 470.012 108.798 471.002 108.087C471.991 107.376 472.691 106.614 473.101 105.802C473.511 104.99 473.73 104.204 473.758 103.444C473.786 102.684 473.745 102.054 473.634 101.554C473.468 100.805 473.139 100.058 472.646 99.3151C472.161 98.6033 471.652 98.0113 471.122 97.5389C470.629 97.0909 470.273 96.8912 470.055 96.9397C469.367 97.092 468.661 97.2322 467.935 97.3603C467.248 97.5127 466.573 97.6459 465.91 97.7601C465.254 97.9056 464.657 98.0215 464.119 98.108C463.619 98.2188 463.228 98.3054 462.947 98.3677C461.698 98.6448 460.604 99.1822 459.666 99.98C458.736 100.809 458.036 101.718 457.567 102.707C457.136 103.72 457.014 104.649 457.201 105.492Z" fill="#0A2239"/>
<path d="M459.15 128.339C458.975 126.555 459.231 124.907 459.918 123.392C460.606 121.878 461.624 120.62 462.972 119.62C464.356 118.648 465.971 118.071 467.818 117.89C469.156 117.758 470.487 117.885 471.811 118.269C473.138 118.686 474.374 119.32 475.518 120.172C476.663 121.024 477.601 122.058 478.331 123.272C479.093 124.483 479.546 125.822 479.69 127.287C479.871 129.134 479.588 130.833 478.84 132.386C478.095 133.97 477.033 135.264 475.652 136.268C474.306 137.301 472.774 137.901 471.054 138.07C469.207 138.251 467.415 138.009 465.677 137.344C463.943 136.711 462.472 135.649 461.265 134.16C460.09 132.668 459.385 130.727 459.15 128.339ZM460.682 129.201C460.788 130.284 461.09 131.235 461.589 132.054C462.087 132.874 462.822 133.477 463.792 133.864C464.562 134.174 465.479 134.341 466.542 134.365C467.606 134.389 468.599 134.356 469.523 134.266C471.052 134.115 472.488 133.685 473.833 132.974C475.213 132.292 476.299 131.398 477.091 130.291C477.917 129.213 478.263 127.989 478.129 126.62C478.044 125.76 477.825 124.994 477.469 124.321C477.149 123.678 476.594 123.105 475.805 122.604C474.947 122.045 473.935 121.726 472.769 121.648C471.604 121.569 470.448 121.586 469.302 121.699C467.741 121.852 466.273 122.286 464.896 123C463.551 123.711 462.481 124.603 461.686 125.678C460.891 126.753 460.557 127.927 460.682 129.201Z" fill="#0A2239"/>
<path d="M459.821 160.982C459.832 160.342 459.939 159.752 460.141 159.211C460.343 158.671 460.657 158.149 461.082 157.644C461.507 157.172 462.06 156.67 462.742 156.138C463.423 155.639 464.249 155.094 465.22 154.503C466.32 153.852 467.258 153.309 468.034 152.875C468.81 152.441 469.411 151.956 469.837 151.419C470.295 150.916 470.532 150.184 470.55 149.224C470.555 148.904 470.414 148.742 470.126 148.736L463.695 148.619C463.024 148.606 462.587 148.838 462.387 149.315C462.186 149.791 462.001 150.268 461.832 150.745C461.732 150.999 461.615 151.237 461.483 151.459C461.382 151.713 461.204 151.838 460.948 151.833C460.724 151.829 460.599 151.666 460.573 151.346C460.546 151.057 460.534 150.849 460.536 150.721C460.548 150.113 460.588 149.634 460.659 149.283C460.697 148.932 460.735 148.596 460.773 148.277C460.811 147.99 460.834 147.558 460.845 146.982C460.855 146.438 460.847 146.006 460.821 145.686C460.795 145.365 460.769 145.028 460.743 144.676C460.685 144.355 460.662 143.874 460.674 143.234C460.676 143.106 460.696 142.883 460.734 142.563C460.771 142.276 460.902 142.134 461.126 142.138C461.382 142.143 461.556 142.258 461.647 142.484C461.771 142.742 461.878 143 461.969 143.258C462.12 143.741 462.256 144.208 462.376 144.658C462.528 145.109 462.939 145.34 463.611 145.353L476.617 145.591C477.321 145.603 477.852 145.437 478.21 145.092C478.569 144.746 478.816 144.335 478.953 143.857C479.054 143.603 479.171 143.349 479.303 143.095C479.435 142.874 479.613 142.765 479.837 142.769C480.093 142.774 480.219 142.92 480.213 143.208C480.239 143.529 480.251 143.753 480.249 143.881C480.237 144.521 480.213 144.968 480.176 145.224C480.139 145.511 480.086 145.782 480.017 146.037C479.981 146.292 479.957 146.692 479.948 147.236C479.937 147.812 479.945 148.228 479.973 148.484C480.032 148.742 480.075 149.014 480.102 149.303C480.128 149.623 480.135 150.088 480.124 150.696C480.122 150.824 480.102 151.031 480.065 151.319C480.059 151.639 479.928 151.796 479.672 151.792C479.448 151.787 479.275 151.656 479.151 151.398C479.027 151.172 478.92 150.93 478.828 150.672C478.709 150.19 478.461 149.769 478.083 149.41C477.738 149.052 477.197 148.866 476.461 148.852L471.998 148.771C471.838 148.768 471.725 148.814 471.66 148.908C471.625 149.036 471.607 149.163 471.605 149.291C471.575 150.923 471.968 152.163 472.785 153.01C473.601 153.889 474.531 154.626 475.577 155.221C476.178 155.584 476.78 155.915 477.383 156.214C477.985 156.545 478.523 156.891 478.996 157.252C479.501 157.645 479.893 158.101 480.171 158.618C480.449 159.167 480.582 159.81 480.568 160.545C480.553 161.377 480.318 161.965 479.864 162.309C479.441 162.685 478.989 162.869 478.509 162.86C477.997 162.851 477.568 162.715 477.221 162.452C476.873 162.19 476.704 161.835 476.712 161.387C476.718 161.067 476.853 160.669 477.118 160.194C477.382 159.751 477.517 159.369 477.523 159.049C477.531 158.633 477.424 158.311 477.205 158.083C476.984 157.887 476.716 157.658 476.401 157.397C476.149 157.2 475.721 156.936 475.119 156.605C474.517 156.306 473.915 155.959 473.314 155.564C472.713 155.169 472.257 154.744 471.945 154.291C471.851 154.161 471.772 154.111 471.708 154.142C471.675 154.174 471.61 154.22 471.513 154.283C470.412 154.967 469.377 155.572 468.407 156.098C467.47 156.625 466.596 157.137 465.787 157.634C464.88 158.226 464.084 158.851 463.4 159.511C462.748 160.171 462.237 160.978 461.868 161.931C461.732 162.345 461.566 162.662 461.37 162.882C461.206 163.103 460.996 163.212 460.74 163.207C460.548 163.203 460.344 162.992 460.128 162.572C459.911 162.184 459.808 161.654 459.821 160.982Z" fill="#0A2239"/>
<path d="M459.888 166.172C459.91 166.013 459.97 165.812 460.069 165.567C460.132 165.349 460.258 165.254 460.448 165.28C460.702 165.316 460.861 165.451 460.925 165.686C461.016 165.957 461.092 166.226 461.152 166.493C461.244 166.991 461.356 167.459 461.489 167.897C461.649 168.372 462.062 168.656 462.727 168.748L475.753 170.565C476.387 170.653 476.841 170.523 477.116 170.174C477.418 169.86 477.666 169.475 477.859 169.017C477.989 168.777 478.136 168.539 478.298 168.303C478.456 168.099 478.645 168.012 478.867 168.043C479.057 168.07 479.153 168.196 479.154 168.422C479.182 168.685 479.185 168.895 479.163 169.054C479.074 169.687 478.992 170.161 478.916 170.473C478.836 170.817 478.744 171.128 478.641 171.404C478.565 171.716 478.489 172.142 478.414 172.681C478.335 173.251 478.293 173.666 478.289 173.924C478.313 174.218 478.319 174.525 478.306 174.847C478.294 175.168 478.243 175.646 478.155 176.28C478.133 176.438 478.074 176.624 477.98 176.837C477.913 177.086 477.784 177.197 477.594 177.171C477.372 177.14 477.216 176.989 477.124 176.717C477.029 176.478 476.951 176.225 476.891 175.958C476.831 175.465 476.7 175.01 476.5 174.595C476.326 174.215 475.923 173.981 475.289 173.893L465.781 172.567C465.654 172.549 465.55 172.599 465.469 172.717C465.415 172.871 465.402 172.966 465.429 173.002L473.528 183.389C473.646 183.47 473.719 183.528 473.746 183.564C473.769 183.632 473.86 183.677 474.018 183.699C474.652 183.788 475.086 183.687 475.321 183.396C475.587 183.11 475.816 182.738 476.009 182.281C476.14 182.04 476.286 181.802 476.448 181.567C476.606 181.362 476.796 181.276 477.017 181.307C477.208 181.333 477.303 181.46 477.304 181.686C477.336 181.917 477.339 182.127 477.313 182.317C477.224 182.951 477.142 183.424 477.066 183.737C476.99 184.049 476.901 184.344 476.798 184.62C476.726 184.901 476.653 185.311 476.578 185.849C476.498 186.42 476.454 186.85 476.446 187.14C476.47 187.434 476.475 187.741 476.463 188.063C476.446 188.416 476.393 188.909 476.305 189.543C476.278 189.733 476.218 189.935 476.124 190.148C476.061 190.365 475.935 190.461 475.745 190.434C475.523 190.403 475.366 190.252 475.275 189.981C475.179 189.742 475.101 189.488 475.041 189.222C474.981 188.729 474.853 188.258 474.656 187.811C474.492 187.368 474.093 187.102 473.459 187.014L460.433 185.197C459.799 185.109 459.34 185.271 459.057 185.684C458.769 186.128 458.512 186.577 458.287 187.03C458.157 187.271 458.013 187.493 457.855 187.697C457.725 187.937 457.533 188.04 457.279 188.005C457.089 187.978 456.996 187.836 456.999 187.578C456.967 187.347 456.962 187.153 456.984 186.994C457.072 186.36 457.175 185.858 457.291 185.486C457.371 185.142 457.45 184.813 457.525 184.501C457.601 184.188 457.679 183.747 457.759 183.176C457.834 182.638 457.88 182.192 457.897 181.839C457.909 181.517 457.926 181.164 457.948 180.78C457.933 180.422 457.97 179.926 458.058 179.293C458.08 179.134 458.14 178.933 458.239 178.688C458.302 178.47 458.428 178.375 458.618 178.401C458.872 178.437 459.031 178.572 459.095 178.807C459.186 179.078 459.262 179.347 459.322 179.614C459.414 180.112 459.542 180.582 459.706 181.025C459.866 181.5 460.263 181.781 460.897 181.869L471.023 183.282C471.15 183.299 471.231 183.295 471.268 183.267C471.335 183.244 471.342 183.197 471.287 183.125L462.766 172.292C462.684 172.183 462.517 172.112 462.263 172.076C461.597 171.983 461.123 172.143 460.839 172.556C460.583 173.005 460.342 173.456 460.117 173.909C459.987 174.15 459.843 174.372 459.685 174.576C459.555 174.816 459.363 174.919 459.109 174.884C458.919 174.857 458.826 174.715 458.829 174.457C458.797 174.226 458.792 174.032 458.814 173.873C458.902 173.239 459.005 172.737 459.121 172.365C459.201 172.021 459.279 171.692 459.355 171.38C459.431 171.067 459.509 170.626 459.589 170.055C459.664 169.517 459.71 169.071 459.727 168.718C459.739 168.396 459.756 168.043 459.777 167.659C459.763 167.301 459.799 166.805 459.888 166.172Z" fill="#0A2239"/>
<path d="M453.194 199.236C453.631 197.531 454.43 196.15 455.593 195.093C456.755 194.036 458.187 193.346 459.889 193.022C461.621 192.706 463.495 192.806 465.51 193.322C467.308 193.782 468.832 194.602 470.083 195.781C471.357 196.999 472.268 198.405 472.818 199.999C473.368 201.594 473.436 203.197 473.023 204.809C472.706 206.049 472.176 207.086 471.434 207.92C470.692 208.754 469.804 209.319 468.77 209.616C467.759 209.952 466.68 209.973 465.533 209.679C464.572 209.433 464.211 208.845 464.449 207.915L466.961 198.103C467.072 197.669 467.028 197.328 466.827 197.078C466.65 196.868 466.22 196.675 465.538 196.5C464.05 196.119 462.603 196.095 461.196 196.429C459.821 196.77 458.622 197.388 457.6 198.283C456.609 199.185 455.947 200.287 455.614 201.589C455.376 202.519 455.332 203.4 455.482 204.231C455.656 205.102 456.008 205.919 456.539 206.682C456.663 206.846 456.732 206.963 456.747 207.033C456.793 207.111 456.804 207.196 456.78 207.289C456.717 207.537 456.53 207.621 456.22 207.542C455.631 207.391 455.052 206.945 454.482 206.205C454.012 205.589 453.643 204.9 453.376 204.138C453.108 203.376 452.965 202.579 452.947 201.749C452.897 200.91 452.98 200.073 453.194 199.236ZM468.379 198.565L467.295 202.797C467.105 203.541 466.958 204.18 466.854 204.715C466.75 205.25 466.681 205.778 466.647 206.297C466.638 206.46 466.707 206.577 466.854 206.648C467.024 206.758 467.265 206.852 467.575 206.931C468.474 207.162 469.336 206.953 470.163 206.306C471.012 205.698 471.576 204.851 471.854 203.766C472.036 203.053 472.002 202.284 471.75 201.46C471.53 200.644 471.169 199.924 470.668 199.3C470.167 198.677 469.607 198.285 468.987 198.127C468.677 198.047 468.474 198.193 468.379 198.565Z" fill="#0A2239"/>
<path d="M446.25 222.347C446.328 222.171 446.439 221.958 446.584 221.707C446.716 221.486 446.885 221.42 447.09 221.51C447.324 221.613 447.44 221.786 447.438 222.03C447.453 222.316 447.452 222.595 447.437 222.868C447.391 223.372 447.336 223.855 447.273 224.316C447.239 224.791 447.53 225.163 448.146 225.433L460.056 230.663C460.73 230.959 461.284 231.01 461.719 230.817C462.182 230.636 462.569 230.351 462.88 229.963C463.07 229.768 463.276 229.578 463.496 229.395C463.703 229.242 463.909 229.21 464.114 229.3C464.349 229.403 464.408 229.586 464.292 229.85C464.193 230.156 464.118 230.367 464.066 230.485C463.809 231.071 463.608 231.489 463.463 231.74C463.347 232.003 463.223 232.246 463.091 232.468C462.958 232.689 462.796 233.02 462.603 233.459C462.423 233.869 462.276 234.242 462.164 234.577C462.052 234.912 461.92 235.291 461.77 235.715C461.619 236.138 461.415 236.642 461.157 237.228C460.18 239.455 459.052 241.109 457.773 242.19C456.524 243.284 455.167 243.509 453.702 242.866C452.53 242.352 451.733 241.618 451.313 240.664C450.922 239.724 450.816 238.733 450.993 237.693C451.015 237.563 451.018 237.477 451.002 237.434C450.985 237.392 450.909 237.446 450.773 237.596C450.441 238.114 449.972 238.625 449.367 239.128C448.761 239.631 448.069 239.974 447.29 240.156C446.528 240.38 445.722 240.306 444.872 239.933C443.495 239.328 442.572 238.486 442.102 237.406C441.662 236.339 441.557 235.105 441.788 233.703C442.036 232.344 442.507 230.873 443.201 229.291C443.33 228.998 443.593 228.519 443.989 227.855C444.386 227.19 444.732 226.521 445.028 225.847C445.311 225.202 445.584 224.501 445.847 223.743C446.127 223.027 446.323 222.501 446.435 222.166C446.518 221.818 446.456 221.878 446.25 222.347ZM444.459 230.367C443.815 231.832 443.613 233.089 443.852 234.138C444.107 235.228 444.835 236.037 446.036 236.565C447.531 237.221 448.745 237.16 449.681 236.383C450.617 235.605 451.425 234.44 452.107 232.887C452.313 232.418 452.42 231.976 452.428 231.56C452.423 231.173 452.2 230.884 451.761 230.691L447.718 228.915C446.985 228.594 446.345 228.54 445.797 228.753C445.265 229.009 444.819 229.547 444.459 230.367ZM453.619 233.027C452.808 234.872 452.551 236.332 452.849 237.407C453.162 238.523 453.759 239.274 454.638 239.66C455.487 240.033 456.34 240.041 457.196 239.683C458.069 239.367 458.891 238.33 459.663 236.572C460.023 235.752 460.13 235.152 459.982 234.772C459.863 234.406 459.569 234.119 459.101 233.913L455.277 232.234C454.72 231.99 454.327 232.01 454.098 232.293C453.855 232.606 453.696 232.851 453.619 233.027Z" fill="#0A2239"/>
<path d="M437.377 241.769C437.474 241.603 437.609 241.404 437.783 241.172C437.94 240.967 438.115 240.921 438.308 241.034C438.529 241.164 438.624 241.349 438.594 241.591C438.575 241.877 438.542 242.154 438.495 242.424C438.391 242.919 438.316 243.394 438.272 243.85C438.238 244.35 438.512 244.77 439.092 245.109L450.44 251.757C450.992 252.081 451.462 252.134 451.849 251.916C452.248 251.741 452.624 251.479 452.977 251.13C453.189 250.958 453.415 250.793 453.655 250.637C453.879 250.509 454.087 250.501 454.28 250.614C454.474 250.727 454.519 250.902 454.418 251.14C454.3 251.404 454.192 251.619 454.095 251.785C453.772 252.337 453.523 252.73 453.35 252.962C453.161 253.222 452.966 253.46 452.765 253.676C452.592 253.908 452.368 254.259 452.093 254.729C451.801 255.226 451.605 255.593 451.503 255.83C451.429 256.083 451.333 256.342 451.215 256.606C451.081 256.899 450.86 257.307 450.553 257.832C450.456 257.997 450.329 258.183 450.172 258.387C449.998 258.62 449.815 258.679 449.622 258.566C449.429 258.453 449.341 258.253 449.36 257.968C449.363 257.71 449.388 257.446 449.434 257.177C449.567 256.698 449.619 256.228 449.593 255.767C449.577 255.35 449.293 254.98 448.741 254.657L444.392 252.109C444.282 252.044 444.181 252.059 444.088 252.153C443.996 252.248 443.934 252.322 443.901 252.378L439.388 260.081C439.356 260.136 439.359 260.194 439.398 260.254C439.421 260.341 439.488 260.417 439.598 260.482L443.864 262.981C444.416 263.305 444.87 263.385 445.225 263.222C445.608 263.076 445.976 262.827 446.329 262.478C446.541 262.306 446.767 262.141 447.007 261.985C447.231 261.857 447.439 261.849 447.632 261.962C447.826 262.075 447.871 262.251 447.769 262.488C447.668 262.725 447.56 262.94 447.447 263.133C447.123 263.685 446.875 264.078 446.702 264.31C446.529 264.542 446.35 264.753 446.165 264.941C445.992 265.173 445.768 265.524 445.493 265.994C445.202 266.491 445.005 266.858 444.904 267.095C444.813 267.376 444.701 267.662 444.567 267.955C444.433 268.247 444.212 268.655 443.905 269.18C443.791 269.373 443.656 269.572 443.499 269.777C443.342 269.982 443.167 270.027 442.974 269.914C442.78 269.801 442.693 269.601 442.712 269.316C442.715 269.058 442.74 268.794 442.786 268.525C442.918 268.046 442.979 267.562 442.969 267.074C442.986 266.602 442.718 266.204 442.166 265.88L430.818 259.232C430.266 258.909 429.78 258.884 429.36 259.157C428.924 259.458 428.516 259.775 428.135 260.108C427.923 260.281 427.705 260.431 427.481 260.56C427.269 260.732 427.052 260.754 426.831 260.624C426.638 260.511 426.601 260.322 426.719 260.057C426.82 259.82 426.92 259.619 427.017 259.453C427.324 258.929 427.594 258.531 427.828 258.259C428.033 257.972 428.231 257.698 428.42 257.438C428.593 257.206 428.825 256.841 429.116 256.344C429.391 255.875 429.596 255.494 429.73 255.202C429.864 254.909 430.006 254.603 430.157 254.283C430.263 253.975 430.478 253.545 430.802 252.992C430.899 252.827 431.034 252.628 431.207 252.395C431.364 252.191 431.539 252.145 431.733 252.258C431.954 252.388 432.049 252.573 432.018 252.815C431.999 253.1 431.967 253.378 431.92 253.647C431.816 254.142 431.755 254.626 431.738 255.098C431.705 255.598 431.964 256.01 432.516 256.333L437.693 259.366C437.804 259.431 437.867 259.449 437.883 259.422C437.927 259.41 437.965 259.377 437.997 259.322L442.704 251.287C442.737 251.232 442.733 251.174 442.694 251.114C442.667 251.098 442.598 251.058 442.487 250.993L437.393 248.009C436.813 247.669 436.314 247.636 435.894 247.909C435.486 248.226 435.091 248.551 434.71 248.885C434.498 249.057 434.28 249.207 434.056 249.336C433.844 249.508 433.628 249.53 433.407 249.4C433.214 249.287 433.176 249.098 433.294 248.834C433.396 248.596 433.495 248.395 433.592 248.229C433.899 247.705 434.17 247.307 434.403 247.035C434.608 246.748 434.806 246.474 434.995 246.214C435.168 245.982 435.401 245.617 435.692 245.12C435.967 244.651 436.171 244.27 436.305 243.978C436.44 243.686 436.582 243.379 436.732 243.06C436.839 242.751 437.054 242.321 437.377 241.769Z" fill="#0A2239"/>
<path d="M412.647 256.11C413.014 255.625 413.48 255.275 414.044 255.06C414.582 254.826 415.132 254.921 415.694 255.346C416.153 255.694 416.484 256.105 416.686 256.58C416.844 257.061 416.768 257.505 416.459 257.913C416.247 258.194 416.006 258.433 415.736 258.63C415.447 258.853 415.225 259.066 415.071 259.27C414.955 259.423 414.896 259.58 414.896 259.74C414.85 259.906 414.865 260.098 414.941 260.316C415.187 260.944 415.52 261.698 415.938 262.576C416.337 263.481 416.826 264.453 417.403 265.492C417.961 266.557 418.59 267.635 419.289 268.727C419.46 268.977 419.725 269.237 420.082 269.508C420.286 269.662 420.487 269.795 420.685 269.904C420.908 270.033 421.116 270.13 421.308 270.195L435.881 274.247C436.475 274.416 437.054 274.474 437.618 274.419C438.187 274.408 438.668 274.251 439.06 273.945C439.291 273.799 439.535 273.663 439.791 273.536C440.029 273.435 440.237 273.452 440.415 273.587C440.568 273.703 440.59 273.86 440.48 274.058C440.377 274.3 440.277 274.485 440.18 274.613C439.794 275.123 439.501 275.483 439.301 275.694C439.083 275.929 438.87 276.13 438.665 276.296C438.465 276.506 438.202 276.828 437.873 277.261C437.525 277.721 437.277 278.075 437.129 278.324C437.006 278.592 436.861 278.863 436.693 279.138C436.526 279.412 436.248 279.804 435.862 280.314C435.746 280.468 435.582 280.604 435.371 280.725C435.184 280.865 435.015 280.877 434.862 280.761C434.683 280.626 434.611 280.35 434.645 279.934C434.685 279.563 434.757 279.257 434.86 279.014C434.977 278.701 434.981 278.403 434.874 278.121C434.792 277.858 434.572 277.592 434.215 277.321C434.062 277.205 433.842 277.099 433.554 277.001C433.292 276.923 433.078 276.861 432.912 276.816L422.912 274.12C422.72 274.055 422.585 274.073 422.508 274.175C422.45 274.252 422.478 274.374 422.593 274.54L427.596 282.484C427.716 282.696 427.898 282.933 428.14 283.197C428.388 283.505 428.601 283.727 428.78 283.862C429.265 284.229 429.654 284.404 429.949 284.386C430.249 284.413 430.538 284.35 430.813 284.198C431.07 284.071 431.381 283.926 431.747 283.761C432.119 283.641 432.394 283.649 432.572 283.784C432.725 283.9 432.76 284.066 432.676 284.284C432.597 284.546 432.51 284.74 432.414 284.868C432.143 285.225 431.834 285.553 431.487 285.853C431.147 286.197 430.706 286.726 430.165 287.44C429.798 287.925 429.55 288.279 429.421 288.502C429.298 288.77 429.191 288.991 429.101 289.163C429.01 289.335 428.859 289.562 428.646 289.842C428.55 289.97 428.408 290.104 428.222 290.244C428.042 290.428 427.875 290.463 427.722 290.347C427.544 290.212 427.481 290.003 427.533 289.722C427.566 289.466 427.622 289.207 427.7 288.945C427.888 288.485 427.891 287.845 427.709 287.025C427.553 286.225 427.265 285.465 426.846 284.746L418.389 270.153C418.332 270.069 418.107 269.678 417.713 268.978C417.3 268.304 416.795 267.461 416.199 266.447C415.602 265.433 414.97 264.332 414.304 263.145C413.618 261.983 412.961 260.863 412.332 259.785C411.996 259.169 411.864 258.548 411.938 257.921C411.985 257.275 412.222 256.671 412.647 256.11Z" fill="#0A2239"/>
<path d="M407.53 283.877C407.64 283.76 407.817 283.619 408.061 283.453C408.281 283.265 408.461 283.236 408.601 283.368C408.788 283.543 408.839 283.745 408.756 283.974C408.674 284.248 408.58 284.512 408.475 284.764C408.263 285.223 408.096 285.681 407.975 286.138C407.831 286.618 408.016 287.099 408.529 287.581L418.01 296.487C418.22 296.684 418.475 296.88 418.775 297.074C419.099 297.291 419.348 297.306 419.524 297.119L421.496 295.02C421.824 294.67 422.017 294.324 422.074 293.983C422.132 293.642 422.085 293.247 421.936 292.799C421.787 292.396 421.522 291.884 421.141 291.262C420.998 291.04 420.898 290.749 420.842 290.388C420.786 290.073 420.847 289.822 421.022 289.635C421.109 289.542 421.233 289.504 421.392 289.522C421.551 289.54 421.712 289.625 421.875 289.779C421.922 289.822 421.98 289.877 422.05 289.943C422.098 290.032 422.146 290.121 422.194 290.21C422.433 290.61 422.812 291.142 423.331 291.805C423.873 292.489 424.365 293.04 424.809 293.456C424.995 293.632 425.114 293.809 425.165 293.988C425.194 294.191 425.121 294.386 424.945 294.573C424.77 294.759 424.593 294.901 424.415 294.997C424.237 295.093 423.982 295.248 423.649 295.462C423.338 295.653 423.049 295.843 422.784 296.032C422.496 296.245 422.155 296.561 421.761 296.981L414.991 304.188C414.706 304.491 414.433 304.805 414.171 305.13C413.91 305.456 413.77 305.698 413.752 305.857C413.736 306.061 413.685 306.255 413.601 306.439C413.539 306.644 413.487 306.77 413.443 306.817C413.377 306.887 413.254 306.925 413.073 306.931C412.892 306.936 412.72 306.862 412.556 306.709C412.323 306.49 412.089 306.226 411.852 305.916C411.616 305.606 411.347 305.309 411.044 305.024C410.764 304.761 410.484 304.499 410.204 304.236C409.926 304.018 409.647 303.8 409.369 303.583C409.183 303.453 409.041 303.253 408.942 302.985C408.845 302.761 408.873 302.568 409.026 302.405C409.18 302.242 409.416 302.2 409.735 302.281C410.056 302.407 410.298 302.524 410.459 302.632C410.901 303.003 411.339 303.261 411.774 303.406C412.232 303.572 412.674 303.593 413.1 303.466C413.526 303.34 413.948 303.055 414.364 302.612L416.336 300.512C416.555 300.279 416.569 300.007 416.378 299.696C416.166 299.409 415.943 299.155 415.709 298.936L406.194 289.997C405.704 289.537 405.224 289.393 404.754 289.566C404.262 289.763 403.793 289.981 403.348 290.222C403.103 290.342 402.857 290.441 402.61 290.516C402.365 290.637 402.149 290.61 401.963 290.435C401.823 290.303 401.84 290.122 402.013 289.89C402.164 289.636 402.294 289.451 402.404 289.334C402.82 288.891 403.172 288.563 403.459 288.35C403.724 288.116 403.977 287.893 404.22 287.681C404.44 287.493 404.748 287.19 405.142 286.77C405.514 286.373 405.799 286.047 405.994 285.792C406.19 285.537 406.397 285.27 406.615 284.992C406.787 284.715 407.092 284.343 407.53 283.877Z" fill="#0A2239"/>
<path d="M387.307 285.365C387.429 285.261 387.608 285.151 387.844 285.034C388.06 284.893 388.23 284.895 388.355 285.041C388.52 285.236 388.559 285.455 388.472 285.698C388.339 285.937 388.206 286.176 388.073 286.415C387.811 286.847 387.582 287.294 387.385 287.755C387.168 288.191 387.267 288.653 387.682 289.141L403.443 307.683C403.609 307.878 403.919 308.119 404.372 308.406C404.801 308.713 405.293 308.946 405.848 309.104C406.403 309.263 406.918 309.202 407.395 308.923C407.513 308.865 407.638 308.863 407.77 308.919C407.902 308.975 408.009 309.052 408.092 309.15C408.195 309.272 408.254 309.39 408.267 309.505C408.281 309.619 408.261 309.72 408.209 309.806C407.469 310.813 406.873 311.718 406.422 312.522C405.992 313.35 405.588 314.134 405.21 314.875C405.186 314.896 405.173 314.906 405.173 314.906C405.194 314.931 405.192 314.953 405.168 314.974C405.119 315.016 405.039 315.02 404.928 314.989C404.817 314.957 404.731 314.905 404.669 314.831C404.482 314.612 404.218 314.227 403.877 313.678C403.532 313.173 403.235 312.774 402.986 312.482C402.82 312.287 402.715 312.187 402.67 312.184C402.633 312.635 402.454 313.313 402.131 314.217C401.804 315.167 401.35 316.14 400.77 317.137C400.211 318.159 399.553 318.991 398.797 319.634C397.529 320.711 396.166 321.282 394.708 321.345C393.246 321.454 391.828 321.169 390.453 320.49C389.074 319.856 387.898 318.966 386.923 317.82C385.991 316.723 385.286 315.474 384.809 314.073C384.354 312.697 384.151 311.273 384.202 309.801C384.253 308.33 384.561 306.913 385.126 305.551C385.711 304.214 386.576 303.058 387.722 302.084C388.064 301.794 388.53 301.503 389.121 301.21C389.667 300.914 390.245 300.654 390.853 300.431C391.437 300.229 391.944 300.134 392.374 300.146C392.399 300.125 392.299 299.958 392.074 299.645C391.871 299.356 391.657 299.055 391.433 298.741C391.163 298.424 390.997 298.229 390.935 298.156L385.122 291.317C384.852 291 384.523 290.86 384.134 290.897C383.7 290.93 383.294 291.044 382.914 291.24C382.49 291.433 382.125 291.596 381.819 291.731C381.562 291.823 381.317 291.906 381.084 291.977C380.806 292.046 380.584 291.982 380.418 291.787C380.294 291.641 380.319 291.473 380.493 291.283C380.647 291.068 380.797 290.899 380.943 290.774C381.65 290.173 382.279 289.702 382.828 289.361C383.333 289.016 383.903 288.574 384.536 288.035C384.951 287.682 385.282 287.38 385.529 287.128C385.752 286.896 385.988 286.654 386.235 286.402C386.462 286.125 386.819 285.779 387.307 285.365ZM388.137 303.684C387.772 303.995 387.426 304.478 387.101 305.133C386.751 305.808 386.527 306.607 386.43 307.53C386.308 308.474 386.428 309.505 386.792 310.624C387.131 311.764 387.818 312.943 388.854 314.163C390.057 315.577 391.203 316.555 392.294 317.097C393.385 317.64 394.386 317.903 395.295 317.886C396.205 317.868 397.002 317.695 397.687 317.364C398.372 317.034 398.91 316.703 399.3 316.371C399.885 315.874 400.391 315.234 400.818 314.451C401.22 313.689 401.506 312.963 401.675 312.273C401.841 311.628 401.851 311.221 401.706 311.05C401.25 310.513 400.796 309.955 400.344 309.373C399.888 308.837 399.454 308.302 399.044 307.769C398.608 307.257 398.227 306.784 397.899 306.348C397.567 305.958 397.308 305.654 397.122 305.434C396.293 304.459 395.306 303.743 394.163 303.287C392.995 302.852 391.864 302.658 390.771 302.706C389.673 302.799 388.796 303.125 388.137 303.684Z" fill="#0A2239"/>
<path d="M376.766 311.528C376.9 311.44 377.091 311.353 377.34 311.266C377.545 311.17 377.7 311.202 377.805 311.363C377.946 311.577 377.949 311.785 377.814 311.989C377.67 312.236 377.517 312.47 377.356 312.691C377.042 313.088 376.764 313.48 376.521 313.869C376.269 314.302 376.327 314.799 376.696 315.361L383.905 326.361C384.256 326.897 384.653 327.153 385.097 327.129C385.532 327.151 385.985 327.083 386.457 326.927C386.724 326.867 386.999 326.82 387.283 326.787C387.541 326.771 387.731 326.857 387.854 327.045C387.959 327.205 387.927 327.36 387.757 327.51C387.578 327.704 387.422 327.844 387.288 327.932C386.753 328.283 386.342 328.533 386.057 328.681C385.745 328.847 385.451 328.983 385.175 329.087C384.89 329.236 384.52 329.459 384.065 329.757C383.583 330.073 383.244 330.315 383.048 330.482C382.842 330.693 382.614 330.9 382.364 331.102C382.114 331.304 381.721 331.581 381.186 331.932C381.052 332.019 380.874 332.098 380.651 332.167C380.42 332.281 380.251 332.257 380.146 332.096C380.023 331.909 380.034 331.692 380.178 331.444C380.295 331.215 380.434 330.989 380.596 330.769C380.927 330.398 381.183 330.001 381.364 329.576C381.536 329.196 381.446 328.738 381.095 328.203L375.833 320.174C375.762 320.067 375.656 320.022 375.514 320.038C375.363 320.099 375.283 320.152 375.273 320.196L372.789 333.131C372.806 333.273 372.809 333.366 372.8 333.41C372.764 333.472 372.79 333.57 372.878 333.704C373.229 334.239 373.59 334.499 373.963 334.484C374.354 334.496 374.785 334.424 375.256 334.268C375.523 334.208 375.799 334.161 376.083 334.128C376.34 334.112 376.531 334.198 376.653 334.386C376.759 334.546 376.726 334.701 376.556 334.851C376.404 335.027 376.248 335.168 376.087 335.273C375.552 335.624 375.142 335.874 374.857 336.022C374.571 336.171 374.291 336.298 374.015 336.402C373.756 336.533 373.4 336.748 372.945 337.046C372.463 337.362 372.11 337.612 371.887 337.796C371.681 338.008 371.453 338.215 371.203 338.417C370.926 338.637 370.52 338.922 369.985 339.273C369.824 339.378 369.633 339.465 369.411 339.534C369.206 339.63 369.051 339.598 368.945 339.438C368.823 339.25 368.833 339.033 368.977 338.785C369.094 338.556 369.234 338.33 369.395 338.11C369.726 337.74 369.996 337.333 370.203 336.891C370.429 336.476 370.366 336.001 370.015 335.465L362.805 324.465C362.455 323.93 362.03 323.692 361.533 323.75C361.009 323.826 360.502 323.928 360.013 324.057C359.746 324.117 359.484 324.155 359.226 324.171C358.96 324.231 358.756 324.154 358.616 323.94C358.511 323.779 358.556 323.616 358.753 323.448C358.905 323.272 359.048 323.14 359.182 323.052C359.717 322.702 360.163 322.448 360.519 322.291C360.831 322.125 361.13 321.967 361.415 321.818C361.7 321.67 362.084 321.438 362.565 321.122C363.02 320.824 363.386 320.565 363.663 320.345C363.913 320.143 364.19 319.923 364.494 319.686C364.753 319.439 365.15 319.141 365.685 318.79C365.819 318.702 366.011 318.615 366.26 318.528C366.465 318.432 366.62 318.464 366.725 318.625C366.866 318.839 366.868 319.048 366.734 319.251C366.59 319.498 366.437 319.732 366.275 319.953C365.962 320.35 365.692 320.756 365.467 321.171C365.215 321.604 365.265 322.088 365.616 322.624L371.22 331.175C371.29 331.282 371.347 331.34 371.392 331.349C371.454 331.385 371.494 331.359 371.512 331.27L374.055 317.724C374.082 317.591 374.026 317.417 373.886 317.203C373.517 316.641 373.084 316.389 372.587 316.448C372.08 316.55 371.582 316.666 371.093 316.795C370.826 316.855 370.564 316.893 370.307 316.909C370.04 316.969 369.836 316.892 369.696 316.678C369.591 316.517 369.636 316.353 369.833 316.186C369.985 316.01 370.128 315.878 370.262 315.79C370.797 315.439 371.243 315.186 371.599 315.029C371.911 314.862 372.21 314.705 372.495 314.556C372.78 314.408 373.164 314.175 373.645 313.86C374.1 313.562 374.466 313.303 374.743 313.083C374.993 312.881 375.27 312.661 375.574 312.424C375.833 312.177 376.23 311.879 376.766 311.528Z" fill="#0A2239"/>
<path d="M346.649 328.658C348.599 327.692 350.446 327.42 352.19 327.842C353.92 328.306 355.484 329.228 356.881 330.607C358.292 332.015 359.481 333.658 360.447 335.536C361.91 338.489 362.944 341.37 363.549 344.177C364.154 346.984 364.116 349.61 363.434 352.055C362.723 354.514 361.177 356.654 358.794 358.477L357.115 359.738C356.412 360.264 355.859 360.735 355.457 361.148C355.055 361.562 354.746 361.947 354.53 362.304C354.285 362.675 354.069 363.032 353.882 363.375C353.867 363.418 353.817 363.46 353.731 363.503C353.645 363.546 353.559 363.517 353.474 363.416C353.36 363.33 353.281 363.244 353.239 363.158C352.955 362.584 352.778 361.94 352.709 361.224C352.612 360.522 352.693 359.821 352.953 359.121C353.213 358.421 353.717 357.779 354.463 357.195L359.673 353.221C360.634 352.495 361.324 351.653 361.743 350.696C362.147 349.782 362.251 348.694 362.056 347.434C361.846 346.217 361.314 344.748 360.462 343.028C360.349 342.798 360.199 342.712 360.012 342.768C359.84 342.854 359.689 343.018 359.56 343.26C359.214 344.003 358.681 344.731 357.963 345.444C357.23 346.2 356.233 346.89 354.972 347.515C353.28 348.353 351.64 348.648 350.052 348.398C348.436 348.163 347 347.535 345.745 346.515C344.475 345.537 343.47 344.302 342.732 342.811C341.908 341.148 341.435 339.4 341.313 337.568C341.205 335.764 341.562 334.07 342.384 332.485C343.22 330.928 344.641 329.652 346.649 328.658ZM346.879 330.204C345.589 330.844 344.77 331.678 344.423 332.707C344.047 333.75 344.028 334.938 344.366 336.27C344.705 337.602 345.243 339.014 345.982 340.505C346.635 341.824 347.468 342.965 348.481 343.927C349.479 344.933 350.556 345.631 351.714 346.022C352.843 346.427 353.953 346.359 355.042 345.82C355.788 345.45 356.455 344.959 357.044 344.346C357.605 343.747 357.958 343.054 358.104 342.268C358.264 341.51 358.224 340.672 357.984 339.756C357.745 338.839 357.341 337.807 356.772 336.66C355.877 334.925 354.888 333.469 353.805 332.291C352.693 331.128 351.537 330.343 350.336 329.938C349.15 329.562 347.997 329.65 346.879 330.204Z" fill="#0A2239"/>
<path d="M328.645 322.6C329.216 322.393 329.797 322.352 330.388 322.478C330.967 322.575 331.377 322.954 331.617 323.616C331.813 324.157 331.868 324.682 331.78 325.191C331.651 325.68 331.345 326.012 330.864 326.186C330.533 326.306 330.201 326.376 329.867 326.394C329.504 326.424 329.202 326.483 328.961 326.57C328.78 326.635 328.646 326.735 328.559 326.869C328.43 326.983 328.338 327.153 328.283 327.377C328.149 328.039 328.018 328.852 327.891 329.817C327.735 330.793 327.616 331.874 327.536 333.06C327.425 334.258 327.366 335.504 327.36 336.8C327.368 337.104 327.448 337.466 327.601 337.887C327.688 338.128 327.785 338.348 327.891 338.548C328.008 338.777 328.13 338.972 328.256 339.13L338.284 350.454C338.69 350.92 339.145 351.282 339.648 351.543C340.132 351.844 340.621 351.973 341.116 351.929C341.389 351.932 341.668 351.95 341.952 351.984C342.207 352.028 342.372 352.155 342.448 352.365C342.514 352.546 342.447 352.689 342.247 352.796C342.028 352.943 341.843 353.044 341.693 353.099C341.091 353.317 340.65 353.46 340.368 353.528C340.056 353.607 339.769 353.66 339.507 353.687C339.225 353.755 338.828 353.882 338.317 354.067C337.775 354.264 337.375 354.426 337.115 354.554C336.866 354.713 336.596 354.861 336.307 355C336.017 355.14 335.571 355.318 334.969 355.536C334.789 355.602 334.577 355.628 334.333 355.614C334.101 355.63 333.952 355.548 333.887 355.367C333.81 355.157 333.899 354.886 334.154 354.555C334.389 354.266 334.617 354.047 334.835 353.9C335.104 353.701 335.269 353.453 335.332 353.158C335.406 352.893 335.367 352.55 335.214 352.129C335.149 351.948 335.022 351.739 334.834 351.501C334.656 351.293 334.51 351.125 334.395 350.996L327.468 343.296C327.343 343.137 327.22 343.08 327.099 343.123C327.009 343.156 326.967 343.274 326.972 343.476L326.852 352.863C326.838 353.106 326.861 353.404 326.921 353.757C326.961 354.151 327.02 354.453 327.096 354.663C327.303 355.235 327.535 355.593 327.792 355.738C328.03 355.925 328.306 356.029 328.62 356.051C328.905 356.084 329.245 356.131 329.641 356.191C330.019 356.293 330.245 356.449 330.322 356.66C330.387 356.84 330.325 356.999 330.137 357.135C329.929 357.313 329.75 357.429 329.599 357.483C329.178 357.636 328.74 357.743 328.287 357.806C327.813 357.909 327.156 358.114 326.313 358.419C325.742 358.626 325.341 358.789 325.111 358.906C324.862 359.064 324.653 359.191 324.484 359.287C324.314 359.382 324.064 359.49 323.733 359.61C323.582 359.664 323.391 359.7 323.159 359.716C322.907 359.773 322.748 359.711 322.683 359.531C322.607 359.32 322.667 359.111 322.864 358.904C323.031 358.707 323.218 358.52 323.426 358.342C323.834 358.058 324.185 357.523 324.478 356.736C324.782 355.979 324.954 355.185 324.993 354.354L325.829 337.508C325.827 337.407 325.85 336.956 325.9 336.155C325.92 335.365 325.955 334.382 326.006 333.206C326.056 332.031 326.124 330.764 326.21 329.405C326.266 328.057 326.324 326.76 326.382 325.513C326.435 324.814 326.663 324.22 327.065 323.734C327.456 323.218 327.983 322.84 328.645 322.6Z" fill="#0A2239"/>
<path d="M295.572 345.886C296.194 345.736 296.792 345.692 297.366 345.751C297.94 345.811 298.524 345.983 299.119 346.268C299.683 346.561 300.308 346.97 300.994 347.496C301.648 348.03 302.383 348.693 303.199 349.484C304.106 350.385 304.867 351.157 305.482 351.799C306.097 352.441 306.718 352.901 307.344 353.179C307.946 353.495 308.714 353.541 309.648 353.316C309.959 353.242 310.081 353.064 310.014 352.784L308.512 346.53C308.355 345.877 308.021 345.513 307.509 345.438C306.998 345.363 306.49 345.304 305.986 345.261C305.714 345.227 305.455 345.174 305.207 345.102C304.936 345.069 304.77 344.927 304.71 344.679C304.658 344.461 304.784 344.299 305.087 344.193C305.36 344.095 305.559 344.031 305.683 344.001C306.274 343.859 306.748 343.778 307.106 343.758C307.455 343.707 307.79 343.659 308.108 343.616C308.396 343.58 308.819 343.494 309.38 343.36C309.908 343.233 310.325 343.116 310.628 343.011C310.932 342.905 311.251 342.795 311.586 342.682C311.882 342.545 312.342 342.402 312.964 342.252C313.088 342.222 313.31 342.186 313.629 342.142C313.916 342.106 314.086 342.197 314.138 342.414C314.198 342.663 314.13 342.861 313.935 343.006C313.716 343.191 313.493 343.359 313.267 343.512C312.837 343.78 312.42 344.028 312.014 344.258C311.616 344.518 311.495 344.974 311.652 345.628L314.689 358.276C314.854 358.961 315.148 359.433 315.573 359.693C315.997 359.953 316.458 360.09 316.954 360.102C317.226 360.135 317.501 360.185 317.78 360.249C318.027 360.321 318.177 360.466 318.23 360.684C318.289 360.933 318.179 361.091 317.899 361.158C317.595 361.264 317.381 361.332 317.257 361.362C316.635 361.512 316.195 361.601 315.939 361.629C315.651 361.665 315.376 361.682 315.112 361.68C314.855 361.708 314.463 361.786 313.934 361.913C313.374 362.048 312.973 362.16 312.731 362.251C312.498 362.373 312.244 362.484 311.972 362.582C311.668 362.688 311.221 362.812 310.629 362.954C310.505 362.984 310.299 363.017 310.011 363.053C309.7 363.127 309.515 363.04 309.455 362.791C309.403 362.574 309.486 362.373 309.705 362.188C309.893 362.012 310.1 361.847 310.327 361.693C310.764 361.457 311.108 361.111 311.361 360.655C311.621 360.231 311.665 359.661 311.493 358.945L310.451 354.605C310.413 354.449 310.341 354.351 310.232 354.311C310.1 354.31 309.972 354.325 309.848 354.354C308.261 354.736 307.16 355.428 306.545 356.431C305.9 357.442 305.42 358.528 305.106 359.689C304.906 360.362 304.737 361.028 304.599 361.687C304.43 362.353 304.23 362.96 304 363.509C303.746 364.097 303.404 364.59 302.973 364.99C302.511 365.397 301.923 365.686 301.207 365.858C300.398 366.052 299.77 365.973 299.323 365.619C298.853 365.305 298.561 364.914 298.449 364.447C298.33 363.949 298.353 363.499 298.52 363.097C298.687 362.695 298.988 362.442 299.424 362.337C299.735 362.263 300.154 362.294 300.68 362.43C301.176 362.575 301.579 362.61 301.89 362.535C302.294 362.438 302.579 362.254 302.745 361.984C302.879 361.721 303.034 361.404 303.208 361.034C303.335 360.74 303.483 360.26 303.652 359.594C303.79 358.936 303.975 358.266 304.206 357.585C304.438 356.904 304.734 356.356 305.095 355.94C305.197 355.817 305.225 355.728 305.179 355.673C305.14 355.65 305.078 355.599 304.994 355.52C304.055 354.627 303.209 353.777 302.456 352.97C301.711 352.195 300.995 351.478 300.311 350.82C299.51 350.09 298.705 349.478 297.895 348.981C297.092 348.516 296.182 348.224 295.167 348.106C294.732 348.078 294.384 347.998 294.121 347.863C293.866 347.76 293.709 347.584 293.649 347.335C293.604 347.148 293.758 346.897 294.11 346.582C294.431 346.275 294.918 346.043 295.572 345.886Z" fill="#0A2239"/>
<path d="M290.351 347.199C290.541 347.175 290.781 347.161 291.071 347.157C291.329 347.156 291.472 347.267 291.5 347.49C291.532 347.744 291.443 347.932 291.233 348.056C290.995 348.215 290.755 348.358 290.513 348.485C290.057 348.704 289.615 348.905 289.186 349.088C288.762 349.303 288.592 349.744 288.676 350.411L290.305 363.316C290.398 364.046 290.638 364.548 291.028 364.821C291.421 365.127 291.864 365.313 292.356 365.379C292.622 365.443 292.89 365.522 293.16 365.617C293.398 365.715 293.532 365.876 293.56 366.098C293.592 366.352 293.465 366.497 293.179 366.533C292.866 366.605 292.645 366.649 292.518 366.665C291.883 366.745 291.421 366.788 291.131 366.792C290.846 366.828 290.574 366.846 290.316 366.847C290.058 366.847 289.691 366.877 289.214 366.937C288.77 366.993 288.375 367.059 288.03 367.135C287.685 367.211 287.292 367.293 286.851 367.381C286.411 367.469 285.873 367.553 285.238 367.633C282.825 367.938 280.827 367.819 279.242 367.277C277.662 366.767 276.772 365.718 276.571 364.131C276.411 362.861 276.632 361.801 277.234 360.951C277.84 360.133 278.635 359.532 279.619 359.15C279.742 359.102 279.818 359.06 279.845 359.025C279.873 358.989 279.788 358.951 279.589 358.912C278.974 358.893 278.295 358.753 277.553 358.492C276.81 358.231 276.161 357.813 275.604 357.238C275.02 356.699 274.67 355.969 274.554 355.048C274.365 353.556 274.614 352.331 275.299 351.374C275.989 350.448 276.994 349.725 278.315 349.203C279.608 348.717 281.112 348.366 282.826 348.149C283.144 348.109 283.69 348.089 284.464 348.088C285.238 348.087 285.99 348.04 286.72 347.948C287.418 347.86 288.16 347.734 288.946 347.57C289.704 347.442 290.256 347.34 290.601 347.265C290.942 347.157 290.859 347.135 290.351 347.199ZM282.549 349.781C280.961 349.982 279.779 350.453 279.002 351.197C278.197 351.976 277.877 353.016 278.041 354.318C278.246 355.937 278.922 356.948 280.07 357.351C281.217 357.755 282.632 357.85 284.315 357.638C284.823 357.574 285.257 357.438 285.618 357.231C285.947 357.028 286.082 356.689 286.022 356.213L285.469 351.832C285.368 351.038 285.086 350.461 284.621 350.1C284.128 349.775 283.438 349.669 282.549 349.781ZM284.971 359.006C282.971 359.259 281.587 359.788 280.818 360.595C280.021 361.438 279.683 362.335 279.803 363.288C279.919 364.208 280.351 364.944 281.098 365.495C281.817 366.081 283.129 366.254 285.034 366.014C285.923 365.901 286.492 365.684 286.742 365.363C286.995 365.073 287.09 364.674 287.026 364.166L286.503 360.022C286.427 359.419 286.208 359.092 285.847 359.041C285.454 358.994 285.162 358.982 284.971 359.006Z" fill="#0A2239"/>
<path d="M260.994 349.068C262.754 349.027 264.299 349.422 265.631 350.255C266.964 351.088 268.016 352.279 268.789 353.829C269.563 355.411 269.974 357.242 270.023 359.321C270.067 361.177 269.691 362.866 268.895 364.39C268.068 365.946 266.961 367.204 265.576 368.165C264.19 369.126 262.665 369.627 261.002 369.666C259.722 369.696 258.581 369.467 257.577 368.979C256.573 368.491 255.788 367.789 255.222 366.874C254.625 365.992 254.313 364.959 254.284 363.776C254.261 362.784 254.729 362.277 255.689 362.254L265.814 362.014C266.262 362.003 266.579 361.868 266.765 361.607C266.919 361.38 266.988 360.914 266.972 360.21C266.935 358.674 266.566 357.275 265.864 356.011C265.162 354.779 264.243 353.793 263.105 353.052C261.968 352.342 260.727 352.004 259.384 352.035C258.424 352.058 257.565 352.255 256.805 352.625C256.014 353.028 255.323 353.588 254.732 354.306C254.608 354.469 254.514 354.567 254.451 354.601C254.389 354.666 254.31 354.7 254.214 354.703C253.958 354.709 253.826 354.552 253.818 354.232C253.804 353.624 254.076 352.945 254.634 352.196C255.1 351.577 255.663 351.035 256.324 350.571C256.986 350.108 257.713 349.754 258.508 349.511C259.302 349.237 260.13 349.089 260.994 349.068ZM265.753 363.504L261.387 363.607C260.619 363.625 259.963 363.657 259.42 363.702C258.877 363.747 258.351 363.823 257.841 363.931C257.682 363.967 257.588 364.065 257.56 364.226C257.501 364.42 257.475 364.676 257.482 364.996C257.504 365.924 257.939 366.698 258.786 367.318C259.601 367.971 260.569 368.284 261.689 368.257C262.425 368.24 263.155 367.999 263.88 367.533C264.606 367.1 265.201 366.558 265.666 365.907C266.131 365.255 266.356 364.61 266.34 363.97C266.333 363.65 266.137 363.495 265.753 363.504Z" fill="#0A2239"/>
<path d="M249.315 349.662C249.506 349.679 249.744 349.716 250.028 349.774C250.28 349.828 250.396 349.967 250.377 350.19C250.354 350.445 250.227 350.611 249.995 350.686C249.729 350.791 249.464 350.88 249.201 350.953C248.708 351.07 248.247 351.206 247.815 351.36C247.349 351.544 247.087 351.971 247.027 352.64L245.866 365.741C245.809 366.378 245.962 366.825 246.325 367.082C246.653 367.368 247.051 367.596 247.517 367.766C247.764 367.885 248.009 368.019 248.253 368.169C248.464 368.316 248.56 368.501 248.541 368.724C248.521 368.948 248.382 369.064 248.124 369.073C247.835 369.079 247.594 369.074 247.403 369.057C246.765 369.001 246.305 368.944 246.021 368.886C245.705 368.826 245.406 368.752 245.125 368.663C244.841 368.605 244.428 368.553 243.886 368.504C243.312 368.454 242.896 368.433 242.639 368.442C242.378 368.483 242.103 368.507 241.813 368.513C241.491 368.517 241.028 368.492 240.422 368.438C240.231 368.421 240.009 368.386 239.757 368.331C239.473 368.274 239.341 368.134 239.361 367.911C239.38 367.687 239.524 367.523 239.79 367.419C240.024 367.311 240.273 367.22 240.537 367.147C241.026 367.062 241.473 366.909 241.879 366.688C242.249 366.496 242.462 366.081 242.519 365.444L242.964 360.423C242.975 360.296 242.919 360.211 242.794 360.167C242.669 360.124 242.575 360.1 242.511 360.094L233.618 359.306C233.554 359.3 233.504 359.328 233.466 359.389C233.397 359.447 233.356 359.54 233.345 359.667L232.909 364.592C232.852 365.229 232.973 365.674 233.272 365.925C233.568 366.208 233.95 366.435 234.417 366.605C234.663 366.723 234.908 366.857 235.152 367.007C235.364 367.155 235.46 367.34 235.44 367.563C235.42 367.786 235.282 367.902 235.024 367.912C234.766 367.921 234.525 367.916 234.302 367.896C233.665 367.839 233.204 367.782 232.92 367.725C232.636 367.668 232.369 367.596 232.12 367.51C231.836 367.452 231.423 367.4 230.881 367.352C230.307 367.301 229.891 367.28 229.634 367.289C229.341 367.327 229.034 367.348 228.712 367.352C228.391 367.356 227.927 367.331 227.322 367.277C227.099 367.257 226.861 367.22 226.609 367.166C226.357 367.111 226.24 366.972 226.26 366.749C226.28 366.526 226.423 366.362 226.689 366.257C226.924 366.149 227.173 366.059 227.436 365.986C227.926 365.901 228.389 365.749 228.826 365.531C229.26 365.345 229.505 364.933 229.562 364.295L230.723 351.194C230.78 350.557 230.595 350.107 230.168 349.844C229.71 349.579 229.249 349.345 228.785 349.143C228.538 349.025 228.309 348.892 228.097 348.745C227.851 348.627 227.739 348.44 227.761 348.185C227.781 347.962 227.936 347.847 228.226 347.841C228.483 347.832 228.708 347.835 228.899 347.852C229.505 347.906 229.98 347.98 230.325 348.075C230.673 348.138 231.005 348.2 231.321 348.26C231.605 348.317 232.034 348.371 232.607 348.422C233.149 348.47 233.581 348.492 233.903 348.489C234.224 348.485 234.562 348.483 234.915 348.482C235.239 348.447 235.72 348.457 236.358 348.514C236.549 348.531 236.787 348.568 237.071 348.625C237.323 348.679 237.439 348.818 237.419 349.041C237.397 349.296 237.27 349.462 237.038 349.538C236.772 349.643 236.507 349.732 236.243 349.805C235.751 349.922 235.288 350.073 234.854 350.26C234.388 350.443 234.127 350.854 234.07 351.491L233.54 357.468C233.529 357.595 233.539 357.66 233.571 357.663C233.6 357.698 233.646 357.718 233.71 357.724L242.986 358.546C243.05 358.552 243.1 358.524 243.138 358.463C243.141 358.431 243.148 358.352 243.159 358.224L243.68 352.343C243.74 351.674 243.556 351.208 243.13 350.945C242.668 350.711 242.206 350.494 241.742 350.292C241.495 350.174 241.266 350.041 241.054 349.894C240.808 349.775 240.696 349.589 240.719 349.334C240.738 349.111 240.893 348.996 241.183 348.99C241.441 348.98 241.665 348.984 241.856 349.001C242.462 349.055 242.937 349.129 243.282 349.224C243.63 349.287 243.962 349.348 244.278 349.408C244.562 349.466 244.991 349.52 245.565 349.571C246.106 349.619 246.538 349.641 246.86 349.637C247.181 349.634 247.519 349.632 247.872 349.631C248.197 349.595 248.678 349.606 249.315 349.662Z" fill="#0A2239"/>
<path d="M223.876 346.931C224.063 346.972 224.294 347.039 224.569 347.131C224.812 347.217 224.91 347.369 224.862 347.588C224.808 347.838 224.661 347.986 224.421 348.032C224.144 348.103 223.87 348.158 223.6 348.197C223.096 348.251 222.621 348.328 222.174 348.426C221.688 348.55 221.374 348.94 221.231 349.596L218.427 362.446C218.291 363.071 218.386 363.534 218.714 363.835C219.003 364.16 219.369 364.436 219.81 364.664C220.04 364.812 220.266 364.976 220.489 365.156C220.681 365.329 220.753 365.524 220.705 365.743C220.657 365.962 220.505 366.06 220.248 366.037C219.96 366.006 219.722 365.971 219.534 365.93C218.909 365.794 218.459 365.679 218.184 365.586C217.879 365.487 217.592 365.375 217.324 365.251C217.049 365.159 216.646 365.054 216.115 364.938C215.552 364.816 215.142 364.743 214.885 364.719C214.622 364.727 214.346 364.716 214.057 364.686C213.738 364.649 213.281 364.566 212.687 364.436C212.5 364.395 212.284 364.332 212.041 364.246C211.766 364.153 211.653 363.998 211.701 363.779C211.748 363.56 211.911 363.415 212.188 363.345C212.435 363.267 212.693 363.209 212.963 363.17C213.46 363.147 213.923 363.052 214.352 362.883C214.744 362.74 215.008 362.355 215.145 361.73L216.219 356.806C216.246 356.681 216.201 356.589 216.082 356.53C215.964 356.472 215.874 356.436 215.811 356.422L207.088 354.519C207.026 354.505 206.972 354.526 206.927 354.582C206.851 354.631 206.799 354.718 206.772 354.843L205.718 359.673C205.582 360.299 205.646 360.755 205.911 361.042C206.169 361.36 206.519 361.633 206.961 361.86C207.19 362.009 207.417 362.173 207.639 362.352C207.831 362.525 207.903 362.721 207.855 362.94C207.807 363.159 207.655 363.256 207.398 363.233C207.141 363.21 206.903 363.174 206.684 363.127C206.059 362.99 205.609 362.876 205.335 362.783C205.06 362.69 204.805 362.585 204.568 362.468C204.294 362.376 203.89 362.271 203.359 362.155C202.796 362.033 202.386 361.96 202.129 361.936C201.834 361.937 201.527 361.92 201.208 361.883C200.888 361.846 200.432 361.762 199.837 361.633C199.619 361.585 199.388 361.518 199.144 361.432C198.901 361.347 198.803 361.194 198.851 360.975C198.899 360.757 199.061 360.612 199.339 360.541C199.585 360.464 199.843 360.406 200.114 360.367C200.61 360.344 201.089 360.252 201.55 360.09C202.004 359.96 202.299 359.582 202.436 358.957L205.239 346.107C205.375 345.482 205.249 345.012 204.859 344.698C204.437 344.377 204.009 344.087 203.575 343.828C203.345 343.68 203.134 343.519 202.943 343.346C202.713 343.198 202.626 342.999 202.68 342.749C202.728 342.53 202.896 342.435 203.184 342.466C203.441 342.489 203.663 342.521 203.851 342.562C204.445 342.692 204.907 342.825 205.237 342.963C205.574 343.069 205.896 343.172 206.202 343.271C206.476 343.364 206.895 343.472 207.458 343.594C207.989 343.71 208.415 343.787 208.734 343.824C209.054 343.861 209.389 343.901 209.739 343.945C210.066 343.951 210.541 344.022 211.167 344.158C211.354 344.199 211.585 344.266 211.86 344.358C212.103 344.444 212.201 344.597 212.153 344.815C212.099 345.066 211.952 345.214 211.712 345.26C211.435 345.33 211.161 345.385 210.89 345.424C210.387 345.478 209.909 345.57 209.455 345.701C208.969 345.824 208.658 346.198 208.522 346.824L207.243 352.686C207.216 352.811 207.218 352.877 207.249 352.883C207.273 352.922 207.317 352.947 207.379 352.961L216.477 354.946C216.54 354.96 216.593 354.939 216.638 354.883C216.645 354.852 216.662 354.773 216.69 354.648L217.948 348.88C218.091 348.224 217.968 347.738 217.578 347.424C217.15 347.134 216.718 346.86 216.284 346.601C216.054 346.453 215.843 346.292 215.652 346.119C215.422 345.971 215.335 345.772 215.389 345.521C215.437 345.303 215.605 345.208 215.893 345.238C216.15 345.262 216.372 345.294 216.56 345.335C217.154 345.464 217.616 345.598 217.946 345.735C218.283 345.842 218.605 345.945 218.911 346.044C219.185 346.137 219.604 346.244 220.167 346.367C220.698 346.483 221.124 346.56 221.443 346.597C221.763 346.634 222.098 346.674 222.448 346.718C222.775 346.723 223.25 346.794 223.876 346.931Z" fill="#0A2239"/>
<path d="M198.993 341.104C199.144 341.159 199.358 341.271 199.637 341.441C199.897 341.569 199.994 341.724 199.928 341.904C199.84 342.145 199.675 342.272 199.431 342.285C199.147 342.318 198.868 342.336 198.595 342.338C198.089 342.324 197.608 342.336 197.151 342.374C196.654 342.431 196.29 342.776 196.06 343.407L191.558 355.765C191.339 356.366 191.327 356.821 191.52 357.13C191.703 357.469 191.999 357.781 192.406 358.066C192.613 358.244 192.816 358.436 193.012 358.644C193.179 358.841 193.224 359.045 193.147 359.255C193.082 359.436 192.923 359.497 192.671 359.44C192.409 359.412 192.188 359.366 192.007 359.3C191.406 359.081 190.99 358.912 190.761 358.795C190.501 358.666 190.262 358.528 190.043 358.38C189.814 358.262 189.443 358.111 188.932 357.924C188.391 357.727 187.995 357.6 187.743 357.542C187.481 357.515 187.209 357.467 186.927 357.398C186.646 357.33 186.219 357.191 185.648 356.983C185.498 356.929 185.298 356.822 185.049 356.663C184.76 356.524 184.648 356.364 184.713 356.183C184.79 355.973 184.971 355.851 185.255 355.818C185.509 355.775 185.773 355.752 186.047 355.749C186.541 355.793 187.013 355.761 187.461 355.652C187.869 355.562 188.182 355.216 188.401 354.615L190.06 350.059C190.104 349.939 190.092 349.833 190.024 349.74C189.914 349.666 189.809 349.627 189.708 349.625C189.383 349.676 188.884 349.597 188.211 349.386C187.528 349.205 186.976 349.038 186.555 348.885C186.044 348.698 185.475 348.389 184.849 347.957C184.213 347.555 183.64 347.022 183.132 346.361C182.583 345.718 182.209 344.968 182.01 344.113C181.811 343.257 181.897 342.318 182.27 341.295C182.752 339.972 183.507 339.021 184.535 338.442C185.522 337.883 186.668 337.636 187.972 337.702C189.276 337.769 190.62 338.054 192.003 338.557C192.574 338.766 193.014 338.96 193.323 339.141C193.643 339.291 193.947 339.436 194.237 339.576C194.497 339.704 194.897 339.867 195.438 340.064C195.949 340.251 196.361 340.383 196.673 340.463C196.984 340.542 197.311 340.627 197.652 340.718C197.975 340.767 198.422 340.896 198.993 341.104ZM191.092 339.656C190.069 339.284 189.032 339.28 187.979 339.646C186.915 340.042 186.142 340.901 185.661 342.224C185.113 343.728 185.074 344.956 185.544 345.911C185.983 346.854 186.925 347.589 188.368 348.115C189.18 348.41 189.789 348.513 190.197 348.423C190.462 348.35 190.659 348.183 190.788 347.923C190.905 347.694 190.986 347.519 191.03 347.398L192.738 342.708C193.001 341.986 192.928 341.347 192.518 340.789C192.108 340.231 191.633 339.853 191.092 339.656ZM182.892 335.239C183.043 335.293 183.227 335.395 183.446 335.542C183.645 335.649 183.712 335.793 183.646 335.973C183.559 336.214 183.393 336.341 183.15 336.354C182.866 336.387 182.587 336.405 182.313 336.407C181.808 336.393 181.311 336.4 180.825 336.427C180.327 336.484 179.963 336.828 179.733 337.46L175.33 349.547C175.089 350.208 175.044 350.753 175.194 351.183C175.344 351.612 175.688 351.976 176.227 352.274C176.475 352.433 176.683 352.611 176.85 352.808C177.006 353.035 177.045 353.253 176.968 353.464C176.903 353.644 176.759 353.711 176.538 353.665C176.275 353.637 176.069 353.596 175.919 353.541C175.317 353.322 174.887 353.148 174.627 353.02C174.337 352.88 174.083 352.736 173.864 352.589C173.605 352.46 173.219 352.303 172.708 352.116C172.167 351.919 171.741 351.781 171.429 351.701C171.106 351.652 170.774 351.582 170.433 351.492C170.091 351.401 169.619 351.247 169.018 351.028C168.838 350.962 168.653 350.861 168.465 350.724C168.265 350.617 168.198 350.473 168.264 350.293C168.341 350.083 168.512 349.941 168.777 349.867C169.031 349.823 169.304 349.821 169.597 349.859C170.242 349.958 170.781 349.882 171.213 349.63C171.634 349.409 171.954 348.998 172.173 348.397L176.576 336.31C176.806 335.678 176.749 335.181 176.405 334.817C176.05 334.483 175.674 334.159 175.278 333.844C175.07 333.666 174.883 333.479 174.716 333.282C174.508 333.104 174.448 332.895 174.536 332.654C174.602 332.474 174.76 332.413 175.012 332.47C175.244 332.487 175.436 332.522 175.586 332.577C176.187 332.796 176.657 333.002 176.996 333.193C177.316 333.344 177.621 333.489 177.911 333.628C178.2 333.768 178.616 333.936 179.157 334.133C179.668 334.32 180.095 334.458 180.436 334.548C180.748 334.628 181.09 334.718 181.461 334.82C181.814 334.88 182.291 335.02 182.892 335.239Z" fill="#0A2239"/>
<path d="M165.1 326.342C166.669 327.138 167.843 328.219 168.622 329.583C169.401 330.947 169.764 332.495 169.711 334.226C169.643 335.986 169.139 337.793 168.197 339.648C167.358 341.303 166.226 342.613 164.804 343.578C163.338 344.556 161.768 345.141 160.092 345.331C158.417 345.522 156.837 345.24 155.353 344.487C154.212 343.908 153.314 343.166 152.661 342.26C152.009 341.355 151.65 340.365 151.584 339.292C151.476 338.232 151.69 337.174 152.226 336.118C152.675 335.234 153.327 335.009 154.183 335.443L163.215 340.026C163.614 340.229 163.958 340.26 164.245 340.118C164.489 339.991 164.77 339.613 165.089 338.986C165.784 337.616 166.121 336.208 166.101 334.763C166.067 333.346 165.724 332.041 165.073 330.85C164.407 329.686 163.475 328.801 162.277 328.193C161.42 327.758 160.57 327.524 159.726 327.49C158.839 327.471 157.965 327.637 157.104 327.99C156.918 328.075 156.789 328.117 156.717 328.117C156.631 328.145 156.545 328.137 156.46 328.094C156.231 327.978 156.19 327.777 156.334 327.492C156.61 326.95 157.17 326.481 158.017 326.085C158.72 325.76 159.473 325.55 160.275 325.454C161.077 325.359 161.885 325.392 162.7 325.555C163.529 325.688 164.329 325.951 165.1 326.342ZM162.456 341.31L158.561 339.333C157.876 338.986 157.284 338.703 156.784 338.485C156.285 338.268 155.785 338.086 155.285 337.94C155.128 337.896 154.998 337.938 154.898 338.066C154.754 338.208 154.609 338.422 154.464 338.708C154.044 339.535 154.061 340.423 154.513 341.37C154.922 342.331 155.626 343.065 156.625 343.572C157.281 343.905 158.039 344.038 158.898 343.972C159.743 343.934 160.524 343.738 161.241 343.385C161.959 343.031 162.463 342.569 162.752 341.998C162.897 341.713 162.798 341.484 162.456 341.31Z" fill="#0A2239"/>
<path d="M144.082 314.648C144.235 314.762 144.418 314.919 144.63 315.117C144.816 315.295 144.842 315.474 144.708 315.654C144.555 315.859 144.36 315.933 144.123 315.876C143.841 315.826 143.569 315.763 143.307 315.686C142.826 315.528 142.4 315.43 142.029 315.392C141.613 315.361 141.214 315.602 140.831 316.115L133.513 325.927C132.958 326.671 132.71 327.244 132.769 327.647C132.802 328.031 133.091 328.527 133.637 329.133C133.72 329.235 133.804 329.417 133.888 329.68C133.927 329.948 133.88 330.172 133.746 330.352C133.631 330.506 133.42 330.548 133.113 330.478C132.76 330.415 132.546 330.355 132.469 330.298C131.981 329.934 131.642 329.641 131.449 329.417C131.237 329.219 130.913 328.958 130.477 328.633L118.973 320.052C118.537 319.727 118.168 319.472 117.867 319.287C117.546 319.128 117.142 318.867 116.655 318.503C116.578 318.446 116.472 318.267 116.337 317.966C116.157 317.672 116.124 317.449 116.239 317.295C116.373 317.115 116.574 317.006 116.843 316.967C117.092 316.953 117.291 316.981 117.438 317.051C118.175 317.401 118.78 317.553 119.254 317.507C119.683 317.468 120.174 317.076 120.729 316.332L128.018 306.559C128.401 306.046 128.531 305.604 128.408 305.233C128.241 304.869 128.013 304.479 127.724 304.064C127.576 303.834 127.45 303.601 127.347 303.364C127.2 303.134 127.202 302.917 127.355 302.711C127.489 302.532 127.668 302.506 127.893 302.633C128.117 302.761 128.319 302.891 128.498 303.025C128.986 303.389 129.339 303.692 129.557 303.934C129.769 304.132 129.98 304.33 130.192 304.528C130.378 304.706 130.702 304.968 131.164 305.312C131.6 305.638 131.943 305.874 132.193 306.02C132.443 306.167 132.706 306.323 132.981 306.488C133.25 306.609 133.642 306.861 134.155 307.244C134.308 307.358 134.491 307.515 134.703 307.713C134.889 307.891 134.915 308.07 134.781 308.25C134.628 308.455 134.433 308.529 134.196 308.472C133.915 308.422 133.642 308.359 133.38 308.282C132.899 308.124 132.435 307.997 131.987 307.902C131.519 307.833 131.094 308.055 130.712 308.568L123.021 318.88C122.868 319.085 122.673 319.399 122.438 319.822C122.202 320.245 122.238 320.571 122.546 320.801L128.702 325.393C129.036 325.641 129.371 325.592 129.71 325.246C130.048 324.899 130.294 324.624 130.447 324.418L138.138 314.107C138.52 313.594 138.612 313.123 138.412 312.695C138.194 312.292 137.94 311.883 137.651 311.468C137.503 311.238 137.377 311.005 137.274 310.768C137.127 310.538 137.129 310.32 137.282 310.115C137.416 309.936 137.595 309.91 137.82 310.037C138.044 310.164 138.246 310.295 138.425 310.429C138.913 310.793 139.266 311.096 139.484 311.338C139.696 311.536 139.907 311.734 140.119 311.932C140.305 312.11 140.629 312.372 141.091 312.716C141.527 313.042 141.87 313.277 142.12 313.424C142.37 313.571 142.633 313.727 142.908 313.892C143.177 314.013 143.569 314.265 144.082 314.648Z" fill="#0A2239"/>
<path d="M134.112 289.927C134.228 290.038 134.356 290.205 134.497 290.428C134.66 290.628 134.675 290.798 134.542 290.936C134.365 291.121 134.152 291.183 133.901 291.12C133.65 291.013 133.399 290.905 133.147 290.798C132.69 290.582 132.222 290.4 131.743 290.252C131.287 290.081 130.837 290.227 130.395 290.689L113.574 308.276C113.397 308.461 113.189 308.794 112.951 309.275C112.69 309.733 112.509 310.246 112.408 310.814C112.308 311.382 112.421 311.889 112.748 312.335C112.818 312.446 112.832 312.57 112.79 312.707C112.748 312.844 112.682 312.958 112.594 313.051C112.483 313.167 112.372 313.237 112.259 313.262C112.146 313.287 112.044 313.278 111.953 313.235C110.875 312.603 109.913 312.103 109.068 311.737C108.2 311.395 107.378 311.073 106.602 310.774C106.579 310.752 106.567 310.741 106.567 310.741C106.545 310.764 106.523 310.764 106.499 310.742C106.453 310.698 106.44 310.619 106.46 310.505C106.48 310.392 106.524 310.3 106.59 310.231C106.789 310.023 107.144 309.721 107.656 309.325C108.123 308.929 108.489 308.593 108.754 308.316C108.931 308.131 109.019 308.015 109.018 307.97C108.565 307.98 107.873 307.871 106.94 307.643C105.961 307.416 104.946 307.065 103.895 306.59C102.821 306.139 101.926 305.571 101.209 304.885C100.006 303.735 99.2983 302.438 99.0851 300.994C98.8267 299.551 98.9644 298.111 99.4982 296.673C99.9867 295.236 100.751 293.975 101.79 292.888C102.786 291.847 103.955 291.018 105.3 290.399C106.622 289.804 108.017 289.456 109.486 289.355C110.955 289.255 112.396 289.415 113.808 289.836C115.199 290.281 116.438 291.023 117.525 292.062C117.848 292.372 118.186 292.806 118.538 293.364C118.889 293.876 119.207 294.424 119.491 295.006C119.753 295.566 119.9 296.061 119.932 296.49C119.955 296.512 120.111 296.395 120.399 296.14C120.666 295.908 120.943 295.664 121.232 295.409C121.519 295.108 121.696 294.923 121.763 294.854L127.967 288.367C128.254 288.066 128.36 287.724 128.283 287.341C128.206 286.913 128.05 286.52 127.816 286.163C127.58 285.761 127.38 285.415 127.215 285.124C127.097 284.878 126.99 284.643 126.894 284.419C126.798 284.149 126.838 283.922 127.015 283.737C127.148 283.598 127.317 283.606 127.525 283.76C127.754 283.89 127.938 284.022 128.077 284.155C128.747 284.796 129.281 285.373 129.677 285.884C130.072 286.351 130.57 286.872 131.171 287.447C131.565 287.823 131.899 288.121 132.176 288.341C132.429 288.539 132.694 288.748 132.971 288.968C133.269 289.165 133.65 289.485 134.112 289.927ZM115.976 292.64C115.629 292.308 115.113 292.014 114.428 291.758C113.721 291.479 112.903 291.339 111.975 291.337C111.024 291.313 110.01 291.539 108.934 292.016C107.835 292.47 106.733 293.276 105.627 294.432C104.344 295.773 103.489 297.014 103.062 298.156C102.635 299.297 102.476 300.319 102.587 301.222C102.698 302.124 102.953 302.9 103.352 303.547C103.751 304.195 104.135 304.695 104.505 305.049C105.061 305.58 105.749 306.017 106.572 306.361C107.371 306.683 108.123 306.892 108.826 306.99C109.485 307.088 109.892 307.057 110.046 306.895C110.533 306.386 111.042 305.877 111.574 305.367C112.061 304.858 112.548 304.372 113.035 303.909C113.5 303.423 113.932 302.995 114.331 302.624C114.685 302.254 114.961 301.965 115.16 301.756C116.045 300.831 116.655 299.777 116.991 298.592C117.304 297.386 117.38 296.241 117.22 295.158C117.015 294.077 116.6 293.237 115.976 292.64Z" fill="#0A2239"/>
<path d="M101.654 274.732C102.791 276.118 103.495 277.631 103.766 279.271C104.037 280.912 103.89 282.524 103.325 284.105C102.715 285.682 101.693 287.059 100.258 288.237C99.2195 289.09 98.0431 289.725 96.7289 290.141C95.3944 290.533 94.0145 290.693 92.5891 290.621C91.1638 290.549 89.8101 290.211 88.528 289.608C87.2211 289.024 86.1007 288.164 85.1667 287.026C83.989 285.592 83.2794 284.021 83.0379 282.315C82.7761 280.584 82.9399 278.918 83.5294 277.316C84.0739 275.71 85.0139 274.358 86.3495 273.262C87.784 272.084 89.4082 271.289 91.2223 270.876C93.016 270.439 94.8286 270.503 96.66 271.07C98.4667 271.657 100.131 272.878 101.654 274.732ZM99.9017 274.867C99.2114 274.026 98.4313 273.404 97.5616 273C96.6918 272.596 95.746 272.503 94.7242 272.721C93.9117 272.891 93.0567 273.262 92.1593 273.833C91.2619 274.404 90.4546 274.984 89.7373 275.573C88.5501 276.548 87.5952 277.704 86.8724 279.043C86.1046 280.377 85.6993 281.724 85.6566 283.084C85.5688 284.44 85.9614 285.649 86.8345 286.713C87.3827 287.38 87.9915 287.895 88.6608 288.256C89.2851 288.613 90.0644 288.781 90.9987 288.759C92.0231 288.746 93.0414 288.448 94.0537 287.866C95.0659 287.283 96.0172 286.626 96.9076 285.896C98.1195 284.901 99.0992 283.724 99.8467 282.365C100.569 281.026 100.962 279.689 101.025 278.354C101.088 277.019 100.714 275.856 99.9017 274.867Z" fill="#0A2239"/>
<path d="M88.2417 256.128C89.115 257.469 89.5744 258.907 89.6202 260.443C89.6216 261.97 89.242 263.439 88.4813 264.851C87.6764 266.254 86.5366 267.436 85.0618 268.396C83.3189 269.531 81.4924 270.186 79.5823 270.361C77.6547 270.509 75.8561 270.21 74.1865 269.465C72.4902 268.737 71.1355 267.595 70.1226 266.04C68.9873 264.297 68.4611 262.463 68.5438 260.538C68.5755 260.059 68.7255 259.732 68.9936 259.557C69.2081 259.418 69.5106 259.354 69.901 259.367C70.2913 259.38 70.6677 259.46 71.0301 259.606C71.3656 259.769 71.6119 259.971 71.7691 260.213C71.8565 260.347 71.9036 260.507 71.9104 260.694C71.8905 260.897 71.8793 261.115 71.8768 261.346C71.8052 262.232 71.8041 263.169 71.8735 264.155C71.9428 265.141 72.1347 265.875 72.449 266.358C73.3048 267.671 74.6201 268.342 76.395 268.37C78.1255 268.389 79.9829 267.752 81.9671 266.459C83.2274 265.638 84.1923 264.628 84.862 263.428C85.5141 262.201 85.8382 260.94 85.8343 259.644C85.813 258.321 85.4355 257.097 84.702 255.971C84.1955 255.193 83.6382 254.601 83.0301 254.195C82.3952 253.807 81.5464 253.501 80.4837 253.276C80.3952 253.258 80.3113 253.217 80.2321 253.154C80.1261 253.108 80.0556 253.059 80.0207 253.005C79.8286 252.71 79.9202 252.44 80.2956 252.196C80.4565 252.091 80.6791 252.022 80.9635 251.99C81.2036 251.948 81.5275 251.947 81.9354 251.987C82.7511 252.067 83.5522 252.271 84.3386 252.599C85.0982 252.944 85.8077 253.417 86.4669 254.019C87.1087 254.594 87.7003 255.297 88.2417 256.128Z" fill="#0A2239"/>
<path d="M81.1805 245.647C81.268 245.818 81.3632 246.039 81.466 246.31C81.5542 246.552 81.4987 246.724 81.2993 246.827C81.0714 246.943 80.8637 246.924 80.6762 246.768C80.4455 246.599 80.2292 246.422 80.027 246.238C79.6658 245.884 79.3261 245.536 79.0079 245.196C78.6613 244.87 78.1889 244.86 77.5908 245.167L66.0131 251.097C65.3581 251.432 64.9684 251.83 64.844 252.289C64.6912 252.763 64.6672 253.242 64.7721 253.728C64.8034 253.999 64.8204 254.278 64.8232 254.565C64.8114 254.822 64.7058 255.002 64.5064 255.104C64.2786 255.221 64.099 255.151 63.9677 254.895C63.7933 254.625 63.677 254.433 63.6186 254.319C63.3269 253.749 63.1296 253.329 63.0268 253.058C62.8955 252.802 62.7857 252.552 62.6975 252.31C62.6093 252.067 62.4557 251.732 62.2369 251.305C62.0327 250.906 61.8361 250.558 61.6471 250.259C61.4582 249.96 61.2474 249.619 61.0146 249.235C60.7819 248.851 60.5197 248.374 60.2279 247.804C59.1192 245.639 58.5496 243.72 58.519 242.046C58.46 240.386 59.1425 239.192 60.5665 238.463C61.7058 237.879 62.7777 237.725 63.7822 238.002C64.7582 238.293 65.5935 238.836 66.2882 239.631C66.375 239.73 66.44 239.787 66.483 239.8C66.5261 239.814 66.5324 239.721 66.5018 239.521C66.3101 238.936 66.2104 238.25 66.2027 237.463C66.1951 236.676 66.3667 235.923 66.7175 235.204C67.0252 234.471 67.5921 233.893 68.418 233.47C69.7566 232.785 70.9928 232.601 72.1265 232.919C73.2317 233.252 74.2546 233.95 75.1952 235.014C76.0927 236.065 76.9354 237.359 77.7231 238.897C77.869 239.182 78.0743 239.688 78.3389 240.415C78.6036 241.142 78.9037 241.834 79.2392 242.489C79.5602 243.115 79.9315 243.77 80.3531 244.453C80.7317 245.122 81.0155 245.606 81.2045 245.904C81.4219 246.189 81.4139 246.103 81.1805 245.647ZM76.0945 239.192C75.3651 237.768 74.5186 236.817 73.5551 236.34C72.5485 235.849 71.4614 235.902 70.2936 236.5C68.8411 237.244 68.1207 238.225 68.1325 239.441C68.1443 240.657 68.5368 242.02 69.31 243.53C69.5434 243.985 69.8189 244.348 70.1363 244.617C70.4392 244.857 70.8042 244.868 71.2315 244.649L75.1619 242.636C75.8739 242.271 76.3202 241.809 76.5009 241.249C76.6384 240.675 76.5029 239.989 76.0945 239.192ZM68.2472 244.613C67.3281 242.819 66.3584 241.698 65.3379 241.25C64.2743 240.788 63.3154 240.776 62.4609 241.213C61.635 241.636 61.0903 242.293 60.8271 243.183C60.5207 244.059 60.8052 245.351 61.6805 247.06C62.0889 247.858 62.487 248.319 62.8746 248.444C63.2338 248.583 63.6412 248.537 64.0969 248.303L67.8137 246.399C68.3548 246.122 68.5879 245.805 68.5129 245.448C68.4233 245.063 68.3347 244.784 68.2472 244.613Z" fill="#0A2239"/>
<path d="M69.4187 218.684C70.0575 220.324 70.2125 221.912 69.8836 223.448C69.5547 224.984 68.7933 226.38 67.5994 227.635C66.3756 228.901 64.7946 229.912 62.8565 230.667C61.1271 231.341 59.4106 231.563 57.7072 231.334C55.9624 231.086 54.4021 230.475 53.0263 229.499C51.6505 228.524 50.6607 227.261 50.0567 225.711C49.5921 224.518 49.4184 223.367 49.5354 222.257C49.6524 221.146 50.0446 220.169 50.7118 219.326C51.3377 218.464 52.2022 217.818 53.3055 217.388C54.2298 217.028 54.8662 217.295 55.2147 218.19L58.8907 227.627C59.0533 228.045 59.2887 228.296 59.5969 228.382C59.8637 228.45 60.3251 228.356 60.9811 228.101C62.4124 227.543 63.6024 226.719 64.5512 225.628C65.4702 224.549 66.0843 223.349 66.3934 222.026C66.6727 220.715 66.5684 219.434 66.0806 218.182C65.7322 217.287 65.2546 216.546 64.6478 215.958C63.9996 215.352 63.2372 214.893 62.3606 214.582C62.165 214.521 62.0407 214.466 61.9877 214.418C61.9048 214.382 61.8459 214.319 61.8111 214.23C61.7182 213.991 61.8208 213.814 62.119 213.698C62.6855 213.477 63.4162 213.501 64.3111 213.771C65.0519 213.998 65.7529 214.343 66.4143 214.806C67.0756 215.27 67.6559 215.834 68.1549 216.498C68.6838 217.15 69.1051 217.879 69.4187 218.684ZM57.4693 228.078L55.8839 224.008C55.6052 223.292 55.3522 222.687 55.1249 222.191C54.8976 221.696 54.6464 221.227 54.3711 220.785C54.2832 220.648 54.1589 220.593 53.9982 220.621C53.796 220.631 53.5459 220.694 53.2477 220.811C52.383 221.147 51.8034 221.82 51.5091 222.827C51.1733 223.816 51.2086 224.833 51.6151 225.877C51.8823 226.562 52.3581 227.167 53.0427 227.69C53.6975 228.225 54.4102 228.6 55.1807 228.815C55.9513 229.03 56.6348 229.021 57.2311 228.789C57.5293 228.673 57.6087 228.436 57.4693 228.078Z" fill="#0A2239"/>
<path d="M63.9322 204.148C63.9751 204.302 64.0044 204.527 64.02 204.821C64.0664 205.107 63.9971 205.276 63.8121 205.328C63.5655 205.396 63.3659 205.336 63.2134 205.146C63.0214 204.933 62.8448 204.717 62.6837 204.496C62.4008 204.076 62.0957 203.696 61.7683 203.356C61.4323 202.984 60.9252 202.893 60.247 203.082L47.7157 206.571C47.4383 206.648 47.1386 206.765 46.8167 206.921C46.4639 207.085 46.3218 207.291 46.3905 207.538L47.163 210.312C47.2918 210.774 47.4873 211.119 47.7495 211.345C48.0117 211.571 48.3732 211.736 48.8341 211.84C49.2555 211.922 49.831 211.961 50.5608 211.957C50.8245 211.95 51.1252 212.016 51.4627 212.154C51.7608 212.271 51.9442 212.452 52.0129 212.699C52.0472 212.822 52.0156 212.947 51.9181 213.074C51.8205 213.201 51.6638 213.294 51.448 213.354C51.3864 213.371 51.3093 213.393 51.2168 213.419C51.1158 213.413 51.0147 213.408 50.9136 213.403C50.4477 213.4 49.7968 213.449 48.961 213.548C48.0943 213.657 47.3681 213.793 46.7824 213.956C46.5358 214.024 46.3225 214.034 46.1427 213.984C45.9542 213.904 45.8256 213.74 45.7569 213.494C45.6883 213.247 45.659 213.023 45.6692 212.821C45.6793 212.619 45.6791 212.32 45.6686 211.924C45.6667 211.559 45.6536 211.214 45.6295 210.889C45.5967 210.532 45.5031 210.077 45.3486 209.522L42.6963 199.996C42.5847 199.595 42.4577 199.199 42.3153 198.807C42.1729 198.415 42.0383 198.17 41.9114 198.072C41.7452 197.952 41.6055 197.809 41.4924 197.641C41.3484 197.482 41.2678 197.371 41.2506 197.309C41.2249 197.217 41.2565 197.092 41.3455 196.934C41.4345 196.777 41.5868 196.668 41.8026 196.608C42.1109 196.522 42.4586 196.458 42.8457 196.417C43.2328 196.376 43.6267 196.299 44.0275 196.188C44.3974 196.085 44.7673 195.982 45.1373 195.879C45.4678 195.753 45.7983 195.628 46.1288 195.503C46.336 195.412 46.5801 195.394 46.861 195.448C47.1026 195.481 47.2534 195.605 47.3135 195.821C47.3736 196.036 47.2863 196.26 47.0518 196.491C46.7779 196.701 46.5527 196.846 46.3763 196.929C45.83 197.114 45.3822 197.355 45.033 197.651C44.6529 197.957 44.4065 198.324 44.2937 198.754C44.1809 199.184 44.206 199.692 44.3691 200.278L45.1416 203.052C45.2275 203.361 45.4528 203.514 45.8177 203.512C46.1739 203.479 46.5062 203.42 46.8145 203.334L59.392 199.832C60.0394 199.652 60.4109 199.316 60.5065 198.824C60.5936 198.301 60.6498 197.788 60.6752 197.282C60.699 197.01 60.7425 196.749 60.8057 196.498C60.8295 196.226 60.9648 196.056 61.2114 195.987C61.3963 195.935 61.5429 196.044 61.6509 196.313C61.7898 196.573 61.8808 196.78 61.9237 196.935C62.0868 197.52 62.1847 197.991 62.2174 198.348C62.281 198.695 62.3403 199.028 62.3953 199.344C62.4418 199.63 62.5422 200.051 62.6967 200.606C62.8426 201.13 62.9739 201.542 63.0906 201.841C63.2073 202.141 63.3282 202.456 63.4535 202.787C63.6009 203.078 63.7605 203.532 63.9322 204.148Z" fill="#0A2239"/>
<path d="M59.6402 187.978C59.664 188.136 59.668 188.378 59.6523 188.704C59.6635 188.993 59.5741 189.152 59.3843 189.181C59.1311 189.219 58.9404 189.134 58.8122 188.927C58.6475 188.693 58.4987 188.457 58.3657 188.218C58.1361 187.767 57.8955 187.35 57.6437 186.967C57.3556 186.557 56.8793 186.403 56.2148 186.503L43.209 188.458C42.5761 188.553 42.1703 188.76 41.9916 189.078C41.7813 189.401 41.6485 189.809 41.5933 190.303C41.5365 190.57 41.4638 190.84 41.3753 191.112C41.282 191.353 41.1246 191.49 40.9031 191.523C40.7132 191.552 40.5834 191.442 40.5137 191.193C40.4124 190.95 40.3474 190.733 40.3189 190.543C40.2237 189.91 40.1729 189.465 40.1665 189.207C40.1553 188.917 40.1623 188.641 40.1875 188.379C40.1811 188.121 40.1375 187.723 40.0566 187.185C39.9709 186.615 39.8932 186.206 39.8235 185.958C39.7222 185.714 39.6343 185.452 39.5598 185.172C39.4853 184.892 39.4029 184.452 39.3125 183.85C39.2887 183.692 39.287 183.466 39.3075 183.172C39.2915 182.85 39.3785 182.675 39.5684 182.647C39.7899 182.614 39.983 182.714 40.1476 182.948C40.3075 183.151 40.4539 183.371 40.5869 183.61C40.7849 184.066 41.039 184.464 41.3492 184.806C41.6231 185.121 42.0765 185.231 42.7093 185.136L47.5034 184.415C47.63 184.396 47.7178 184.334 47.7668 184.229C47.7794 184.098 47.7628 183.987 47.7169 183.897C47.5158 183.636 47.3471 183.16 47.2108 182.469C47.0428 181.782 46.9255 181.217 46.8589 180.774C46.778 180.236 46.7778 179.589 46.8582 178.833C46.907 178.081 47.1006 177.324 47.4389 176.561C47.7408 175.771 48.22 175.084 48.8765 174.5C49.5329 173.916 50.3991 173.543 51.475 173.381C52.8673 173.172 54.0636 173.38 55.0638 174.007C56.0277 174.606 56.7923 175.494 57.3576 176.671C57.9229 177.848 58.315 179.165 58.5339 180.62C58.6243 181.221 58.664 181.701 58.653 182.059C58.6737 182.411 58.6921 182.748 58.708 183.07C58.7192 183.359 58.7676 183.789 58.8533 184.358C58.9341 184.896 59.0142 185.321 59.0934 185.633C59.1727 185.944 59.2543 186.272 59.3383 186.615C59.4491 186.922 59.5498 187.376 59.6402 187.978ZM57.1334 180.345C56.9716 179.27 56.4784 178.357 55.6538 177.607C54.7975 176.862 53.6732 176.594 52.2808 176.804C50.6986 177.042 49.6007 177.595 48.9871 178.464C48.3687 179.301 48.1737 180.479 48.4021 181.998C48.5306 182.853 48.7317 183.437 49.0056 183.752C49.1971 183.95 49.4377 184.043 49.7272 184.032C49.9851 184.025 50.1774 184.013 50.304 183.994L55.2405 183.251C55.9999 183.137 56.5267 182.767 56.8208 182.14C57.1149 181.513 57.2191 180.915 57.1334 180.345ZM57.0921 171.032C57.1159 171.19 57.1151 171.401 57.0899 171.663C57.0916 171.89 56.9975 172.017 56.8076 172.046C56.5545 172.084 56.3638 171.999 56.2355 171.792C56.0709 171.558 55.9221 171.321 55.7891 171.082C55.5595 170.631 55.3164 170.199 55.0599 169.784C54.7718 169.375 54.2955 169.22 53.631 169.32L40.91 171.233C40.2138 171.337 39.7131 171.558 39.4078 171.895C39.1026 172.232 38.9477 172.709 38.9431 173.324C38.9227 173.619 38.8658 173.886 38.7725 174.127C38.6476 174.372 38.4744 174.511 38.2529 174.544C38.063 174.573 37.9356 174.479 37.8707 174.262C37.7693 174.019 37.7068 173.818 37.683 173.659C37.5878 173.026 37.5346 172.565 37.5234 172.276C37.5075 171.955 37.5121 171.663 37.5374 171.4C37.5262 171.11 37.4801 170.697 37.3993 170.159C37.3136 169.589 37.2312 169.148 37.1519 168.837C37.0411 168.53 36.9436 168.205 36.8597 167.861C36.7757 167.518 36.6861 167.03 36.5909 166.397C36.5624 166.207 36.5631 165.997 36.5931 165.766C36.5914 165.539 36.6855 165.412 36.8754 165.383C37.0969 165.35 37.3034 165.432 37.4949 165.63C37.6548 165.833 37.7878 166.071 37.8939 166.347C38.1157 166.961 38.4402 167.397 38.8675 167.656C39.2632 167.921 39.7775 168.005 40.4103 167.91L53.1313 165.997C53.7959 165.897 54.2056 165.609 54.3605 165.133C54.4837 164.661 54.5888 164.176 54.6756 163.678C54.7325 163.41 54.8075 163.156 54.9008 162.916C54.9577 162.648 55.1127 162.495 55.3658 162.457C55.5557 162.429 55.6855 162.539 55.7552 162.787C55.8518 162.999 55.912 163.184 55.9358 163.343C56.031 163.975 56.0754 164.486 56.0693 164.876C56.09 165.229 56.1083 165.566 56.1242 165.887C56.1401 166.208 56.1909 166.653 56.2766 167.223C56.3575 167.761 56.4399 168.202 56.5239 168.545C56.6031 168.857 56.6871 169.2 56.7759 169.575C56.8915 169.913 56.9969 170.399 57.0921 171.032Z" fill="#0A2239"/>
</svg>
