<svg width="479" height="386" viewBox="0 0 479 386" fill="none" xmlns="http://www.w3.org/2000/svg">
<path d="M34.4239 133.421C34.014 133.492 33.672 133.486 33.3979 133.404C33.1293 133.353 32.9785 133.233 32.9457 133.044C32.891 132.729 33.3517 132.389 34.3278 132.024C35.4876 131.596 36.1971 131.099 36.4564 130.535C36.7472 129.964 36.7941 129.112 36.5971 127.977L32.8874 106.6C32.6959 105.497 32.4358 104.746 32.1069 104.349C31.8042 103.914 31.0346 103.69 29.7982 103.678C28.7249 103.669 28.1554 103.475 28.0898 103.097C28.057 102.908 28.1427 102.747 28.347 102.614C28.5458 102.45 28.8817 102.326 29.3546 102.244C30.2059 102.097 30.8707 101.997 31.3491 101.947C31.8275 101.896 32.2744 101.851 32.6897 101.812C33.0996 101.74 33.6198 101.65 34.2504 101.541C34.9125 101.426 35.4485 101.333 35.8584 101.262C36.2943 101.154 36.746 101.043 37.2135 100.929C37.7124 100.81 38.3876 100.677 39.2389 100.529C40.1532 100.37 40.6459 100.496 40.7171 100.906C40.7554 101.126 40.6593 101.322 40.429 101.492C40.1986 101.662 39.8237 101.84 39.3041 102.028C38.1758 102.451 37.4087 102.99 37.0028 103.645C36.6228 104.263 36.5122 105.029 36.6709 105.944L38.2877 115.261C38.3205 115.45 38.4212 115.562 38.5898 115.598C38.7529 115.602 38.8976 115.593 39.0237 115.571L56.5694 112.526C56.7901 112.488 56.8677 112.28 56.802 111.901L55.2016 102.679C55.0539 101.828 54.7101 101.157 54.1702 100.666C53.6303 100.175 52.7421 99.9232 51.5057 99.9104C50.9533 99.9088 50.5401 99.8669 50.266 99.7845C49.9918 99.7022 49.8356 99.5507 49.7973 99.33C49.7262 98.9201 50.1478 98.6358 51.0621 98.4771C51.9134 98.3294 52.6098 98.2248 53.1513 98.1633C53.7242 98.0964 54.2657 98.0349 54.7756 97.9789C55.2801 97.8913 55.8791 97.7874 56.5728 97.667C57.1403 97.5685 57.5817 97.4919 57.897 97.4372C58.2068 97.3509 58.5639 97.2565 58.9683 97.1538C59.3727 97.0512 60.0005 96.926 60.8518 96.7782C61.2932 96.7016 61.6352 96.7073 61.8778 96.7951C62.1465 96.8459 62.2972 96.9659 62.33 97.155C62.3957 97.5334 61.9247 97.9074 60.9171 98.2772C59.7888 98.7003 59.1451 99.2018 58.9859 99.7815C58.8266 100.361 58.8264 101.108 58.985 102.023L62.6947 123.399C62.8972 124.566 63.184 125.377 63.5553 125.832C63.9582 126.282 64.762 126.516 65.9669 126.534C67.0086 126.548 67.5569 126.713 67.6116 127.028C67.6444 127.217 67.5429 127.381 67.3071 127.519C67.0767 127.689 66.7566 127.81 66.3468 127.881C65.4955 128.028 64.8279 128.112 64.344 128.131C63.8656 128.181 63.4188 128.226 63.0034 128.266C62.5881 128.306 62.0493 128.383 61.3872 128.498C60.7251 128.613 60.1761 128.724 59.7402 128.832C59.3358 128.935 58.8841 129.046 58.3851 129.165C57.8916 129.316 57.2192 129.465 56.3679 129.612C55.958 129.684 55.616 129.678 55.3419 129.596C55.0733 129.545 54.9225 129.425 54.8897 129.236C54.8514 129.015 54.9344 128.838 55.1387 128.705C55.3745 128.567 55.7522 128.404 56.2718 128.216C57.2479 127.852 57.9732 127.353 58.4477 126.718C58.9482 126.047 59.111 125.207 58.9359 124.198L57.3355 114.975C57.3081 114.818 57.2808 114.66 57.2534 114.503C57.226 114.345 57.1335 114.28 56.9759 114.307L38.9099 117.442C38.7523 117.47 38.7035 117.657 38.7637 118.004L40.3231 126.989C40.4927 127.967 41.003 128.755 41.854 129.354C42.6996 129.922 43.6747 130.208 44.7795 130.211C45.3319 130.212 45.7267 130.241 45.9638 130.297C46.2325 130.348 46.3859 130.484 46.4242 130.705C46.4571 130.894 46.3556 131.058 46.1198 131.196C45.8894 131.366 45.5693 131.486 45.1594 131.558C44.3082 131.705 43.5933 131.797 43.0148 131.832C42.4734 131.894 41.9477 131.953 41.4377 132.009C40.9278 132.065 40.3103 132.155 39.5851 132.281C38.923 132.396 38.3582 132.51 37.8908 132.624C37.4548 132.732 36.9716 132.849 36.4411 132.973C35.9476 133.124 35.2752 133.273 34.4239 133.421Z" fill="#0A2239"/>
<path d="M73.6009 128.247C73.0262 128.287 72.4203 128.104 71.783 127.698C71.1777 127.291 70.6456 126.782 70.1868 126.172C69.7599 125.56 69.5267 124.967 69.4873 124.392C69.4171 123.37 69.6337 122.554 70.137 121.942C70.6403 121.33 71.4661 120.744 72.6145 120.184L77.3609 117.837C77.9819 117.538 78.3337 117.289 78.4163 117.091C78.5309 116.891 78.5822 116.471 78.5703 115.83L78.4557 112.758C78.4307 111.926 78.142 111.224 77.5895 110.653C77.069 110.079 76.3459 109.824 75.42 109.888C74.9412 109.92 74.4678 110.033 73.9999 110.226C73.5319 110.418 73.1471 110.653 72.8454 110.93C72.6626 111.071 72.5481 111.271 72.5017 111.531C72.4554 111.791 72.4421 112.065 72.4618 112.352C72.4706 112.48 72.4805 112.623 72.4914 112.783C72.5343 112.94 72.5601 113.083 72.5689 113.211C72.5798 113.37 72.3877 113.608 71.9924 113.924C71.6268 114.205 71.1963 114.476 70.7008 114.734C70.2351 114.959 69.8426 115.082 69.5234 115.104C69.3637 115.115 69.2338 115.091 69.1337 115.034C69.0313 114.945 68.9758 114.836 68.967 114.709C68.932 114.198 69.0543 113.644 69.3341 113.048C69.6437 112.417 70.0842 111.825 70.6557 111.273C71.344 110.552 72.1016 109.907 72.9285 109.337C73.7554 108.767 74.574 108.31 75.3843 107.966C76.1947 107.621 76.9191 107.427 77.5576 107.383C78.7069 107.304 79.6771 107.655 80.4684 108.435C81.2894 109.18 81.7255 110.16 81.7769 111.376L82.3262 122.885C82.3403 123.558 82.5212 124.091 82.869 124.484C83.2486 124.875 83.6938 125.053 84.2046 125.018C85.0028 124.963 85.5813 124.747 85.9403 124.369C86.089 124.199 86.2112 124.11 86.307 124.103C86.4666 124.093 86.5976 124.132 86.6999 124.221C86.8023 124.31 86.8589 124.434 86.8699 124.594C86.894 124.945 86.7425 125.309 86.4154 125.684C85.9397 126.23 85.4084 126.667 84.8216 126.996C84.2688 127.355 83.7371 127.552 83.2263 127.587C81.7577 127.687 80.5355 126.937 79.5596 125.336L79.4159 125.346C78.4215 126.281 77.4586 126.972 76.5272 127.421C75.5979 127.902 74.6225 128.177 73.6009 128.247ZM75.6938 125.794C76.3323 125.75 76.8685 125.617 77.3023 125.395C77.7339 125.141 78.1132 124.826 78.4403 124.451C78.589 124.28 78.7024 124.064 78.7807 123.802C78.8887 123.506 78.9378 123.054 78.9281 122.445L78.8628 120.092C78.8706 119.738 78.8372 119.484 78.7624 119.329C78.6875 119.174 78.5544 119.103 78.3628 119.116C78.299 119.12 78.1883 119.144 78.0309 119.187C77.8735 119.23 77.6703 119.308 77.4215 119.421C75.7711 120.144 74.6337 120.863 74.0093 121.58C73.4146 122.262 73.1359 122.874 73.1732 123.417C73.2301 124.247 73.5134 124.869 74.0229 125.283C74.5622 125.663 75.1192 125.834 75.6938 125.794Z" fill="#0A2239"/>
<path d="M108.807 127.507C108.168 127.5 107.577 127.397 107.035 127.199C106.493 127.002 105.968 126.692 105.461 126.27C104.985 125.849 104.479 125.3 103.942 124.622C103.438 123.944 102.887 123.122 102.289 122.156C101.629 121.061 101.079 120.127 100.639 119.354C100.2 118.581 99.71 117.984 99.1705 117.562C98.6634 117.108 97.9299 116.876 96.9699 116.866C96.65 116.862 96.4884 117.005 96.4853 117.293L96.4157 123.724C96.4084 124.396 96.6437 124.831 97.1216 125.028C97.5995 125.225 98.0776 125.406 98.5558 125.572C98.8108 125.67 99.0495 125.785 99.2721 125.915C99.5271 126.014 99.6532 126.192 99.6504 126.448C99.648 126.672 99.4866 126.798 99.1663 126.826C98.8779 126.855 98.6698 126.869 98.5418 126.868C97.9338 126.861 97.4542 126.824 97.1029 126.756C96.7513 126.72 96.4157 126.685 96.096 126.649C95.8084 126.614 95.3766 126.593 94.8006 126.587C94.2566 126.581 93.8245 126.592 93.5042 126.621C93.1838 126.65 92.8475 126.678 92.4952 126.706C92.1745 126.767 91.6942 126.793 91.0542 126.787C90.9262 126.785 90.7024 126.767 90.3828 126.731C90.0952 126.696 89.9525 126.567 89.955 126.343C89.9577 126.087 90.0716 125.912 90.2967 125.818C90.554 125.693 90.8112 125.584 91.0683 125.491C91.55 125.336 92.0155 125.197 92.4649 125.074C92.9146 124.919 93.143 124.505 93.1503 123.833L93.2911 110.826C93.2987 110.122 93.1284 109.592 92.7803 109.236C92.4321 108.88 92.0187 108.636 91.5401 108.503C91.2852 108.404 91.0304 108.289 90.7758 108.158C90.5532 108.028 90.4431 107.851 90.4455 107.627C90.4483 107.371 90.5937 107.244 90.8817 107.247C91.202 107.219 91.4262 107.205 91.5542 107.207C92.1941 107.214 92.6419 107.235 92.8976 107.269C93.1852 107.304 93.4567 107.355 93.7119 107.422C93.9676 107.457 94.3674 107.477 94.9114 107.483C95.4873 107.489 95.9035 107.478 96.1598 107.449C96.4165 107.387 96.689 107.342 96.9773 107.313C97.2976 107.285 97.7618 107.274 98.3698 107.281C98.4977 107.282 98.7056 107.3 98.9932 107.335C99.3132 107.339 99.4718 107.468 99.469 107.724C99.4666 107.948 99.3367 108.123 99.0793 108.248C98.854 108.374 98.6128 108.483 98.3557 108.576C97.8744 108.699 97.4556 108.951 97.0995 109.331C96.7437 109.679 96.5618 110.221 96.5539 110.957L96.5056 115.421C96.5038 115.581 96.5506 115.693 96.6459 115.758C96.7736 115.792 96.9014 115.809 97.0294 115.811C98.6613 115.828 99.8977 115.426 100.739 114.603C101.612 113.78 102.342 112.844 102.929 111.794C103.288 111.19 103.614 110.585 103.909 109.981C104.235 109.376 104.577 108.836 104.934 108.36C105.324 107.852 105.776 107.457 106.291 107.174C106.838 106.892 107.48 106.755 108.216 106.763C109.048 106.772 109.637 107.002 109.985 107.454C110.364 107.874 110.551 108.324 110.546 108.804C110.54 109.316 110.408 109.747 110.148 110.096C109.888 110.445 109.534 110.618 109.086 110.613C108.766 110.609 108.368 110.477 107.891 110.216C107.445 109.955 107.063 109.823 106.743 109.819C106.327 109.815 106.006 109.923 105.779 110.145C105.585 110.367 105.358 110.636 105.098 110.954C104.904 111.207 104.643 111.637 104.316 112.241C104.022 112.846 103.679 113.45 103.289 114.054C102.898 114.658 102.477 115.117 102.026 115.433C101.897 115.527 101.848 115.607 101.879 115.671C101.911 115.703 101.958 115.768 102.021 115.865C102.713 116.96 103.326 117.991 103.86 118.957C104.394 119.89 104.912 120.76 105.416 121.566C106.014 122.468 106.645 123.259 107.31 123.938C107.975 124.585 108.786 125.09 109.742 125.453C110.156 125.585 110.475 125.749 110.697 125.943C110.919 126.105 111.029 126.315 111.026 126.571C111.024 126.763 110.813 126.968 110.395 127.188C110.009 127.408 109.479 127.514 108.807 127.507Z" fill="#0A2239"/>
<path d="M115.752 128.015C114.51 127.895 113.642 127.554 113.15 126.992C112.658 126.43 112.439 125.863 112.494 125.29C112.547 124.748 112.766 124.303 113.154 123.955C113.576 123.577 114.089 123.418 114.695 123.476C115.077 123.513 115.37 123.638 115.575 123.851C115.811 124.066 116.032 124.28 116.236 124.493C116.383 124.636 116.514 124.777 116.629 124.917C116.779 125.028 116.95 125.092 117.141 125.111C117.619 125.157 118.089 124.784 118.551 123.993C119.048 123.173 119.504 122.108 119.92 120.798C120.336 119.488 120.695 118.092 120.999 116.61C121.303 115.128 121.516 113.75 121.639 112.476C121.728 111.553 121.562 110.942 121.141 110.644C120.719 110.346 120.053 110.089 119.141 109.872C119.017 109.828 118.851 109.716 118.643 109.535C118.471 109.326 118.395 109.109 118.417 108.886C118.435 108.695 118.594 108.55 118.893 108.45C119.227 108.321 119.441 108.262 119.537 108.271C120.142 108.329 120.585 108.404 120.866 108.496C121.149 108.555 121.562 108.611 122.103 108.663L132.089 109.626C132.726 109.688 133.189 109.716 133.479 109.712C133.804 109.679 134.269 109.692 134.874 109.75C134.969 109.76 135.153 109.858 135.424 110.045C135.73 110.203 135.874 110.377 135.856 110.568C135.834 110.791 135.719 110.989 135.509 111.162C135.303 111.303 135.118 111.381 134.956 111.398C134.144 111.48 133.545 111.696 133.158 112.044C132.805 112.364 132.566 113.177 132.44 114.483L131.343 125.854C131.282 126.491 131.4 126.936 131.697 127.19C132.029 127.415 132.426 127.63 132.888 127.835C133.134 127.955 133.362 128.09 133.573 128.239C133.818 128.359 133.929 128.546 133.904 128.801C133.886 128.992 133.764 129.093 133.537 129.103C133.308 129.146 133.098 129.158 132.907 129.139C132.302 129.081 131.827 129.003 131.483 128.905C131.168 128.843 130.868 128.782 130.584 128.722C130.301 128.663 129.872 128.605 129.299 128.55C128.758 128.498 128.326 128.472 128.004 128.473C127.683 128.474 127.345 128.474 126.992 128.472C126.667 128.505 126.202 128.492 125.597 128.434C125.406 128.416 125.202 128.364 124.985 128.279C124.765 128.225 124.665 128.103 124.683 127.912C124.708 127.657 124.836 127.493 125.068 127.419C125.335 127.316 125.601 127.229 125.865 127.158C126.358 127.045 126.821 126.912 127.253 126.761C127.689 126.578 127.937 126.168 127.999 125.531L129.234 112.727C129.259 112.472 129.262 112.102 129.244 111.619C129.227 111.135 129.027 110.874 128.645 110.837L124.392 110.427C123.978 110.387 123.716 110.603 123.607 111.075C123.497 111.546 123.43 111.91 123.405 112.164C123.276 113.502 123.06 114.912 122.756 116.394C122.484 117.878 122.118 119.338 121.658 120.772C121.234 122.178 120.725 123.447 120.134 124.58C119.545 125.68 118.883 126.549 118.147 127.185C117.41 127.821 116.612 128.098 115.752 128.015Z" fill="#0A2239"/>
<path d="M147.317 132.185C145.555 131.859 144.041 131.156 142.777 130.076C141.512 128.996 140.586 127.669 139.999 126.096C139.448 124.497 139.342 122.785 139.68 120.96C139.925 119.639 140.415 118.395 141.151 117.23C141.919 116.07 142.871 115.058 144.007 114.195C145.143 113.331 146.396 112.717 147.765 112.352C149.141 111.956 150.552 111.891 151.999 112.159C153.824 112.497 155.379 113.24 156.663 114.389C157.979 115.544 158.928 116.923 159.51 118.528C160.129 120.107 160.281 121.746 159.966 123.445C159.629 125.27 158.899 126.925 157.778 128.41C156.689 129.901 155.262 131.02 153.496 131.767C151.736 132.483 149.677 132.622 147.317 132.185ZM148.57 130.953C149.64 131.151 150.637 131.124 151.563 130.872C152.488 130.62 153.271 130.082 153.912 129.257C154.423 128.603 154.838 127.768 155.156 126.753C155.474 125.738 155.718 124.774 155.887 123.862C156.166 122.352 156.151 120.852 155.841 119.362C155.568 117.847 155.009 116.556 154.165 115.489C153.359 114.396 152.279 113.724 150.926 113.474C150.076 113.317 149.279 113.315 148.535 113.471C147.827 113.6 147.124 113.974 146.423 114.593C145.648 115.263 145.062 116.147 144.663 117.245C144.265 118.343 143.961 119.458 143.751 120.591C143.466 122.133 143.475 123.664 143.78 125.185C144.09 126.674 144.651 127.95 145.463 129.011C146.276 130.073 147.311 130.72 148.57 130.953Z" fill="#0A2239"/>
<path d="M162.362 134.754C162.177 134.702 161.95 134.622 161.682 134.513C161.444 134.414 161.355 134.256 161.415 134.04C161.484 133.794 161.64 133.654 161.881 133.622C162.162 133.568 162.439 133.529 162.711 133.505C163.217 133.481 163.695 133.432 164.148 133.359C164.64 133.264 164.976 132.893 165.157 132.246L168.701 119.58C168.873 118.964 168.805 118.496 168.495 118.177C168.225 117.836 167.877 117.539 167.449 117.286C167.228 117.125 167.012 116.948 166.8 116.756C166.618 116.572 166.558 116.372 166.618 116.157C166.679 115.941 166.837 115.852 167.092 115.89C167.378 115.937 167.613 115.986 167.798 116.038C168.414 116.21 168.857 116.351 169.126 116.459C169.425 116.576 169.705 116.705 169.965 116.844C170.234 116.952 170.63 117.08 171.154 117.226C171.709 117.381 172.114 117.478 172.369 117.516C172.632 117.524 172.907 117.551 173.193 117.597C173.51 117.653 173.961 117.763 174.547 117.926C174.732 117.978 174.943 118.054 175.181 118.154C175.45 118.262 175.554 118.424 175.494 118.64C175.433 118.856 175.262 118.991 174.981 119.045C174.731 119.108 174.47 119.151 174.198 119.174C173.701 119.168 173.233 119.237 172.794 119.38C172.395 119.501 172.109 119.869 171.937 120.486L170.579 125.339C170.544 125.463 170.584 125.557 170.699 125.622C170.813 125.687 170.902 125.729 170.963 125.746L179.561 128.152C179.623 128.169 179.678 128.151 179.726 128.098C179.804 128.054 179.861 127.97 179.896 127.846L181.228 123.085C181.4 122.469 181.363 122.01 181.115 121.708C180.876 121.375 180.542 121.083 180.114 120.83C179.894 120.668 179.677 120.492 179.465 120.299C179.284 120.116 179.224 119.916 179.284 119.7C179.344 119.485 179.502 119.396 179.757 119.434C180.012 119.472 180.248 119.521 180.464 119.582C181.08 119.754 181.522 119.895 181.791 120.003C182.06 120.112 182.309 120.231 182.538 120.362C182.807 120.47 183.203 120.598 183.727 120.744C184.282 120.899 184.687 120.996 184.942 121.034C185.236 121.05 185.542 121.086 185.859 121.141C186.176 121.197 186.627 121.306 187.212 121.47C187.428 121.53 187.655 121.611 187.893 121.71C188.131 121.81 188.219 121.968 188.159 122.184C188.099 122.399 187.928 122.534 187.647 122.589C187.397 122.652 187.136 122.695 186.863 122.718C186.366 122.712 185.883 122.776 185.414 122.911C184.953 123.014 184.636 123.374 184.464 123.991L180.92 136.656C180.747 137.273 180.847 137.749 181.218 138.085C181.62 138.43 182.03 138.745 182.449 139.028C182.67 139.19 182.871 139.362 183.052 139.546C183.273 139.707 183.349 139.911 183.28 140.158C183.219 140.373 183.046 140.458 182.76 140.411C182.505 140.373 182.285 140.328 182.1 140.276C181.514 140.112 181.061 139.952 180.739 139.796C180.409 139.67 180.094 139.549 179.794 139.432C179.526 139.323 179.114 139.191 178.559 139.036C178.035 138.89 177.615 138.789 177.298 138.733C176.981 138.678 176.649 138.618 176.302 138.554C175.976 138.53 175.505 138.431 174.889 138.259C174.704 138.207 174.477 138.127 174.209 138.018C173.971 137.919 173.882 137.761 173.942 137.545C174.011 137.299 174.166 137.159 174.408 137.127C174.689 137.073 174.966 137.034 175.238 137.01C175.744 136.986 176.227 136.922 176.688 136.818C177.179 136.723 177.512 136.367 177.684 135.751L179.301 129.973C179.335 129.85 179.337 129.784 179.306 129.775C179.284 129.736 179.242 129.707 179.18 129.69L170.213 127.181C170.151 127.164 170.096 127.181 170.048 127.235C170.04 127.265 170.018 127.342 169.984 127.466L168.393 133.151C168.212 133.798 168.307 134.29 168.678 134.627C169.088 134.941 169.503 135.24 169.922 135.523C170.143 135.685 170.344 135.857 170.525 136.041C170.746 136.202 170.822 136.406 170.753 136.653C170.692 136.868 170.519 136.953 170.233 136.906C169.978 136.868 169.758 136.823 169.573 136.771C168.988 136.607 168.534 136.447 168.212 136.291C167.882 136.165 167.567 136.044 167.267 135.927C166.999 135.818 166.587 135.686 166.032 135.531C165.508 135.385 165.088 135.284 164.771 135.228C164.454 135.173 164.122 135.113 163.775 135.049C163.449 135.025 162.978 134.926 162.362 134.754Z" fill="#0A2239"/>
<path d="M187.223 142.079C187.044 142.01 186.825 141.909 186.568 141.777C186.34 141.655 186.267 141.49 186.347 141.281C186.438 141.042 186.606 140.917 186.849 140.908C187.134 140.88 187.413 140.867 187.687 140.868C188.192 140.891 188.673 140.887 189.131 140.856C189.629 140.807 189.998 140.469 190.239 139.841L194.941 127.558C195.17 126.961 195.145 126.489 194.867 126.142C194.629 125.777 194.31 125.449 193.907 125.158C193.702 124.977 193.503 124.781 193.31 124.57C193.147 124.37 193.105 124.166 193.185 123.956C193.265 123.747 193.43 123.673 193.681 123.735C193.961 123.808 194.191 123.879 194.37 123.948C194.968 124.177 195.396 124.357 195.653 124.49C195.941 124.635 196.207 124.788 196.453 124.951C196.711 125.084 197.094 125.247 197.602 125.442C198.14 125.648 198.534 125.782 198.784 125.843C199.046 125.875 199.318 125.927 199.598 126.001C199.908 126.085 200.347 126.236 200.915 126.453C201.094 126.522 201.298 126.617 201.526 126.739C201.783 126.871 201.872 127.042 201.792 127.252C201.712 127.461 201.529 127.579 201.244 127.607C200.989 127.647 200.725 127.666 200.452 127.664C199.958 127.612 199.486 127.637 199.035 127.738C198.627 127.822 198.308 128.162 198.079 128.76L196.277 133.467C196.231 133.586 196.262 133.684 196.37 133.759C196.479 133.835 196.562 133.884 196.622 133.907L204.96 137.099C205.02 137.122 205.076 137.11 205.129 137.061C205.212 137.024 205.276 136.946 205.322 136.827L207.089 132.209C207.318 131.612 207.323 131.151 207.104 130.828C206.897 130.474 206.592 130.152 206.19 129.861C205.985 129.679 205.786 129.483 205.593 129.272C205.429 129.073 205.387 128.868 205.468 128.659C205.548 128.45 205.713 128.376 205.963 128.438C206.214 128.499 206.444 128.57 206.653 128.65C207.251 128.879 207.678 129.06 207.936 129.193C208.193 129.326 208.43 129.468 208.646 129.619C208.904 129.752 209.287 129.916 209.795 130.11C210.333 130.316 210.727 130.45 210.977 130.511C211.269 130.555 211.57 130.619 211.881 130.703C212.191 130.788 212.63 130.939 213.198 131.156C213.407 131.236 213.625 131.337 213.853 131.458C214.081 131.58 214.154 131.745 214.074 131.954C213.994 132.163 213.812 132.282 213.527 132.31C213.272 132.349 213.008 132.368 212.734 132.366C212.24 132.314 211.753 132.333 211.273 132.424C210.805 132.484 210.456 132.813 210.227 133.411L205.525 145.693C205.296 146.291 205.351 146.775 205.689 147.144C206.057 147.525 206.437 147.876 206.828 148.197C207.032 148.378 207.217 148.568 207.38 148.768C207.585 148.949 207.641 149.159 207.55 149.398C207.47 149.608 207.289 149.676 207.009 149.603C206.759 149.541 206.544 149.476 206.364 149.407C205.796 149.19 205.36 148.988 205.054 148.803C204.737 148.647 204.434 148.497 204.147 148.353C203.889 148.22 203.492 148.05 202.954 147.844C202.446 147.65 202.036 147.51 201.726 147.426C201.416 147.341 201.091 147.251 200.75 147.155C200.429 147.1 199.969 146.959 199.371 146.73C199.192 146.661 198.974 146.56 198.716 146.428C198.488 146.306 198.415 146.141 198.495 145.932C198.586 145.693 198.754 145.568 198.997 145.559C199.282 145.531 199.561 145.518 199.835 145.519C200.34 145.542 200.827 145.523 201.296 145.462C201.794 145.413 202.158 145.09 202.387 144.492L204.532 138.889C204.578 138.769 204.586 138.704 204.556 138.692C204.537 138.651 204.498 138.619 204.439 138.596L195.742 135.266C195.682 135.244 195.626 135.256 195.573 135.305C195.562 135.334 195.533 135.409 195.487 135.529L193.377 141.042C193.136 141.67 193.185 142.168 193.524 142.538C193.903 142.889 194.289 143.225 194.68 143.546C194.884 143.727 195.068 143.917 195.232 144.117C195.437 144.298 195.493 144.508 195.402 144.747C195.322 144.957 195.141 145.025 194.861 144.952C194.61 144.89 194.395 144.825 194.216 144.756C193.648 144.539 193.212 144.337 192.906 144.152C192.588 143.996 192.286 143.846 191.999 143.702C191.741 143.569 191.343 143.399 190.806 143.193C190.297 142.999 189.888 142.859 189.578 142.775C189.268 142.69 188.942 142.6 188.602 142.504C188.281 142.449 187.821 142.308 187.223 142.079Z" fill="#0A2239"/>
<path d="M214.173 153.736C213.654 153.485 213.218 153.027 212.866 152.359C212.541 151.705 212.331 151 212.234 150.242C212.167 149.499 212.258 148.868 212.508 148.349C212.953 147.427 213.546 146.825 214.286 146.542C215.026 146.26 216.034 146.16 217.309 146.242L222.594 146.553C223.282 146.601 223.711 146.559 223.881 146.428C224.079 146.31 224.332 145.971 224.639 145.408L226.06 142.683C226.451 141.947 226.547 141.195 226.35 140.425C226.182 139.668 225.68 139.089 224.844 138.686C224.412 138.477 223.945 138.34 223.443 138.276C222.941 138.212 222.491 138.225 222.091 138.317C221.863 138.348 221.664 138.466 221.495 138.669C221.326 138.871 221.179 139.102 221.054 139.362C220.998 139.477 220.936 139.607 220.866 139.751C220.826 139.909 220.778 140.046 220.722 140.161C220.652 140.305 220.368 140.416 219.868 140.495C219.411 140.559 218.903 140.58 218.345 140.559C217.829 140.524 217.427 140.437 217.139 140.297C216.994 140.228 216.893 140.144 216.834 140.044C216.79 139.916 216.795 139.794 216.851 139.679C217.073 139.218 217.454 138.797 217.992 138.418C218.573 138.023 219.249 137.727 220.019 137.53C220.974 137.245 221.952 137.059 222.952 136.973C223.953 136.888 224.891 136.896 225.765 136.998C226.64 137.1 227.365 137.29 227.941 137.568C228.979 138.069 229.649 138.854 229.95 139.923C230.294 140.977 230.188 142.045 229.63 143.126L224.409 153.398C224.088 153.989 223.981 154.541 224.089 155.055C224.225 155.583 224.524 155.958 224.985 156.18C225.705 156.528 226.315 156.627 226.814 156.476C227.028 156.402 227.178 156.385 227.264 156.427C227.408 156.497 227.503 156.595 227.547 156.724C227.592 156.852 227.58 156.988 227.51 157.132C227.357 157.449 227.046 157.69 226.576 157.854C225.892 158.092 225.214 158.209 224.541 158.205C223.883 158.243 223.324 158.15 222.863 157.928C221.537 157.288 220.847 156.031 220.791 154.157L220.662 154.095C219.335 154.414 218.156 154.538 217.125 154.467C216.079 154.424 215.095 154.181 214.173 153.736ZM217.206 152.641C217.783 152.919 218.314 153.069 218.801 153.091C219.302 153.083 219.787 152.998 220.257 152.834C220.471 152.759 220.677 152.627 220.874 152.439C221.115 152.235 221.381 151.866 221.674 151.332L222.783 149.256C222.965 148.953 223.061 148.715 223.073 148.543C223.085 148.371 223.005 148.244 222.832 148.16C222.774 148.132 222.666 148.098 222.508 148.057C222.35 148.017 222.135 147.984 221.863 147.959C220.071 147.77 218.727 147.832 217.829 148.145C216.975 148.443 216.429 148.838 216.193 149.328C215.832 150.077 215.77 150.758 216.007 151.37C216.288 151.967 216.687 152.391 217.206 152.641Z" fill="#0A2239"/>
<path d="M229.693 161.296C229.112 160.958 228.621 160.561 228.22 160.105C227.819 159.65 227.675 159.325 227.787 159.131C228.045 158.689 228.395 158.596 228.837 158.854C229.584 159.289 230.363 159.446 231.173 159.326C232 159.178 232.85 158.895 233.723 158.477C234.595 158.06 235.424 157.654 236.209 157.259C237.126 156.83 237.775 156.542 238.157 156.394C238.567 156.262 239.008 156.205 239.481 156.22C239.953 156.236 240.081 156.144 239.864 155.944C238.859 155.062 238.224 154.118 237.958 153.112C237.709 152.078 237.93 150.966 238.622 149.777C239.186 148.809 239.946 148.141 240.901 147.772C241.885 147.418 242.937 147.328 244.059 147.5C245.209 147.688 246.337 148.104 247.443 148.748C247.83 148.973 248.223 149.221 248.621 149.49C249.036 149.731 249.457 149.995 249.883 150.28C250.326 150.538 250.782 150.804 251.252 151.077C251.75 151.367 252.095 151.568 252.289 151.681C252.526 151.782 252.769 151.905 253.018 152.05C253.283 152.168 253.678 152.379 254.204 152.685C254.342 152.766 254.519 152.906 254.736 153.106C254.969 153.279 255.037 153.448 254.94 153.614C254.828 153.808 254.628 153.895 254.343 153.877C254.085 153.875 253.821 153.851 253.552 153.805C253.072 153.674 252.608 153.645 252.159 153.716C251.71 153.788 251.3 154.142 250.93 154.778L244.384 166.019C244.046 166.6 244.03 167.072 244.337 167.436C244.659 167.772 244.988 168.13 245.322 168.509C245.495 168.721 245.646 168.939 245.775 169.162C245.948 169.374 245.97 169.59 245.841 169.812C245.729 170.005 245.526 170.035 245.233 169.902C244.968 169.785 244.78 169.694 244.67 169.629C244.144 169.323 243.732 169.046 243.432 168.798C243.144 168.593 242.87 168.396 242.61 168.207C242.349 168.019 241.97 167.779 241.472 167.489C241.002 167.216 240.621 167.012 240.328 166.879C240.036 166.745 239.729 166.604 239.409 166.454C239.1 166.349 238.669 166.135 238.116 165.813C238.005 165.748 237.82 165.622 237.56 165.433C237.327 165.261 237.267 165.077 237.379 164.884C237.508 164.663 237.694 164.567 237.936 164.597C238.221 164.615 238.499 164.647 238.768 164.693C239.264 164.796 239.767 164.886 240.278 164.961C240.79 165.037 241.215 164.784 241.553 164.204L244.137 159.765C244.298 159.489 244.254 159.278 244.006 159.133C243.623 158.836 243.321 158.623 243.1 158.495C242.879 158.366 242.641 158.265 242.388 158.191C241.964 158.092 241.479 158.162 240.933 158.399C240.388 158.637 239.477 159.088 238.201 159.752C237.193 160.276 236.167 160.734 235.124 161.126C234.081 161.519 233.09 161.757 232.153 161.84C231.232 161.896 230.412 161.715 229.693 161.296ZM242.881 156.867C243.545 157.254 244.094 157.518 244.53 157.661C245.009 157.792 245.329 157.719 245.49 157.442L248.147 152.88C248.517 152.244 248.579 151.724 248.332 151.321C248.129 150.907 247.586 150.442 246.701 149.927C245.843 149.427 244.939 149.327 243.988 149.625C243.053 149.895 242.336 150.459 241.837 151.316C241.289 152.256 241.081 153.282 241.21 154.395C241.384 155.496 241.941 156.32 242.881 156.867Z" fill="#0A2239"/>
<path d="M266.539 185.767C265.119 184.673 264.092 183.358 263.459 181.82C262.825 180.283 262.605 178.68 262.799 177.012C263.038 175.338 263.723 173.765 264.856 172.295C265.675 171.23 266.679 170.346 267.865 169.644C269.077 168.962 270.385 168.495 271.79 168.244C273.195 167.993 274.59 168.017 275.975 168.316C277.38 168.59 278.666 169.176 279.832 170.073C281.303 171.206 282.348 172.576 282.968 174.184C283.613 175.811 283.829 177.472 283.615 179.165C283.447 180.853 282.836 182.381 281.782 183.75C280.649 185.221 279.246 186.362 277.572 187.173C275.923 188.003 274.142 188.349 272.23 188.21C270.338 188.045 268.441 187.231 266.539 185.767ZM268.216 185.24C269.078 185.904 269.978 186.335 270.917 186.532C271.855 186.73 272.798 186.607 273.744 186.165C274.497 185.816 275.247 185.262 275.992 184.503C276.738 183.744 277.394 182.997 277.96 182.262C278.897 181.045 279.567 179.703 279.969 178.236C280.417 176.763 280.508 175.359 280.243 174.025C280.023 172.684 279.368 171.594 278.278 170.755C277.593 170.228 276.884 169.864 276.15 169.662C275.462 169.455 274.665 169.468 273.759 169.699C272.764 169.943 271.839 170.463 270.984 171.258C270.129 172.054 269.351 172.908 268.648 173.821C267.691 175.063 267.002 176.431 266.58 177.923C266.178 179.39 266.096 180.781 266.336 182.097C266.575 183.412 267.202 184.46 268.216 185.24Z" fill="#0A2239"/>
<path d="M284.3 200.806C283.115 199.731 282.305 198.456 281.871 196.982C281.483 195.506 281.477 193.988 281.854 192.43C282.277 190.869 283.08 189.436 284.263 188.133C285.66 186.593 287.261 185.496 289.064 184.842C290.891 184.21 292.707 184.042 294.511 184.34C296.336 184.614 297.936 185.374 299.311 186.622C300.851 188.019 301.825 189.66 302.234 191.543C302.325 192.014 302.263 192.368 302.048 192.605C301.876 192.795 301.599 192.933 301.218 193.019C300.837 193.106 300.453 193.125 300.066 193.075C299.7 193.003 299.41 192.869 299.197 192.676C299.078 192.568 298.992 192.425 298.938 192.247C298.905 192.044 298.861 191.831 298.805 191.607C298.649 190.731 298.413 189.825 298.096 188.889C297.778 187.953 297.406 187.292 296.98 186.905C295.819 185.851 294.376 185.536 292.652 185.959C290.974 186.38 289.339 187.468 287.747 189.221C286.737 190.335 286.06 191.557 285.716 192.888C285.397 194.24 285.403 195.542 285.736 196.795C286.092 198.069 286.768 199.157 287.763 200.061C288.451 200.684 289.14 201.115 289.831 201.353C290.544 201.568 291.442 201.649 292.527 201.596C292.618 201.592 292.709 201.61 292.802 201.651C292.916 201.668 292.997 201.698 293.044 201.741C293.305 201.978 293.285 202.262 292.983 202.594C292.854 202.736 292.657 202.859 292.39 202.962C292.168 203.064 291.855 203.147 291.45 203.212C290.641 203.342 289.814 203.348 288.971 203.23C288.148 203.089 287.342 202.811 286.551 202.396C285.785 202.003 285.034 201.473 284.3 200.806Z" fill="#0A2239"/>
<path d="M294.107 209.34C293.997 209.224 293.855 209.028 293.681 208.752C293.506 208.521 293.489 208.339 293.628 208.207C293.814 208.031 294.018 207.991 294.242 208.088C294.511 208.185 294.769 208.294 295.014 208.414C295.461 208.652 295.897 208.856 296.322 209.025C296.793 209.196 297.272 209.05 297.76 208.588L307.302 199.537C307.766 199.096 307.981 198.694 307.945 198.331C307.933 197.946 307.808 197.535 307.57 197.099C307.464 196.847 307.369 196.584 307.285 196.311C307.224 196.06 307.275 195.858 307.437 195.704C307.577 195.571 307.746 195.587 307.945 195.751C308.168 195.893 308.345 196.033 308.477 196.172C308.918 196.637 309.215 196.973 309.367 197.18C309.542 197.411 309.695 197.642 309.825 197.872C309.978 198.079 310.241 198.381 310.616 198.775C311.012 199.193 311.31 199.484 311.509 199.648C311.732 199.789 311.954 199.954 312.175 200.141C312.397 200.328 312.717 200.642 313.135 201.083C313.245 201.199 313.376 201.383 313.528 201.636C313.725 201.89 313.754 202.084 313.615 202.216C313.452 202.37 313.236 202.398 312.967 202.301C312.72 202.226 312.474 202.129 312.228 202.009C311.805 201.749 311.368 201.568 310.918 201.466C310.513 201.364 310.079 201.534 309.614 201.974L306.097 205.311C306.004 205.399 305.968 205.5 305.987 205.613C306.052 205.728 306.129 205.81 306.219 205.857C306.533 205.956 306.944 206.25 307.451 206.739C307.982 207.205 308.402 207.601 308.71 207.926C309.085 208.321 309.456 208.851 309.823 209.517C310.213 210.162 310.488 210.893 310.648 211.712C310.852 212.532 310.853 213.37 310.649 214.225C310.446 215.08 309.949 215.881 309.16 216.63C308.138 217.599 307.038 218.113 305.859 218.173C304.726 218.233 303.591 217.943 302.453 217.302C301.316 216.661 300.24 215.806 299.227 214.738C298.809 214.297 298.502 213.927 298.306 213.627C298.087 213.35 297.879 213.084 297.682 212.83C297.507 212.599 297.221 212.275 296.825 211.857C296.451 211.462 296.142 211.16 295.898 210.949C295.655 210.739 295.4 210.517 295.135 210.284C294.868 210.096 294.526 209.781 294.107 209.34ZM300.533 214.161C301.282 214.951 302.209 215.417 303.314 215.559C304.443 215.679 305.518 215.255 306.539 214.286C307.7 213.185 308.283 212.102 308.289 211.039C308.316 209.998 307.801 208.921 306.744 207.806C306.15 207.18 305.65 206.816 305.245 206.714C304.975 206.662 304.724 206.723 304.493 206.898C304.286 207.051 304.135 207.172 304.042 207.26L300.421 210.695C299.863 211.224 299.644 211.829 299.762 212.511C299.879 213.193 300.136 213.744 300.533 214.161Z" fill="#0A2239"/>
<path d="M305.786 243.075C305.425 242.586 305.221 242.041 305.174 241.439C305.101 240.856 305.348 240.355 305.915 239.937C306.378 239.595 306.866 239.393 307.378 239.333C307.884 239.317 308.289 239.516 308.593 239.927C308.802 240.211 308.963 240.509 309.076 240.824C309.208 241.164 309.35 241.437 309.502 241.643C309.616 241.797 309.75 241.897 309.903 241.943C310.05 242.034 310.238 242.074 310.469 242.063C311.141 242.004 311.958 241.897 312.919 241.744C313.899 241.617 314.97 241.423 316.13 241.163C317.309 240.928 318.521 240.63 319.765 240.268C320.054 240.174 320.378 239.994 320.739 239.728C320.945 239.575 321.128 239.42 321.289 239.261C321.476 239.083 321.628 238.912 321.744 238.746L329.748 225.911C330.078 225.389 330.297 224.849 330.403 224.293C330.554 223.744 330.539 223.238 330.357 222.776C330.282 222.513 330.22 222.241 330.17 221.959C330.14 221.703 330.215 221.508 330.395 221.375C330.55 221.261 330.707 221.284 330.865 221.445C331.069 221.613 331.218 221.762 331.313 221.89C331.694 222.405 331.956 222.788 332.102 223.038C332.266 223.315 332.399 223.575 332.499 223.819C332.645 224.07 332.879 224.414 333.202 224.851C333.545 225.315 333.814 225.652 334.011 225.865C334.234 226.059 334.453 226.275 334.669 226.513C334.885 226.751 335.183 227.128 335.563 227.643C335.677 227.797 335.762 227.993 335.818 228.23C335.899 228.448 335.863 228.615 335.709 228.729C335.528 228.862 335.244 228.853 334.854 228.703C334.51 228.56 334.236 228.404 334.032 228.237C333.765 228.036 333.481 227.948 333.18 227.971C332.904 227.976 332.587 228.111 332.226 228.377C332.072 228.491 331.907 228.672 331.733 228.921C331.584 229.15 331.464 229.338 331.373 229.484L325.962 238.316C325.846 238.481 325.825 238.616 325.901 238.719C325.959 238.796 326.083 238.803 326.276 238.741L335.309 236.185C335.546 236.129 335.825 236.023 336.146 235.865C336.512 235.714 336.785 235.572 336.966 235.439C337.455 235.078 337.732 234.753 337.798 234.466C337.909 234.185 337.93 233.891 337.862 233.583C337.813 233.301 337.761 232.961 337.706 232.564C337.697 232.174 337.782 231.912 337.962 231.779C338.116 231.665 338.286 231.679 338.47 231.821C338.7 231.97 338.862 232.108 338.957 232.237C339.223 232.598 339.451 232.986 339.64 233.404C339.873 233.828 340.256 234.4 340.789 235.121C341.15 235.61 341.42 235.948 341.597 236.135C341.82 236.328 342.001 236.493 342.141 236.628C342.281 236.764 342.455 236.973 342.665 237.256C342.76 237.385 342.848 237.558 342.93 237.777C343.056 238.001 343.042 238.171 342.887 238.285C342.707 238.418 342.49 238.42 342.235 238.29C341.999 238.186 341.766 238.059 341.537 237.91C341.148 237.6 340.535 237.417 339.697 237.359C338.885 237.283 338.075 237.345 337.267 237.543L320.879 241.533C320.783 241.565 320.344 241.67 319.562 241.85C318.799 242.056 317.846 242.302 316.705 242.588C315.564 242.874 314.33 243.169 313.003 243.473C311.695 243.803 310.435 244.117 309.223 244.415C308.537 244.564 307.904 244.515 307.323 244.267C306.717 244.039 306.204 243.641 305.786 243.075Z" fill="#0A2239"/>
<path d="M339.918 271.445C339.047 269.879 338.626 268.264 338.653 266.602C338.68 264.939 339.113 263.38 339.952 261.925C340.834 260.482 342.086 259.31 343.708 258.408C344.883 257.755 346.154 257.341 347.521 257.166C348.904 257.02 350.291 257.109 351.68 257.435C353.07 257.761 354.341 258.336 355.494 259.159C356.676 259.966 357.624 261.013 358.34 262.3C359.242 263.922 359.659 265.594 359.591 267.316C359.539 269.066 359.079 270.676 358.213 272.147C357.39 273.629 356.223 274.791 354.713 275.631C353.091 276.532 351.35 277.024 349.492 277.106C347.649 277.215 345.877 276.827 344.177 275.942C342.504 275.042 341.085 273.543 339.918 271.445ZM341.667 271.626C342.195 272.577 342.851 273.329 343.635 273.882C344.418 274.435 345.332 274.696 346.377 274.664C347.206 274.642 348.114 274.43 349.099 274.029C350.084 273.628 350.982 273.201 351.793 272.75C353.136 272.004 354.282 271.037 355.233 269.849C356.227 268.674 356.867 267.421 357.152 266.091C357.481 264.773 357.311 263.513 356.643 262.31C356.223 261.555 355.716 260.94 355.122 260.464C354.572 260.001 353.835 259.697 352.912 259.551C351.901 259.381 350.846 259.492 349.746 259.884C348.646 260.276 347.593 260.752 346.586 261.311C345.215 262.074 344.041 263.056 343.062 264.259C342.112 265.447 341.486 266.692 341.185 267.995C340.884 269.297 341.045 270.507 341.667 271.626Z" fill="#0A2239"/>
<path d="M347.499 284.778C347.42 284.603 347.335 284.378 347.246 284.102C347.169 283.856 347.233 283.687 347.437 283.594C347.67 283.489 347.877 283.518 348.057 283.683C348.279 283.863 348.487 284.05 348.68 284.244C349.023 284.615 349.346 284.978 349.647 285.333C349.978 285.676 350.449 285.708 351.061 285.431L362.911 280.066C363.582 279.762 363.99 279.384 364.137 278.931C364.312 278.466 364.359 277.988 364.278 277.497C364.26 277.225 364.256 276.945 364.267 276.659C364.291 276.402 364.405 276.228 364.61 276.135C364.843 276.03 365.019 276.108 365.138 276.371C365.299 276.649 365.406 276.846 365.458 276.963C365.722 277.546 365.899 277.975 365.989 278.251C366.108 278.513 366.205 278.768 366.282 279.014C366.358 279.26 366.495 279.602 366.693 280.039C366.878 280.448 367.058 280.805 367.232 281.113C367.406 281.42 367.6 281.772 367.814 282.166C368.028 282.561 368.267 283.05 368.531 283.633C369.534 285.849 370.011 287.793 369.961 289.467C369.94 291.128 369.2 292.288 367.743 292.948C366.577 293.476 365.499 293.577 364.509 293.253C363.548 292.915 362.74 292.333 362.084 291.505C362.002 291.402 361.94 291.342 361.898 291.326C361.855 291.31 361.845 291.403 361.865 291.604C362.029 292.198 362.095 292.888 362.065 293.674C362.035 294.461 361.827 295.205 361.442 295.906C361.099 296.623 360.505 297.173 359.66 297.556C358.29 298.176 357.046 298.3 355.929 297.928C354.841 297.542 353.853 296.795 352.965 295.687C352.119 294.594 351.34 293.261 350.627 291.687C350.495 291.395 350.314 290.88 350.085 290.141C349.856 289.402 349.589 288.697 349.286 288.026C348.995 287.385 348.656 286.713 348.268 286.011C347.922 285.324 347.662 284.827 347.488 284.52C347.284 284.226 347.288 284.312 347.499 284.778ZM352.268 291.471C352.928 292.928 353.728 293.919 354.667 294.442C355.649 294.981 356.737 294.98 357.932 294.439C359.419 293.766 360.186 292.821 360.233 291.606C360.28 290.39 359.953 289.01 359.254 287.465C359.043 286.999 358.785 286.623 358.481 286.34C358.19 286.085 357.826 286.057 357.388 286.255L353.366 288.076C352.637 288.406 352.169 288.846 351.961 289.397C351.796 289.963 351.899 290.655 352.268 291.471ZM360.368 286.434C361.199 288.27 362.114 289.437 363.111 289.934C364.151 290.446 365.109 290.505 365.983 290.109C366.829 289.726 367.404 289.097 367.71 288.22C368.058 287.36 367.836 286.056 367.045 284.306C366.675 283.49 366.3 283.01 365.918 282.867C365.566 282.71 365.157 282.737 364.691 282.948L360.887 284.671C360.333 284.922 360.085 285.227 360.142 285.587C360.213 285.977 360.288 286.259 360.368 286.434Z" fill="#0A2239"/>
<path d="M356.836 308.082C356.639 307.541 356.648 306.908 356.861 306.184C357.085 305.489 357.427 304.837 357.886 304.228C358.356 303.648 358.862 303.26 359.403 303.063C360.366 302.713 361.21 302.695 361.938 303.009C362.665 303.324 363.456 303.955 364.312 304.904L367.88 308.816C368.339 309.33 368.676 309.6 368.889 309.624C369.113 309.679 369.531 309.612 370.144 309.423L373.064 308.463C373.856 308.209 374.451 307.738 374.847 307.049C375.255 306.39 375.3 305.624 374.983 304.752C374.819 304.301 374.579 303.877 374.265 303.481C373.951 303.084 373.618 302.78 373.268 302.566C373.083 302.43 372.858 302.375 372.596 302.402C372.333 302.43 372.067 302.493 371.796 302.591C371.676 302.635 371.541 302.684 371.39 302.739C371.251 302.823 371.121 302.888 371.001 302.931C370.85 302.986 370.569 302.867 370.156 302.575C369.784 302.301 369.405 301.962 369.02 301.558C368.675 301.172 368.448 300.829 368.339 300.528C368.284 300.378 368.271 300.247 368.298 300.135C368.356 300.012 368.444 299.928 368.565 299.884C369.046 299.709 369.612 299.674 370.262 299.778C370.954 299.901 371.644 300.161 372.333 300.557C373.216 301.019 374.046 301.568 374.823 302.205C375.599 302.842 376.265 303.503 376.82 304.186C377.375 304.87 377.762 305.512 377.98 306.114C378.374 307.196 378.306 308.225 377.776 309.202C377.286 310.197 376.465 310.887 375.311 311.273L364.403 314.984C363.76 315.184 363.298 315.505 363.016 315.948C362.746 316.421 362.698 316.898 362.873 317.379C363.146 318.131 363.514 318.627 363.976 318.868C364.181 318.963 364.3 319.056 364.333 319.147C364.388 319.297 364.386 319.434 364.329 319.557C364.271 319.68 364.168 319.769 364.017 319.823C363.686 319.944 363.295 319.898 362.844 319.688C362.188 319.382 361.621 318.992 361.142 318.519C360.645 318.087 360.309 317.631 360.134 317.149C359.63 315.766 360.013 314.384 361.282 313.003L361.232 312.868C360.06 312.171 359.129 311.437 358.44 310.666C357.721 309.906 357.186 309.045 356.836 308.082ZM359.772 309.415C359.991 310.017 360.267 310.495 360.601 310.85C360.965 311.195 361.372 311.472 361.823 311.683C362.028 311.779 362.267 311.828 362.541 311.831C362.855 311.852 363.303 311.774 363.886 311.597L366.129 310.883C366.471 310.793 366.706 310.69 366.834 310.576C366.963 310.461 366.994 310.313 366.929 310.133C366.907 310.073 366.853 309.973 366.769 309.833C366.684 309.694 366.553 309.52 366.375 309.312C365.224 307.926 364.218 307.032 363.357 306.631C362.536 306.248 361.871 306.149 361.359 306.335C360.578 306.62 360.058 307.064 359.801 307.668C359.585 308.292 359.576 308.874 359.772 309.415Z" fill="#0A2239"/>
<path d="M362.922 325.868C362.591 324.664 362.601 323.733 362.95 323.072C363.3 322.412 363.753 322.006 364.308 321.853C364.833 321.709 365.327 321.756 365.79 321.994C366.293 322.254 366.625 322.677 366.786 323.264C366.888 323.634 366.876 323.953 366.75 324.219C366.632 324.517 366.511 324.799 366.385 325.066C366.304 325.254 366.219 325.427 366.129 325.585C366.079 325.764 366.079 325.947 366.13 326.132C366.257 326.595 366.773 326.901 367.676 327.051C368.62 327.224 369.778 327.271 371.15 327.193C372.522 327.114 373.955 326.953 375.447 326.71C376.94 326.466 378.304 326.174 379.538 325.835C380.433 325.59 380.944 325.217 381.073 324.717C381.201 324.217 381.204 323.503 381.082 322.574C381.079 322.442 381.125 322.247 381.22 321.989C381.354 321.753 381.529 321.605 381.745 321.546C381.93 321.495 382.123 321.592 382.322 321.835C382.561 322.102 382.693 322.281 382.719 322.374C382.88 322.96 382.968 323.4 382.982 323.695C383.028 323.981 383.122 324.387 383.266 324.911L385.922 334.585C386.092 335.203 386.23 335.646 386.337 335.915C386.484 336.207 386.637 336.646 386.798 337.232C386.824 337.324 386.797 337.531 386.719 337.851C386.681 338.193 386.569 338.39 386.383 338.441C386.167 338.5 385.941 338.463 385.706 338.328C385.5 338.186 385.361 338.041 385.288 337.895C384.922 337.166 384.507 336.683 384.044 336.445C383.619 336.23 382.775 336.296 381.51 336.643L370.493 339.668C369.876 339.837 369.502 340.106 369.371 340.474C369.279 340.864 369.219 341.312 369.192 341.817C369.167 342.089 369.123 342.35 369.058 342.6C369.034 342.872 368.898 343.042 368.651 343.11C368.466 343.161 368.328 343.083 368.238 342.875C368.117 342.676 368.031 342.484 367.98 342.299C367.819 341.713 367.723 341.241 367.692 340.885C367.638 340.568 367.588 340.266 367.543 339.98C367.497 339.694 367.398 339.273 367.246 338.717C367.102 338.193 366.972 337.781 366.856 337.48C366.741 337.18 366.621 336.865 366.497 336.534C366.351 336.242 366.197 335.803 366.036 335.217C365.985 335.032 365.961 334.823 365.963 334.59C365.935 334.365 366.013 334.228 366.198 334.177C366.445 334.109 366.645 334.17 366.796 334.361C366.988 334.574 367.163 334.791 367.324 335.013C367.605 335.433 367.893 335.819 368.189 336.169C368.515 336.511 368.987 336.597 369.604 336.427L382.009 333.022C382.256 332.954 382.602 332.826 383.048 332.637C383.494 332.448 383.666 332.168 383.564 331.798L382.433 327.679C382.323 327.277 382.028 327.11 381.548 327.175C381.068 327.24 380.705 327.307 380.458 327.375C379.162 327.73 377.768 328.03 376.275 328.274C374.791 328.549 373.297 328.727 371.793 328.808C370.328 328.912 368.961 328.889 367.692 328.739C366.454 328.581 365.407 328.272 364.55 327.81C363.693 327.348 363.15 326.701 362.922 325.868Z" fill="#0A2239"/>
<path d="M369.243 351.396C369.136 350.83 369.246 350.206 369.573 349.526C369.906 348.876 370.348 348.288 370.9 347.76C371.457 347.264 372.019 346.962 372.585 346.855C373.591 346.664 374.428 346.783 375.095 347.21C375.762 347.638 376.441 348.388 377.133 349.462L380.025 353.898C380.395 354.479 380.684 354.799 380.89 354.858C381.103 354.948 381.527 354.949 382.161 354.861L385.198 354.384C386.021 354.261 386.684 353.891 387.186 353.275C387.694 352.69 387.862 351.942 387.689 351.03C387.6 350.559 387.432 350.102 387.185 349.66C386.939 349.218 386.66 348.864 386.349 348.597C386.188 348.432 385.975 348.342 385.712 348.327C385.448 348.312 385.175 348.331 384.892 348.384C384.766 348.408 384.625 348.435 384.468 348.465C384.316 348.526 384.178 348.568 384.052 348.592C383.895 348.622 383.636 348.459 383.276 348.104C382.953 347.774 382.634 347.379 382.318 346.917C382.04 346.481 381.872 346.106 381.812 345.792C381.782 345.635 381.79 345.503 381.835 345.397C381.912 345.285 382.013 345.217 382.138 345.193C382.642 345.098 383.206 345.154 383.831 345.361C384.494 345.594 385.134 345.961 385.75 346.463C386.547 347.061 387.277 347.737 387.941 348.491C388.605 349.245 389.156 350.003 389.594 350.767C390.031 351.531 390.31 352.228 390.429 352.856C390.643 353.988 390.41 354.993 389.729 355.871C389.086 356.775 388.164 357.324 386.963 357.518L375.6 359.425C374.934 359.519 374.426 359.762 374.077 360.153C373.733 360.577 373.609 361.04 373.705 361.543C373.853 362.329 374.136 362.878 374.554 363.19C374.741 363.317 374.843 363.428 374.861 363.522C374.891 363.68 374.867 363.814 374.791 363.926C374.714 364.039 374.598 364.11 374.44 364.139C374.095 364.205 373.716 364.097 373.305 363.817C372.706 363.409 372.209 362.933 371.813 362.39C371.392 361.883 371.133 361.378 371.038 360.875C370.764 359.429 371.364 358.127 372.839 356.968L372.812 356.827C371.766 355.95 370.966 355.076 370.41 354.204C369.823 353.338 369.434 352.402 369.243 351.396ZM371.927 353.184C372.046 353.813 372.241 354.329 372.513 354.734C372.817 355.132 373.174 355.472 373.585 355.752C373.772 355.879 374 355.967 374.27 356.013C374.577 356.085 375.032 356.081 375.635 355.999L377.964 355.656C378.316 355.622 378.564 355.559 378.71 355.466C378.855 355.373 378.91 355.233 378.874 355.044C378.862 354.981 378.825 354.874 378.764 354.723C378.703 354.571 378.601 354.379 378.46 354.145C377.547 352.592 376.698 351.548 375.912 351.012C375.164 350.503 374.523 350.298 373.989 350.4C373.171 350.554 372.587 350.909 372.236 351.464C371.923 352.045 371.82 352.618 371.927 353.184Z" fill="#0A2239"/>
</svg>
