<svg width="427" height="321" viewBox="0 0 427 321" fill="none" xmlns="http://www.w3.org/2000/svg">
<path d="M96.0974 296.049C95.998 296.453 95.8555 296.764 95.67 296.982C95.5156 297.207 95.3452 297.297 95.1588 297.251C94.848 297.175 94.7218 296.617 94.7802 295.576C94.8533 294.342 94.6834 293.493 94.2704 293.029C93.865 292.533 93.103 292.148 91.9844 291.873L70.9173 286.687C69.8297 286.419 69.0379 286.356 68.5417 286.498C68.022 286.6 67.5081 287.215 67 288.343C66.5611 289.322 66.1553 289.766 65.7824 289.674C65.596 289.628 65.4829 289.485 65.4432 289.245C65.3725 288.997 65.3945 288.639 65.5092 288.173C65.7157 287.334 65.8919 286.686 66.0377 286.227C66.1835 285.769 66.3217 285.341 66.4522 284.945C66.5516 284.541 66.6778 284.029 66.8308 283.407C66.9914 282.755 67.1214 282.226 67.2209 281.822C67.2969 281.38 67.3767 280.922 67.4604 280.448C67.5517 279.943 67.7006 279.271 67.9071 278.432C68.1289 277.531 68.4418 277.13 68.8458 277.23C69.0633 277.283 69.2036 277.45 69.2667 277.729C69.3298 278.008 69.3429 278.423 69.3061 278.974C69.2406 280.177 69.4263 281.096 69.8632 281.731C70.2767 282.327 70.934 282.736 71.8351 282.958L81.017 285.218C81.2035 285.264 81.3469 285.217 81.4473 285.077C81.5166 284.929 81.5665 284.793 81.5971 284.669L85.8537 267.377C85.9072 267.16 85.7476 267.005 85.3747 266.913L76.286 264.676C75.4471 264.47 74.6944 264.515 74.028 264.812C73.3616 265.11 72.7744 265.822 72.2662 266.949C72.0429 267.454 71.8386 267.816 71.6531 268.034C71.4676 268.252 71.2661 268.334 71.0486 268.281C70.6447 268.181 70.5536 267.681 70.7754 266.78C70.9819 265.941 71.1658 265.261 71.3269 264.741C71.4956 264.189 71.6567 263.668 71.8102 263.179C71.9325 262.682 72.0779 262.091 72.2461 261.408C72.3838 260.848 72.4909 260.413 72.5674 260.103C72.6128 259.784 72.6697 259.419 72.7381 259.008C72.8064 258.596 72.9439 257.971 73.1504 257.132C73.2575 256.697 73.3999 256.386 73.5778 256.199C73.7322 255.973 73.9026 255.884 74.089 255.929C74.4619 256.021 74.6153 256.603 74.5494 257.674C74.4839 258.877 74.6846 259.668 75.1517 260.047C75.6187 260.425 76.3028 260.726 77.2039 260.947L98.271 266.133C99.4207 266.416 100.279 266.479 100.845 266.322C101.418 266.134 101.955 265.491 102.456 264.395C102.887 263.447 103.258 263.011 103.569 263.087C103.755 263.133 103.864 263.292 103.896 263.563C103.959 263.843 103.941 264.184 103.842 264.588C103.635 265.427 103.444 266.072 103.267 266.523C103.121 266.981 102.983 267.409 102.852 267.805C102.722 268.201 102.576 268.726 102.416 269.378C102.255 270.031 102.137 270.578 102.061 271.021C101.992 271.432 101.912 271.891 101.821 272.395C101.761 272.908 101.627 273.584 101.421 274.423C101.322 274.826 101.179 275.137 100.994 275.355C100.839 275.581 100.669 275.671 100.482 275.625C100.265 275.572 100.136 275.425 100.097 275.184C100.065 274.913 100.067 274.501 100.104 273.95C100.162 272.91 99.996 272.045 99.6054 271.356C99.1914 270.628 98.4873 270.141 97.493 269.896L88.4043 267.659C88.2489 267.621 88.0935 267.583 87.9382 267.544C87.7828 267.506 87.686 267.565 87.6478 267.72L83.265 285.525C83.2268 285.68 83.3785 285.8 83.7203 285.884L92.576 288.064C93.5392 288.301 94.4661 288.15 95.3567 287.611C96.2162 287.065 96.8693 286.286 97.3157 285.276C97.539 284.771 97.724 284.421 97.8708 284.226C98.0252 284.001 98.2111 283.914 98.4286 283.968C98.6151 284.014 98.7243 284.173 98.7563 284.444C98.8194 284.723 98.8013 285.065 98.7018 285.469C98.4953 286.308 98.2921 286.999 98.0923 287.543C97.9312 288.064 97.7739 288.569 97.6205 289.058C97.467 289.548 97.3023 290.15 97.1264 290.865C96.9658 291.517 96.8436 292.08 96.76 292.554C96.684 292.997 96.5965 293.486 96.4975 294.022C96.4373 294.534 96.3039 295.21 96.0974 296.049Z" fill="#0A2239"/>
<path d="M107.293 258.483C107.084 259.019 106.66 259.49 106.021 259.893C105.395 260.267 104.708 260.531 103.96 260.686C103.224 260.811 102.588 260.768 102.051 260.559C101.098 260.187 100.451 259.642 100.113 258.926C99.7738 258.21 99.5961 257.213 99.5795 255.936L99.4818 250.642C99.4761 249.952 99.4012 249.528 99.2573 249.369C99.125 249.18 98.7665 248.954 98.182 248.691L95.3552 247.485C94.5918 247.153 93.8338 247.114 93.0812 247.37C92.3403 247.596 91.8011 248.142 91.4637 249.006C91.2891 249.453 91.1891 249.929 91.1636 250.435C91.1381 250.94 91.1864 251.388 91.3086 251.779C91.358 252.005 91.4903 252.194 91.7055 252.347C91.9207 252.499 92.1624 252.628 92.4307 252.733C92.55 252.779 92.6841 252.832 92.8331 252.89C92.9938 252.918 93.1338 252.956 93.253 253.002C93.4021 253.06 93.5351 253.336 93.6521 253.828C93.751 254.279 93.8116 254.783 93.8341 255.342C93.8384 255.859 93.7824 256.266 93.666 256.564C93.6079 256.713 93.5315 256.821 93.437 256.887C93.3126 256.942 93.1909 256.946 93.0716 256.899C92.5947 256.713 92.1461 256.366 91.7259 255.858C91.2875 255.309 90.9404 254.659 90.6845 253.906C90.3262 252.976 90.0656 252.016 89.9028 251.025C89.74 250.034 89.6758 249.098 89.71 248.218C89.7443 247.339 89.8778 246.601 90.1105 246.004C90.5294 244.931 91.2602 244.203 92.3029 243.82C93.3274 243.396 94.4002 243.419 95.5213 243.891L106.165 248.304C106.78 248.578 107.339 248.642 107.843 248.495C108.358 248.318 108.709 247.992 108.895 247.515C109.186 246.769 109.238 246.154 109.049 245.668C108.958 245.461 108.93 245.313 108.965 245.223C109.024 245.074 109.115 244.972 109.239 244.918C109.363 244.863 109.5 244.865 109.649 244.923C109.977 245.051 110.241 245.343 110.441 245.799C110.732 246.462 110.901 247.129 110.948 247.801C111.037 248.453 110.988 249.018 110.802 249.495C110.266 250.867 109.067 251.652 107.202 251.852L107.15 251.986C107.571 253.284 107.786 254.45 107.794 255.484C107.833 256.529 107.666 257.529 107.293 258.483ZM105.967 255.544C106.2 254.947 106.308 254.406 106.292 253.919C106.247 253.42 106.124 252.942 105.924 252.487C105.833 252.279 105.686 252.084 105.482 251.902C105.261 251.678 104.872 251.44 104.318 251.19L102.162 250.245C101.845 250.087 101.601 250.009 101.429 250.01C101.256 250.012 101.135 250.102 101.065 250.281C101.042 250.34 101.016 250.451 100.988 250.611C100.96 250.772 100.944 250.989 100.94 251.262C100.89 253.063 101.055 254.399 101.437 255.269C101.8 256.098 102.235 256.612 102.742 256.809C103.517 257.112 104.201 257.121 104.793 256.837C105.366 256.511 105.758 256.08 105.967 255.544Z" fill="#0A2239"/>
<path d="M121.945 226.735C121.654 227.305 121.299 227.788 120.88 228.185C120.462 228.582 119.951 228.914 119.347 229.18C118.758 229.418 118.041 229.626 117.195 229.805C116.363 229.955 115.382 230.082 114.25 230.186C112.976 230.289 111.894 230.365 111.007 230.415C110.119 230.464 109.366 230.636 108.748 230.931C108.116 231.183 107.582 231.736 107.145 232.591C106.999 232.876 107.054 233.084 107.311 233.215L113.038 236.143C113.636 236.449 114.13 236.432 114.519 236.092C114.909 235.752 115.284 235.405 115.645 235.05C115.847 234.866 116.056 234.703 116.272 234.562C116.474 234.378 116.689 234.344 116.917 234.461C117.116 234.563 117.157 234.763 117.04 235.063C116.938 235.334 116.857 235.526 116.799 235.64C116.522 236.182 116.275 236.594 116.058 236.879C115.869 237.178 115.688 237.462 115.513 237.733C115.354 237.974 115.143 238.352 114.881 238.865C114.633 239.349 114.451 239.741 114.333 240.04C114.216 240.34 114.092 240.654 113.96 240.982C113.871 241.296 113.681 241.738 113.39 242.307C113.332 242.421 113.216 242.614 113.041 242.884C112.882 243.126 112.702 243.196 112.503 243.094C112.275 242.977 112.169 242.797 112.186 242.554C112.188 242.268 112.205 241.989 112.236 241.717C112.312 241.217 112.395 240.739 112.485 240.281C112.547 239.81 112.278 239.421 111.68 239.115L100.098 233.193C99.4711 232.873 98.9209 232.789 98.4472 232.942C97.9736 233.095 97.5705 233.357 97.238 233.726C97.036 233.91 96.8197 234.087 96.5892 234.257C96.3733 234.398 96.1656 234.417 95.9662 234.315C95.7382 234.199 95.6898 234.012 95.8209 233.756C95.9381 233.456 96.0258 233.25 96.0841 233.136C96.3754 232.566 96.5936 232.174 96.7387 231.961C96.8983 231.719 97.0648 231.499 97.2383 231.3C97.3834 231.087 97.5797 230.738 97.8274 230.253C98.0896 229.74 98.2647 229.363 98.3528 229.12C98.4123 228.863 98.4934 228.599 98.596 228.328C98.7132 228.029 98.9102 227.608 99.187 227.067C99.2452 226.953 99.3542 226.775 99.5138 226.533C99.6594 226.248 99.8462 226.164 100.074 226.281C100.274 226.383 100.372 226.577 100.369 226.863C100.381 227.121 100.372 227.385 100.341 227.657C100.236 228.143 100.275 228.63 100.457 229.118C100.61 229.591 101.014 229.996 101.669 230.331L105.644 232.363C105.786 232.436 105.908 232.444 106.009 232.388C106.095 232.288 106.168 232.182 106.226 232.068C106.969 230.615 107.16 229.328 106.798 228.209C106.45 227.061 105.937 225.99 105.259 224.996C104.878 224.406 104.483 223.844 104.072 223.311C103.677 222.749 103.345 222.203 103.078 221.671C102.797 221.096 102.645 220.515 102.621 219.928C102.613 219.312 102.776 218.677 103.111 218.022C103.49 217.281 103.959 216.856 104.518 216.746C105.063 216.594 105.549 216.627 105.977 216.845C106.432 217.078 106.759 217.389 106.956 217.777C107.153 218.165 107.149 218.559 106.945 218.958C106.799 219.243 106.503 219.54 106.057 219.851C105.625 220.134 105.336 220.417 105.191 220.702C105.001 221.073 104.955 221.409 105.053 221.71C105.165 221.983 105.305 222.306 105.473 222.68C105.614 222.967 105.882 223.392 106.278 223.954C106.688 224.487 107.076 225.063 107.443 225.681C107.809 226.3 108.033 226.882 108.114 227.426C108.141 227.584 108.191 227.663 108.262 227.664C108.305 227.65 108.384 227.636 108.499 227.623C109.788 227.491 110.984 227.402 112.086 227.355C113.16 227.293 114.17 227.216 115.115 227.124C116.19 226.991 117.179 226.778 118.083 226.485C118.959 226.178 119.772 225.678 120.523 224.983C120.826 224.671 121.114 224.459 121.387 224.347C121.631 224.22 121.868 224.215 122.095 224.332C122.266 224.419 122.357 224.699 122.367 225.171C122.392 225.615 122.251 226.136 121.945 226.735Z" fill="#0A2239"/>
<path d="M125.466 221.022C124.781 222.065 124.076 222.674 123.349 222.848C122.623 223.022 122.019 222.951 121.537 222.635C121.082 222.337 120.791 221.935 120.663 221.43C120.526 220.881 120.624 220.352 120.957 219.843C121.168 219.522 121.415 219.321 121.698 219.239C121.999 219.13 122.292 219.035 122.575 218.953C122.77 218.889 122.956 218.839 123.133 218.802C123.301 218.721 123.438 218.601 123.543 218.44C123.806 218.039 123.696 217.449 123.211 216.672C122.717 215.85 121.987 214.95 121.021 213.972C120.055 212.994 118.988 212.025 117.818 211.066C116.648 210.108 115.528 209.277 114.458 208.575C113.682 208.066 113.064 207.928 112.604 208.162C112.145 208.396 111.607 208.866 110.991 209.572C110.894 209.662 110.717 209.756 110.46 209.856C110.194 209.911 109.968 209.877 109.78 209.754C109.62 209.649 109.565 209.44 109.616 209.129C109.658 208.774 109.705 208.556 109.758 208.476C110.091 207.968 110.364 207.611 110.575 207.405C110.76 207.182 111.002 206.843 111.3 206.388L116.804 198C117.155 197.465 117.396 197.069 117.527 196.81C117.649 196.508 117.877 196.102 118.211 195.594C118.263 195.513 118.435 195.397 118.727 195.244C119.01 195.046 119.231 195 119.392 195.106C119.579 195.229 119.7 195.423 119.756 195.689C119.784 195.937 119.768 196.137 119.707 196.288C119.402 197.045 119.313 197.676 119.441 198.181C119.56 198.641 120.168 199.232 121.264 199.951L130.816 206.219C131.351 206.57 131.8 206.673 132.163 206.528C132.516 206.339 132.892 206.088 133.289 205.774C133.51 205.613 133.735 205.474 133.965 205.357C134.186 205.195 134.403 205.185 134.617 205.325C134.777 205.431 134.81 205.586 134.714 205.791C134.644 206.013 134.557 206.204 134.451 206.365C134.118 206.873 133.828 207.257 133.581 207.516C133.379 207.766 133.185 208.003 133.001 208.226C132.816 208.449 132.566 208.802 132.25 209.283C131.951 209.738 131.727 210.108 131.579 210.393C131.43 210.678 131.272 210.977 131.106 211.289C130.984 211.591 130.756 211.997 130.423 212.505C130.317 212.666 130.176 212.822 130 212.974C129.85 213.144 129.695 213.176 129.535 213.071C129.321 212.93 129.235 212.74 129.278 212.5C129.311 212.216 129.358 211.941 129.418 211.674C129.548 211.185 129.646 210.714 129.714 210.26C129.755 209.79 129.508 209.379 128.973 209.028L118.217 201.971C118.003 201.83 117.678 201.655 117.242 201.445C116.805 201.235 116.482 201.291 116.271 201.612L113.927 205.184C113.699 205.532 113.768 205.864 114.134 206.181C114.5 206.498 114.791 206.726 115.005 206.867C116.128 207.604 117.275 208.452 118.445 209.411C119.632 210.343 120.753 211.347 121.808 212.422C122.854 213.453 123.741 214.493 124.467 215.544C125.167 216.578 125.627 217.568 125.847 218.516C126.067 219.464 125.94 220.3 125.466 221.022Z" fill="#0A2239"/>
<path d="M143.942 195.424C142.8 196.805 141.45 197.786 139.891 198.366C138.333 198.946 136.723 199.11 135.063 198.859C133.398 198.562 131.85 197.823 130.42 196.641C129.384 195.785 128.535 194.751 127.875 193.541C127.235 192.307 126.813 190.983 126.611 189.57C126.408 188.157 126.481 186.764 126.827 185.39C127.149 183.996 127.779 182.731 128.717 181.597C129.899 180.166 131.305 179.169 132.933 178.605C134.582 178.016 136.249 177.858 137.934 178.129C139.614 178.356 141.121 179.02 142.453 180.12C143.884 181.303 144.975 182.745 145.728 184.446C146.501 186.123 146.785 187.914 146.58 189.82C146.35 191.706 145.47 193.574 143.942 195.424ZM143.474 193.729C144.167 192.891 144.628 192.006 144.858 191.075C145.088 190.144 144.998 189.198 144.588 188.237C144.265 187.472 143.738 186.704 143.005 185.932C142.273 185.161 141.549 184.48 140.834 183.888C139.65 182.91 138.331 182.194 136.879 181.741C135.423 181.243 134.023 181.104 132.68 181.322C131.333 181.496 130.221 182.113 129.344 183.173C128.794 183.839 128.405 184.536 128.179 185.262C127.948 185.943 127.933 186.74 128.133 187.653C128.342 188.656 128.83 189.598 129.595 190.48C130.361 191.362 131.188 192.17 132.076 192.903C133.285 193.902 134.627 194.638 136.104 195.112C137.557 195.565 138.944 195.694 140.267 195.5C141.589 195.306 142.658 194.716 143.474 193.729Z" fill="#0A2239"/>
<path d="M153.39 183.766C153.251 183.899 153.067 184.054 152.838 184.231C152.631 184.385 152.45 184.382 152.295 184.22C152.117 184.036 152.076 183.832 152.171 183.607C152.266 183.337 152.373 183.079 152.491 182.832C152.726 182.384 152.926 181.947 153.093 181.52C153.26 181.048 153.111 180.57 152.645 180.086L143.523 170.611C143.079 170.15 142.641 169.972 142.209 170.077C141.778 170.136 141.345 170.287 140.911 170.527C140.66 170.636 140.398 170.733 140.125 170.818C139.874 170.881 139.672 170.832 139.516 170.671C139.361 170.509 139.364 170.328 139.527 170.128C139.712 169.905 139.874 169.727 140.012 169.594C140.473 169.15 140.818 168.84 141.048 168.663C141.301 168.464 141.553 168.288 141.805 168.134C142.035 167.957 142.345 167.68 142.737 167.303C143.152 166.904 143.441 166.604 143.603 166.403C143.743 166.179 143.906 165.956 144.091 165.733C144.299 165.488 144.623 165.155 145.061 164.733C145.199 164.6 145.371 164.456 145.578 164.302C145.808 164.125 146 164.117 146.155 164.279C146.311 164.44 146.341 164.656 146.245 164.925C146.172 165.173 146.077 165.42 145.959 165.667C145.702 166.092 145.524 166.53 145.425 166.981C145.327 167.386 145.5 167.819 145.944 168.281L149.439 171.911C149.528 172.004 149.63 172.017 149.744 171.951C149.858 171.885 149.939 171.83 149.985 171.786L156.416 165.594C156.463 165.549 156.475 165.493 156.454 165.425C156.455 165.334 156.412 165.243 156.323 165.151L152.894 161.589C152.45 161.128 152.035 160.928 151.649 160.988C151.241 161.026 150.82 161.165 150.385 161.406C150.134 161.514 149.872 161.611 149.599 161.696C149.349 161.759 149.146 161.71 148.991 161.549C148.836 161.388 148.839 161.207 149.001 161.006C149.163 160.805 149.325 160.627 149.487 160.472C149.948 160.028 150.293 159.718 150.523 159.541C150.752 159.364 150.982 159.21 151.21 159.079C151.44 158.902 151.751 158.625 152.143 158.248C152.558 157.848 152.846 157.548 153.009 157.348C153.172 157.102 153.357 156.857 153.566 156.612C153.774 156.367 154.097 156.033 154.535 155.612C154.697 155.456 154.881 155.301 155.087 155.147C155.294 154.992 155.475 154.996 155.63 155.157C155.785 155.318 155.815 155.534 155.72 155.804C155.647 156.051 155.552 156.298 155.434 156.545C155.177 156.97 154.987 157.419 154.865 157.892C154.721 158.342 154.871 158.798 155.315 159.259L164.436 168.733C164.88 169.194 165.341 169.35 165.819 169.201C166.32 169.029 166.799 168.835 167.256 168.617C167.507 168.509 167.758 168.423 168.008 168.36C168.259 168.251 168.473 168.289 168.651 168.474C168.806 168.635 168.791 168.827 168.606 169.05C168.444 169.251 168.293 169.418 168.155 169.551C167.717 169.972 167.349 170.282 167.051 170.48C166.775 170.701 166.511 170.911 166.258 171.11C166.029 171.287 165.706 171.575 165.291 171.975C164.9 172.352 164.599 172.663 164.391 172.908C164.183 173.153 163.963 173.409 163.731 173.676C163.545 173.944 163.222 174.3 162.761 174.744C162.622 174.877 162.438 175.032 162.209 175.209C162.002 175.363 161.821 175.36 161.666 175.199C161.488 175.014 161.447 174.81 161.542 174.585C161.637 174.315 161.744 174.057 161.862 173.811C162.097 173.362 162.286 172.913 162.431 172.463C162.598 171.991 162.46 171.525 162.016 171.064L157.854 166.741C157.766 166.649 157.71 166.614 157.687 166.636C157.641 166.635 157.596 166.657 157.55 166.702L150.841 173.16C150.795 173.204 150.783 173.261 150.804 173.329C150.826 173.352 150.882 173.41 150.971 173.502L155.065 177.755C155.531 178.239 156.004 178.407 156.482 178.257C156.961 178.063 157.428 177.857 157.885 177.639C158.136 177.531 158.387 177.445 158.637 177.382C158.888 177.273 159.102 177.311 159.28 177.496C159.435 177.657 159.42 177.849 159.235 178.072C159.073 178.273 158.922 178.439 158.784 178.573C158.346 178.994 157.978 179.304 157.68 179.502C157.404 179.723 157.14 179.933 156.887 180.132C156.658 180.309 156.335 180.597 155.92 180.996C155.529 181.374 155.228 181.685 155.02 181.93C154.812 182.175 154.592 182.431 154.361 182.698C154.174 182.966 153.851 183.322 153.39 183.766Z" fill="#0A2239"/>
<path d="M172.197 166.279C172.044 166.396 171.843 166.528 171.594 166.676C171.371 166.806 171.191 166.781 171.056 166.602C170.901 166.398 170.884 166.191 171.005 165.979C171.131 165.722 171.268 165.478 171.414 165.247C171.699 164.829 171.95 164.418 172.165 164.014C172.387 163.565 172.295 163.073 171.889 162.537L163.941 152.058C163.554 151.548 163.14 151.32 162.699 151.374C162.263 151.382 161.816 151.481 161.356 151.669C161.094 151.747 160.823 151.813 160.541 151.865C160.285 151.899 160.09 151.826 159.954 151.648C159.819 151.469 159.844 151.29 160.028 151.11C160.239 150.91 160.42 150.752 160.573 150.636C161.083 150.25 161.462 149.982 161.711 149.833C161.985 149.665 162.257 149.52 162.525 149.397C162.774 149.248 163.115 149.01 163.548 148.681C164.007 148.333 164.329 148.069 164.513 147.889C164.679 147.683 164.867 147.48 165.077 147.281C165.312 147.062 165.672 146.769 166.157 146.401C166.31 146.285 166.498 146.163 166.721 146.033C166.97 145.885 167.162 145.9 167.297 146.078C167.433 146.257 167.437 146.474 167.311 146.731C167.209 146.968 167.086 147.203 166.94 147.434C166.635 147.826 166.407 148.24 166.255 148.676C166.11 149.067 166.231 149.518 166.618 150.028L169.664 154.043C169.741 154.145 169.84 154.17 169.962 154.119C170.083 154.067 170.169 154.021 170.22 153.983L177.333 148.588C177.384 148.549 177.403 148.494 177.39 148.424C177.402 148.334 177.37 148.239 177.293 148.137L174.305 144.197C173.918 143.687 173.53 143.44 173.139 143.455C172.73 143.444 172.295 143.533 171.835 143.721C171.573 143.799 171.302 143.865 171.02 143.917C170.764 143.951 170.569 143.878 170.433 143.7C170.298 143.521 170.323 143.342 170.507 143.162C170.692 142.982 170.874 142.824 171.052 142.689C171.562 142.302 171.941 142.034 172.19 141.886C172.439 141.737 172.685 141.611 172.927 141.507C173.176 141.359 173.517 141.12 173.951 140.791C174.41 140.443 174.731 140.179 174.916 139.999C175.107 139.774 175.32 139.552 175.556 139.333C175.791 139.114 176.151 138.821 176.636 138.454C176.814 138.318 177.015 138.186 177.238 138.057C177.462 137.928 177.641 137.952 177.776 138.131C177.912 138.309 177.916 138.527 177.789 138.783C177.688 139.021 177.565 139.255 177.419 139.486C177.114 139.878 176.873 140.302 176.696 140.757C176.5 141.187 176.595 141.657 176.982 142.167L184.93 152.646C185.317 153.156 185.756 153.365 186.248 153.272C186.766 153.161 187.265 153.024 187.744 152.861C188.006 152.783 188.265 152.727 188.521 152.694C188.783 152.616 188.991 152.678 189.146 152.882C189.281 153.061 189.244 153.25 189.033 153.449C188.849 153.63 188.68 153.778 188.527 153.894C188.043 154.261 187.641 154.526 187.322 154.687C187.022 154.875 186.735 155.052 186.461 155.22C186.212 155.369 185.858 155.617 185.399 155.965C184.965 156.294 184.631 156.568 184.395 156.786C184.16 157.005 183.911 157.234 183.65 157.472C183.434 157.716 183.071 158.032 182.561 158.419C182.408 158.535 182.207 158.667 181.958 158.816C181.735 158.945 181.556 158.92 181.42 158.742C181.266 158.538 181.248 158.33 181.369 158.118C181.495 157.861 181.632 157.617 181.778 157.386C182.063 156.969 182.304 156.545 182.5 156.115C182.722 155.666 182.639 155.186 182.253 154.676L178.627 149.896C178.55 149.794 178.498 149.752 178.473 149.772C178.428 149.766 178.38 149.782 178.329 149.821L170.91 155.448C170.859 155.487 170.84 155.541 170.853 155.611C170.872 155.637 170.92 155.701 170.998 155.803L174.566 160.507C174.972 161.042 175.421 161.264 175.913 161.171C176.412 161.034 176.9 160.884 177.38 160.722C177.642 160.644 177.901 160.588 178.156 160.554C178.418 160.476 178.627 160.539 178.781 160.743C178.917 160.922 178.879 161.111 178.669 161.31C178.485 161.49 178.316 161.638 178.163 161.754C177.678 162.122 177.277 162.386 176.957 162.548C176.658 162.735 176.371 162.913 176.096 163.081C175.848 163.229 175.494 163.478 175.035 163.826C174.601 164.154 174.267 164.428 174.031 164.647C173.796 164.866 173.547 165.095 173.286 165.333C173.07 165.577 172.707 165.893 172.197 166.279Z" fill="#0A2239"/>
<path d="M192.858 151.071C192.72 151.151 192.496 151.243 192.187 151.348C191.921 151.464 191.74 151.439 191.644 151.273C191.516 151.051 191.525 150.843 191.671 150.648C191.829 150.409 191.995 150.184 192.168 149.973C192.504 149.594 192.804 149.218 193.068 148.843C193.344 148.425 193.314 147.925 192.978 147.343L186.4 135.955C186.08 135.4 185.739 135.098 185.377 135.048C185 134.971 184.571 134.997 184.092 135.126C183.822 135.171 183.544 135.202 183.259 135.219C183.001 135.22 182.816 135.124 182.704 134.93C182.608 134.764 182.662 134.603 182.868 134.447C183.058 134.263 183.236 134.124 183.402 134.028C183.956 133.707 184.352 133.497 184.59 133.397C184.855 133.281 185.115 133.186 185.368 133.113C185.606 133.013 185.961 132.827 186.432 132.555C186.93 132.267 187.283 132.045 187.488 131.889C187.678 131.706 187.89 131.528 188.123 131.356C188.356 131.185 188.736 130.947 189.263 130.642C189.401 130.562 189.611 130.478 189.893 130.39C190.186 130.257 190.38 130.274 190.476 130.44C190.588 130.634 190.566 130.851 190.408 131.09C190.278 131.313 190.126 131.53 189.952 131.741C189.601 132.092 189.323 132.474 189.118 132.888C188.926 133.258 188.989 133.72 189.309 134.274L191.734 138.472C191.798 138.583 191.888 138.642 192.003 138.649C192.13 138.613 192.227 138.557 192.294 138.481C192.463 138.199 192.845 137.868 193.438 137.488C194.016 137.08 194.499 136.764 194.887 136.54C195.358 136.268 195.96 136.031 196.693 135.83C197.411 135.6 198.186 135.503 199.02 135.539C199.865 135.531 200.68 135.726 201.463 136.123C202.247 136.52 202.911 137.19 203.455 138.132C204.16 139.351 204.403 140.541 204.186 141.701C203.981 142.817 203.434 143.854 202.546 144.81C201.657 145.767 200.575 146.614 199.301 147.35C198.774 147.654 198.342 147.866 198.006 147.987C197.685 148.135 197.378 148.276 197.085 148.408C196.819 148.524 196.437 148.726 195.939 149.015C195.467 149.287 195.101 149.517 194.84 149.704C194.579 149.892 194.304 150.088 194.015 150.292C193.77 150.507 193.385 150.767 192.858 151.071ZM199.044 145.946C199.986 145.402 200.655 144.609 201.051 143.567C201.431 142.498 201.269 141.353 200.565 140.134C199.765 138.749 198.848 137.929 197.815 137.676C196.81 137.407 195.642 137.656 194.312 138.424C193.564 138.857 193.093 139.258 192.9 139.628C192.786 139.878 192.788 140.136 192.904 140.402C193.004 140.639 193.086 140.814 193.15 140.924L195.647 145.247C196.031 145.912 196.569 146.267 197.26 146.311C197.95 146.356 198.545 146.234 199.044 145.946ZM207.697 142.5C207.558 142.58 207.362 142.657 207.108 142.729C206.898 142.814 206.745 142.773 206.649 142.606C206.521 142.385 206.53 142.176 206.676 141.981C206.834 141.742 207 141.517 207.173 141.306C207.509 140.927 207.823 140.543 208.115 140.153C208.39 139.735 208.36 139.235 208.024 138.653L201.59 127.513C201.238 126.904 200.849 126.518 200.424 126.358C199.999 126.197 199.499 126.227 198.924 126.448C198.643 126.537 198.373 126.582 198.115 126.583C197.841 126.556 197.648 126.446 197.536 126.252C197.44 126.086 197.481 125.933 197.659 125.793C197.849 125.61 198.013 125.478 198.151 125.398C198.705 125.078 199.115 124.859 199.381 124.743C199.674 124.611 199.947 124.508 200.201 124.436C200.466 124.319 200.834 124.125 201.305 123.853C201.804 123.565 202.184 123.327 202.445 123.139C202.69 122.924 202.957 122.714 203.246 122.51C203.535 122.307 203.956 122.045 204.511 121.725C204.677 121.629 204.873 121.552 205.099 121.496C205.309 121.411 205.462 121.452 205.558 121.619C205.67 121.813 205.669 122.035 205.555 122.285C205.425 122.508 205.251 122.719 205.034 122.919C204.544 123.35 204.256 123.812 204.171 124.304C204.07 124.769 204.18 125.279 204.5 125.833L210.934 136.972C211.27 137.554 211.688 137.83 212.188 137.8C212.672 137.742 213.162 137.662 213.657 137.561C213.927 137.516 214.191 137.493 214.449 137.492C214.719 137.447 214.917 137.535 215.046 137.757C215.142 137.923 215.087 138.084 214.881 138.24C214.719 138.407 214.569 138.531 214.43 138.611C213.876 138.931 213.417 139.16 213.052 139.296C212.731 139.445 212.424 139.585 212.131 139.717C211.838 139.85 211.442 140.06 210.943 140.348C210.472 140.62 210.092 140.858 209.804 141.062C209.543 141.249 209.254 141.453 208.937 141.673C208.664 141.904 208.251 142.18 207.697 142.5Z" fill="#0A2239"/>
<path d="M225.98 134.431C224.367 135.135 222.787 135.354 221.239 135.088C219.691 134.822 218.265 134.117 216.963 132.975C215.648 131.804 214.574 130.265 213.741 128.359C212.998 126.658 212.707 124.952 212.867 123.241C213.044 121.487 213.592 119.904 214.51 118.49C215.429 117.075 216.651 116.035 218.175 115.369C219.348 114.857 220.492 114.636 221.606 114.708C222.72 114.78 223.712 115.133 224.582 115.765C225.468 116.356 226.149 117.193 226.623 118.278C227.02 119.187 226.779 119.834 225.899 120.218L216.618 124.273C216.208 124.453 215.966 124.698 215.892 125.01C215.835 125.279 215.948 125.736 216.23 126.381C216.845 127.789 217.716 128.944 218.845 129.848C219.96 130.723 221.185 131.288 222.519 131.543C223.839 131.769 225.116 131.613 226.347 131.075C227.227 130.691 227.948 130.183 228.511 129.553C229.09 128.881 229.518 128.101 229.793 127.212C229.846 127.014 229.896 126.888 229.942 126.833C229.975 126.749 230.035 126.687 230.123 126.649C230.358 126.547 230.539 126.642 230.667 126.935C230.911 127.492 230.916 128.223 230.683 129.128C230.486 129.878 230.17 130.592 229.733 131.272C229.297 131.951 228.757 132.554 228.114 133.079C227.483 133.634 226.772 134.085 225.98 134.431ZM216.11 122.871L220.113 121.123C220.817 120.815 221.412 120.538 221.897 120.291C222.383 120.043 222.841 119.773 223.272 119.48C223.406 119.387 223.455 119.261 223.42 119.101C223.402 118.9 223.329 118.652 223.201 118.359C222.829 117.509 222.134 116.957 221.116 116.703C220.114 116.408 219.099 116.484 218.073 116.933C217.399 117.228 216.814 117.727 216.319 118.433C215.811 119.109 215.465 119.836 215.282 120.614C215.098 121.393 215.134 122.076 215.39 122.662C215.519 122.955 215.759 123.025 216.11 122.871Z" fill="#0A2239"/>
<path d="M255.147 124.034C254.375 124.243 253.501 124.38 252.524 124.445C251.547 124.51 250.653 124.454 249.842 124.275C249.023 124.066 248.466 123.719 248.169 123.236C247.878 122.651 247.672 122.193 247.549 121.862C247.418 121.5 247.286 121.071 247.152 120.577C246.943 119.805 247.07 119.356 247.534 119.231C247.657 119.197 247.838 119.314 248.076 119.581C248.306 119.818 248.528 120.089 248.744 120.395C249.379 121.152 250.015 121.726 250.651 122.117C251.279 122.478 251.92 122.702 252.574 122.791C253.219 122.848 253.82 122.802 254.376 122.651C255.611 122.317 256.535 121.686 257.146 120.759C257.757 119.831 257.874 118.672 257.499 117.282C257.256 116.386 256.81 115.595 256.161 114.909C255.542 114.215 254.769 113.993 253.843 114.243C253.503 114.335 253.191 114.469 252.907 114.645C252.654 114.813 252.265 114.968 251.74 115.11C251.369 115.21 250.993 115.229 250.612 115.166C250.23 115.104 249.989 114.887 249.889 114.517C249.772 114.084 249.863 113.745 250.161 113.498C250.481 113.213 250.919 112.995 251.475 112.845C251.784 112.761 252.09 112.728 252.393 112.745C252.727 112.755 253.111 112.701 253.543 112.584C254.068 112.442 254.507 112.041 254.859 111.383C255.242 110.716 255.309 109.919 255.058 108.992C254.891 108.374 254.62 107.801 254.245 107.272C253.893 106.705 253.415 106.287 252.812 106.019C252.201 105.72 251.463 105.688 250.598 105.922C249.733 106.155 249.016 106.631 248.448 107.348C247.902 108.026 247.465 108.923 247.137 110.04C246.998 110.508 246.923 111.026 246.911 111.593C246.921 112.12 246.771 112.426 246.462 112.509C246.215 112.576 246.036 112.525 245.924 112.357C245.834 112.149 245.748 111.89 245.664 111.581C245.497 110.964 245.4 110.542 245.372 110.318C245.367 110.054 245.319 109.57 245.228 108.865C245.192 108.61 245.183 108.33 245.201 108.027C245.218 107.724 245.322 107.497 245.514 107.346C246.003 106.949 246.68 106.45 247.546 105.852C248.434 105.214 249.357 104.765 250.315 104.506C252.23 103.989 253.918 103.98 255.379 104.48C256.832 104.949 257.755 105.909 258.148 107.361C258.381 108.226 258.419 108.978 258.26 109.618C258.102 110.257 257.821 110.814 257.419 111.287C257.048 111.752 256.628 112.164 256.162 112.522C256.055 112.617 255.994 112.7 255.98 112.77C255.989 112.801 256.078 112.826 256.25 112.847C257.204 112.821 258.166 113.008 259.136 113.409C260.137 113.801 260.822 114.677 261.189 116.036C261.523 117.271 261.501 118.355 261.123 119.286C260.745 120.217 260.182 121.015 259.434 121.682C258.717 122.34 257.947 122.863 257.123 123.251C256.331 123.631 255.672 123.892 255.147 124.034Z" fill="#0A2239"/>
<path d="M271.254 120.655C270.687 120.753 270.065 120.633 269.39 120.295C268.746 119.952 268.165 119.5 267.646 118.94C267.158 118.375 266.865 117.809 266.767 117.241C266.593 116.232 266.725 115.397 267.163 114.737C267.6 114.077 268.362 113.41 269.447 112.735L273.928 109.914C274.515 109.553 274.839 109.27 274.901 109.064C274.995 108.853 275.003 108.43 274.925 107.793L274.496 104.75C274.386 103.925 274.027 103.256 273.419 102.744C272.842 102.227 272.097 102.047 271.183 102.205C270.71 102.287 270.25 102.448 269.804 102.687C269.359 102.926 269 103.2 268.728 103.506C268.561 103.665 268.467 103.876 268.448 104.139C268.429 104.403 268.443 104.676 268.492 104.96C268.514 105.086 268.539 105.228 268.566 105.385C268.625 105.538 268.665 105.677 268.687 105.803C268.714 105.961 268.547 106.217 268.187 106.571C267.852 106.889 267.451 107.202 266.985 107.51C266.545 107.781 266.167 107.944 265.851 107.998C265.694 108.025 265.562 108.016 265.457 107.969C265.346 107.891 265.279 107.788 265.258 107.662C265.17 107.158 265.235 106.595 265.453 105.972C265.696 105.313 266.073 104.68 266.585 104.072C267.196 103.284 267.884 102.565 268.648 101.913C269.412 101.261 270.179 100.723 270.95 100.297C271.721 99.8715 272.422 99.6042 273.052 99.4952C274.187 99.2989 275.188 99.5481 276.055 100.243C276.948 100.9 277.483 101.831 277.658 103.034L279.384 114.427C279.467 115.094 279.702 115.606 280.088 115.961C280.506 116.311 280.967 116.443 281.471 116.355C282.26 116.219 282.813 115.945 283.131 115.533C283.262 115.348 283.374 115.247 283.469 115.231C283.627 115.203 283.761 115.229 283.872 115.307C283.983 115.385 284.052 115.503 284.079 115.661C284.139 116.008 284.026 116.385 283.739 116.792C283.321 117.383 282.838 117.873 282.288 118.26C281.775 118.674 281.266 118.924 280.761 119.011C279.311 119.262 278.018 118.641 276.883 117.149L276.741 117.173C275.848 118.204 274.961 118.991 274.081 119.533C273.205 120.106 272.263 120.48 271.254 120.655ZM273.085 118C273.716 117.891 274.235 117.704 274.644 117.438C275.047 117.141 275.392 116.789 275.679 116.382C275.81 116.198 275.9 115.971 275.951 115.702C276.028 115.397 276.031 114.942 275.959 114.337L275.653 112.003C275.624 111.651 275.565 111.401 275.475 111.254C275.384 111.108 275.245 111.051 275.055 111.083C274.992 111.094 274.885 111.129 274.733 111.188C274.58 111.247 274.386 111.345 274.15 111.483C272.583 112.371 271.525 113.204 270.977 113.98C270.456 114.72 270.241 115.358 270.334 115.894C270.476 116.714 270.821 117.304 271.37 117.663C271.946 117.986 272.517 118.098 273.085 118Z" fill="#0A2239"/>
<path d="M296.305 117.512C294.71 117.635 293.228 117.347 291.859 116.649C290.519 115.917 289.412 114.879 288.539 113.534C287.695 112.154 287.206 110.587 287.072 108.832C286.913 106.758 287.216 104.841 287.98 103.082C288.776 101.32 289.901 99.8858 291.357 98.7795C292.811 97.6413 294.463 97.0013 296.313 96.8597C298.387 96.7009 300.248 97.1201 301.897 98.1171C302.302 98.375 302.517 98.6634 302.541 98.9825C302.561 99.2377 302.471 99.5335 302.272 99.8696C302.073 100.206 301.823 100.498 301.521 100.746C301.216 100.961 300.921 101.08 300.634 101.102C300.474 101.114 300.311 101.079 300.144 100.995C299.975 100.88 299.789 100.766 299.588 100.653C298.845 100.164 298.024 99.7134 297.126 99.3007C296.228 98.8881 295.491 98.7037 294.917 98.7477C293.354 98.8674 292.134 99.6989 291.257 101.242C290.41 102.751 290.076 104.686 290.257 107.048C290.372 108.547 290.795 109.879 291.526 111.042C292.288 112.204 293.239 113.094 294.378 113.713C295.548 114.329 296.803 114.586 298.144 114.483C299.069 114.413 299.855 114.208 300.504 113.869C301.149 113.499 301.826 112.902 302.533 112.077C302.592 112.009 302.668 111.955 302.761 111.915C302.852 111.844 302.929 111.806 302.993 111.801C303.344 111.775 303.537 111.984 303.571 112.431C303.585 112.623 303.539 112.851 303.431 113.116C303.352 113.347 303.197 113.631 302.966 113.97C302.505 114.647 301.941 115.252 301.276 115.784C300.608 116.285 299.852 116.679 299.008 116.969C298.195 117.255 297.294 117.437 296.305 117.512Z" fill="#0A2239"/>
<path d="M316.964 117.056C315.204 117.027 313.676 116.57 312.378 115.684C311.081 114.799 310.077 113.566 309.367 111.986C308.657 110.374 308.32 108.528 308.354 106.448C308.385 104.593 308.828 102.92 309.685 101.43C310.574 99.9081 311.73 98.695 313.153 97.7904C314.577 96.8857 316.12 96.4471 317.784 96.4746C319.064 96.4957 320.195 96.7704 321.179 97.2987C322.162 97.8269 322.918 98.5595 323.447 99.4964C324.008 100.402 324.279 101.446 324.259 102.63C324.243 103.622 323.755 104.11 322.795 104.094L312.668 103.927C312.22 103.92 311.898 104.043 311.702 104.295C311.538 104.517 311.451 104.979 311.439 105.683C311.414 107.219 311.726 108.632 312.377 109.923C313.029 111.182 313.908 112.205 315.015 112.991C316.123 113.746 317.348 114.134 318.692 114.156C319.652 114.172 320.519 114.01 321.293 113.671C322.099 113.3 322.812 112.768 323.431 112.074C323.562 111.916 323.659 111.822 323.724 111.791C323.789 111.728 323.87 111.697 323.966 111.699C324.222 111.703 324.347 111.865 324.342 112.185C324.332 112.793 324.033 113.46 323.444 114.186C322.954 114.786 322.37 115.305 321.691 115.742C321.011 116.178 320.27 116.502 319.466 116.713C318.662 116.956 317.828 117.07 316.964 117.056ZM312.789 102.441L317.156 102.513C317.924 102.526 318.58 102.521 319.125 102.497C319.669 102.474 320.198 102.419 320.712 102.332C320.872 102.302 320.97 102.208 321.004 102.048C321.071 101.858 321.108 101.602 321.113 101.282C321.128 100.354 320.725 99.5635 319.904 98.9099C319.115 98.2247 318.161 97.873 317.041 97.8545C316.305 97.8424 315.565 98.0542 314.822 98.49C314.079 98.8938 313.463 99.4117 312.972 100.044C312.482 100.676 312.231 101.312 312.221 101.952C312.215 102.272 312.405 102.435 312.789 102.441Z" fill="#0A2239"/>
<path d="M338.306 118.069C338.115 118.047 337.879 118.004 337.596 117.94C337.346 117.879 337.233 117.738 337.258 117.515C337.287 117.261 337.418 117.098 337.652 117.028C337.92 116.93 338.187 116.848 338.453 116.781C338.948 116.676 339.414 116.536 339.853 116.361C340.323 116.189 340.595 115.785 340.667 115.149L341.258 109.95C341.287 109.696 341.275 109.518 341.222 109.415C341.173 109.281 341.081 109.238 340.947 109.287C340.271 109.564 339.414 109.741 338.375 109.816C337.336 109.891 336.355 109.876 335.433 109.771C334.543 109.67 333.718 109.415 332.959 109.007C332.201 108.599 331.601 108.064 331.161 107.402C330.721 106.74 330.534 105.978 330.6 105.116L331.04 100.818C331.112 100.182 331.081 99.7439 330.948 99.5032C330.814 99.2626 330.516 99.0516 330.054 98.8702C329.81 98.7459 329.568 98.6057 329.328 98.4496C329.124 98.2653 329.034 98.0619 329.06 97.8394C329.085 97.6168 329.227 97.5041 329.484 97.5012C329.774 97.5019 330.015 97.5131 330.205 97.5348C330.682 97.589 331.03 97.6446 331.249 97.7017C331.468 97.7588 331.701 97.8336 331.948 97.9261C332.199 97.9868 332.595 98.0479 333.135 98.1093C333.707 98.1744 334.139 98.2073 334.428 98.208C334.753 98.1805 335.045 98.1654 335.303 98.1625C335.593 98.1632 335.976 98.1907 336.453 98.2449C336.676 98.2702 336.912 98.3132 337.163 98.3739C337.414 98.4346 337.527 98.5762 337.501 98.7988C337.476 99.0214 337.329 99.1818 337.06 99.2801C336.823 99.3819 336.572 99.4661 336.307 99.5326C335.815 99.6056 335.38 99.7494 335.002 99.964C334.658 100.15 334.451 100.562 334.378 101.197L333.988 104.631C333.887 105.522 334.053 106.33 334.486 107.055C334.918 107.781 335.675 108.205 336.756 108.328C337.488 108.411 338.209 108.444 338.919 108.428C339.661 108.416 340.292 108.246 340.812 107.919C341.089 107.757 341.283 107.602 341.397 107.454C341.514 107.274 341.58 107.121 341.594 106.993L342.152 102.081C342.225 101.445 342.114 100.998 341.822 100.739C341.533 100.449 341.157 100.213 340.694 100.031C340.451 99.907 340.209 99.7668 339.969 99.6107C339.761 99.4582 339.67 99.2707 339.695 99.0481C339.72 98.8256 339.862 98.7129 340.12 98.71C340.378 98.7071 340.618 98.7183 340.841 98.7436C341.477 98.8159 341.936 98.8842 342.219 98.9485C342.501 99.0128 342.766 99.0912 343.013 99.1837C343.296 99.248 343.707 99.3109 344.248 99.3723C344.82 99.4374 345.235 99.4685 345.493 99.4656C345.786 99.4345 346.094 99.4211 346.415 99.4255C346.737 99.4298 347.2 99.4663 347.804 99.535C348.027 99.5603 348.263 99.6033 348.514 99.664C348.765 99.7247 348.877 99.8663 348.852 100.089C348.827 100.311 348.68 100.472 348.411 100.57C348.174 100.672 347.923 100.756 347.658 100.823C347.166 100.896 346.699 101.036 346.257 101.243C345.819 101.419 345.563 101.825 345.491 102.46L344.006 115.528C343.933 116.164 344.107 116.619 344.527 116.892C344.979 117.169 345.434 117.414 345.893 117.627C346.136 117.751 346.362 117.89 346.57 118.042C346.814 118.166 346.921 118.356 346.892 118.61C346.867 118.833 346.709 118.944 346.419 118.943C346.161 118.946 345.937 118.936 345.746 118.915C345.142 118.846 344.669 118.76 344.326 118.657C343.98 118.585 343.65 118.515 343.336 118.447C343.053 118.383 342.626 118.318 342.053 118.253C341.513 118.192 341.082 118.159 340.76 118.155C340.439 118.15 340.101 118.144 339.748 118.136C339.423 118.164 338.942 118.141 338.306 118.069Z" fill="#0A2239"/>
<path d="M368.198 124.238C367.574 124.1 367.016 123.879 366.526 123.574C366.037 123.269 365.587 122.858 365.176 122.342C364.798 121.832 364.415 121.19 364.029 120.417C363.674 119.65 363.303 118.733 362.916 117.664C362.495 116.457 362.148 115.43 361.876 114.583C361.605 113.737 361.248 113.052 360.807 112.528C360.403 111.98 359.733 111.603 358.796 111.395C358.483 111.326 358.296 111.433 358.234 111.714L356.846 117.994C356.701 118.65 356.842 119.124 357.27 119.415C357.697 119.706 358.128 119.982 358.562 120.241C358.791 120.39 359.001 120.551 359.192 120.725C359.422 120.874 359.509 121.073 359.453 121.323C359.405 121.542 359.221 121.632 358.902 121.595C358.614 121.564 358.407 121.534 358.282 121.507C357.689 121.376 357.227 121.241 356.897 121.102C356.56 120.995 356.239 120.892 355.933 120.791C355.659 120.698 355.241 120.589 354.678 120.465C354.147 120.347 353.722 120.27 353.402 120.232C353.083 120.194 352.748 120.153 352.397 120.108C352.071 120.102 351.595 120.03 350.971 119.891C350.846 119.864 350.63 119.8 350.325 119.7C350.05 119.606 349.937 119.45 349.986 119.231C350.041 118.982 350.188 118.834 350.428 118.788C350.705 118.719 350.979 118.664 351.25 118.626C351.753 118.573 352.237 118.533 352.703 118.504C353.175 118.445 353.483 118.087 353.628 117.431L356.434 104.729C356.586 104.042 356.528 103.488 356.26 103.068C355.992 102.649 355.638 102.325 355.197 102.096C354.968 101.947 354.742 101.783 354.519 101.602C354.328 101.429 354.257 101.233 354.305 101.014C354.361 100.764 354.529 100.67 354.81 100.733C355.129 100.77 355.351 100.803 355.476 100.831C356.101 100.969 356.535 101.081 356.778 101.168C357.053 101.261 357.308 101.366 357.544 101.484C357.787 101.571 358.174 101.673 358.706 101.79C359.268 101.914 359.678 101.988 359.935 102.012C360.198 102.005 360.474 102.017 360.762 102.048C361.082 102.085 361.538 102.17 362.132 102.301C362.257 102.329 362.457 102.389 362.731 102.483C363.043 102.552 363.172 102.711 363.117 102.961C363.068 103.18 362.906 103.324 362.628 103.394C362.382 103.47 362.123 103.528 361.852 103.567C361.356 103.588 360.895 103.748 360.468 104.047C360.048 104.315 359.759 104.808 359.601 105.527L358.638 109.886C358.603 110.042 358.626 110.162 358.706 110.245C358.824 110.304 358.945 110.347 359.07 110.375C360.664 110.727 361.957 110.586 362.948 109.953C363.972 109.327 364.878 108.561 365.669 107.654C366.143 107.136 366.587 106.612 366.999 106.08C367.443 105.555 367.888 105.097 368.336 104.704C368.821 104.287 369.345 103.993 369.907 103.822C370.5 103.658 371.156 103.656 371.875 103.814C372.687 103.994 373.217 104.34 373.464 104.854C373.749 105.343 373.84 105.822 373.737 106.29C373.626 106.79 373.408 107.185 373.082 107.473C372.756 107.762 372.375 107.857 371.937 107.761C371.625 107.692 371.262 107.48 370.848 107.127C370.466 106.78 370.119 106.573 369.806 106.504C369.4 106.414 369.063 106.454 368.796 106.624C368.56 106.802 368.283 107.019 367.964 107.276C367.721 107.485 367.378 107.851 366.935 108.376C366.522 108.908 366.063 109.429 365.557 109.94C365.051 110.451 364.544 110.814 364.038 111.03C363.892 111.096 363.828 111.164 363.846 111.233C363.87 111.271 363.903 111.344 363.945 111.452C364.397 112.666 364.786 113.8 365.11 114.855C365.441 115.879 365.77 116.836 366.097 117.728C366.498 118.734 366.954 119.637 367.465 120.439C367.983 121.208 368.673 121.869 369.534 122.42C369.913 122.634 370.191 122.86 370.368 123.095C370.552 123.3 370.617 123.527 370.562 123.777C370.52 123.965 370.272 124.123 369.818 124.252C369.394 124.388 368.855 124.383 368.198 124.238Z" fill="#0A2239"/>
<path d="M373.391 125.198C373.239 125.146 373.053 125.049 372.831 124.905C372.63 124.803 372.56 124.66 372.622 124.479C372.705 124.236 372.868 124.106 373.111 124.088C373.394 124.049 373.673 124.026 373.946 124.018C374.452 124.022 374.933 124 375.388 123.953C375.885 123.886 376.242 123.534 376.459 122.899L380.712 110.453C380.919 109.847 380.877 109.377 380.586 109.04C380.336 108.684 380.004 108.368 379.591 108.092C379.38 107.918 379.174 107.729 378.973 107.526C378.802 107.332 378.753 107.129 378.826 106.917C378.888 106.736 379.03 106.666 379.252 106.708C379.515 106.73 379.723 106.767 379.874 106.819C380.48 107.026 380.929 107.196 381.221 107.33C381.544 107.474 381.831 107.623 382.083 107.777C382.375 107.91 382.779 108.065 383.294 108.241C383.839 108.427 384.238 108.547 384.49 108.599C384.783 108.632 385.087 108.685 385.4 108.758C385.713 108.831 386.172 108.971 386.778 109.178C386.929 109.23 387.101 109.322 387.292 109.455C387.524 109.568 387.609 109.716 387.547 109.897C387.474 110.109 387.296 110.234 387.013 110.273C386.759 110.322 386.496 110.35 386.223 110.358C385.727 110.324 385.256 110.366 384.81 110.484C384.404 110.582 384.098 110.934 383.891 111.54L380.787 120.624C380.746 120.745 380.775 120.856 380.876 120.958C381.017 121.04 381.108 121.072 381.148 121.052L392.881 115.068C392.983 114.968 393.055 114.908 393.095 114.888C393.166 114.878 393.227 114.798 393.279 114.646C393.486 114.04 393.469 113.595 393.228 113.31C392.998 112.995 392.676 112.699 392.264 112.422C392.052 112.249 391.846 112.06 391.646 111.856C391.475 111.662 391.426 111.46 391.498 111.248C391.56 111.066 391.703 110.996 391.925 111.038C392.158 111.05 392.365 111.087 392.546 111.149C393.152 111.356 393.601 111.527 393.894 111.66C394.186 111.794 394.458 111.938 394.71 112.092C394.972 112.215 395.361 112.365 395.875 112.541C396.421 112.727 396.834 112.851 397.117 112.914C397.411 112.947 397.714 113 398.027 113.073C398.37 113.156 398.845 113.302 399.45 113.509C399.632 113.571 399.819 113.668 400.01 113.801C400.212 113.904 400.281 114.046 400.219 114.228C400.147 114.44 399.969 114.565 399.685 114.603C399.432 114.652 399.168 114.68 398.895 114.688C398.4 114.654 397.914 114.691 397.437 114.799C396.971 114.876 396.635 115.218 396.428 115.823L392.175 128.269C391.968 128.874 392.04 129.356 392.392 129.713C392.773 130.08 393.165 130.417 393.568 130.723C393.779 130.897 393.97 131.08 394.141 131.274C394.352 131.448 394.416 131.656 394.333 131.898C394.271 132.079 394.114 132.144 393.861 132.092C393.629 132.08 393.437 132.048 393.285 131.996C392.68 131.789 392.205 131.593 391.863 131.409C391.54 131.265 391.232 131.126 390.94 130.992C390.647 130.858 390.229 130.698 389.684 130.512C389.169 130.336 388.74 130.206 388.396 130.123C388.083 130.049 387.74 129.966 387.366 129.872C387.012 129.819 386.533 129.689 385.927 129.482C385.775 129.43 385.589 129.332 385.367 129.189C385.166 129.086 385.096 128.944 385.158 128.763C385.241 128.52 385.404 128.39 385.647 128.372C385.93 128.333 386.209 128.31 386.482 128.302C386.988 128.306 387.474 128.269 387.94 128.191C388.437 128.124 388.788 127.788 388.995 127.182L392.301 117.508C392.343 117.387 392.353 117.306 392.333 117.265C392.324 117.194 392.278 117.179 392.197 117.218L379.945 123.532C379.824 123.592 379.721 123.743 379.638 123.985C379.421 124.621 379.488 125.117 379.84 125.474C380.232 125.811 380.629 126.133 381.032 126.439C381.243 126.613 381.434 126.797 381.604 126.99C381.816 127.164 381.88 127.372 381.797 127.614C381.735 127.796 381.578 127.86 381.325 127.808C381.092 127.796 380.9 127.764 380.749 127.712C380.143 127.505 379.669 127.31 379.326 127.125C379.004 126.981 378.696 126.842 378.404 126.708C378.111 126.574 377.692 126.414 377.147 126.228C376.633 126.052 376.203 125.922 375.86 125.839C375.547 125.766 375.203 125.682 374.83 125.588C374.476 125.535 373.996 125.405 373.391 125.198Z" fill="#0A2239"/>
</svg>
