<svg width="1019" height="1420" viewBox="0 0 1019 1420" fill="none" xmlns="http://www.w3.org/2000/svg">
<path d="M878.17 639.094C887.023 710.561 831.733 783.429 734.413 843.42C637.176 903.361 498.319 950.211 340.894 969.71C183.468 989.21 37.3768 977.655 -71.5466 943.25C-180.562 908.817 -251.96 851.641 -260.812 780.174C-269.664 708.707 -214.375 635.839 -117.055 575.848C-19.8175 515.908 119.039 469.057 276.465 449.558C433.89 430.058 579.982 441.614 688.905 476.018C797.92 510.451 869.318 567.627 878.17 639.094Z" stroke="#D6BA73" stroke-width="2"/>
<path d="M61.5818 192.274C126.575 161.261 213.194 190.651 300.899 263.986C388.529 337.258 476.913 454.154 545.226 597.319C613.54 740.484 648.808 882.725 650.64 996.938C652.474 1111.25 620.83 1197.07 555.836 1228.08C490.843 1259.09 404.224 1229.7 316.519 1156.37C228.889 1083.1 140.506 966.201 72.1918 823.036C3.8779 679.871 -31.3903 537.631 -33.2221 423.418C-35.0555 309.108 -3.41154 223.287 61.5818 192.274Z" stroke="#D6BA73" stroke-width="2"/>
<mask id="mask0_238_185" style="mask-type:alpha" maskUnits="userSpaceOnUse" x="-110" y="291" width="837" height="837">
<circle cx="308.487" cy="709.369" r="416.807" transform="rotate(8.51034 308.487 709.369)" fill="#D6BA73" stroke="#D6BA73" stroke-width="2"/>
</mask>
<g mask="url(#mask0_238_185)">
<rect x="-43.0054" y="227.36" width="947.947" height="916.998" transform="rotate(8.51034 -43.0054 227.36)" fill="#D6BA73"/>
<path d="M878.171 639.087C887.023 710.554 831.734 783.422 734.414 843.413C637.177 903.354 498.32 950.204 340.894 969.704C183.469 989.203 37.3775 977.648 -71.5459 943.244C-180.561 908.81 -251.959 851.635 -260.811 780.167C-269.664 708.7 -214.374 635.832 -117.054 575.841C-19.8168 515.901 119.04 469.05 276.466 449.551C433.891 430.051 579.982 441.607 688.906 476.011C797.921 510.444 869.319 567.62 878.171 639.087Z" stroke="#0A2239" stroke-width="2"/>
<rect x="-42.8899" y="234.331" width="756.524" height="451.622" transform="rotate(8.51034 -42.8899 234.331)" fill="#D6BA73"/>
<path d="M61.5989 192.158C126.592 161.145 213.212 190.535 300.916 263.87C388.546 337.142 476.93 454.038 545.243 597.203C613.557 740.368 648.826 882.608 650.657 996.821C652.491 1111.13 620.847 1196.95 555.853 1227.97C490.86 1258.98 404.241 1229.59 316.536 1156.25C228.906 1082.98 140.523 966.085 72.2089 822.92C3.89499 679.755 -31.3732 537.515 -33.205 423.302C-35.0384 308.992 -3.39445 223.17 61.5989 192.158Z" stroke="#0A2239" stroke-width="2"/>
<rect x="314.202" y="287.765" width="421.819" height="538.737" transform="rotate(8.51034 314.202 287.765)" fill="#D6BA73"/>
<path d="M640.087 878.945L642.613 889.175L640.092 890.536L638.306 890.848L633.201 878.494L640.087 878.945Z" fill="#D6BA73"/>
<path d="M655.727 952.565L646.123 958.661L636.011 894.561L644.625 891.214L655.727 952.565Z" fill="#D6BA73"/>
</g>
<path d="M99.5226 834.454C99.3461 834.095 99.304 833.707 99.3962 833.29C99.5179 832.933 99.7283 832.681 100.027 832.534C100.686 832.211 101.37 832.469 102.079 833.308C103.678 835.048 105.025 836.504 106.12 837.674C107.275 838.814 108.433 839.508 109.594 839.754C110.844 840.031 112.277 839.772 113.893 838.978L147.546 822.434C148.742 821.846 149.493 821.031 149.798 819.989C150.104 818.948 150.082 817.77 149.733 816.456C149.473 815.172 149.08 813.843 148.552 812.468C148.347 811.9 148.232 811.288 148.207 810.632C148.271 810.006 148.572 809.561 149.11 809.296C149.649 809.031 150.185 809.065 150.72 809.396C151.314 809.699 151.803 810.164 152.186 810.793C154.016 813.608 155.833 816.02 157.638 818.03C159.533 820.07 162.011 821.786 165.072 823.178C165.161 823.209 165.235 823.284 165.294 823.403C165.413 823.494 165.502 823.598 165.56 823.718C165.737 824.077 165.794 824.42 165.732 824.748C165.7 825.135 165.564 825.388 165.325 825.505C164.428 825.798 163.442 826.134 162.366 826.514C161.32 826.954 160.109 827.513 158.732 828.189L117.541 848.439C116.165 849.116 115.235 849.944 114.751 850.925C114.357 851.936 114.244 853.217 114.412 854.769C114.67 856.351 115.074 858.381 115.624 860.859C115.71 861.337 115.707 861.784 115.615 862.201C115.582 862.588 115.357 862.885 114.938 863.091C114.22 863.444 113.655 863.201 113.243 862.364C112.479 860.808 111.759 859.193 111.084 857.519C110.38 855.934 109.675 854.349 108.97 852.764C108.294 851.239 107.589 849.729 106.854 848.233C106.118 846.737 105.338 845.227 104.514 843.7C103.689 842.174 102.85 840.618 101.996 839.032C101.112 837.536 100.287 836.009 99.5226 834.454ZM126.642 892.111C125.053 888.88 124.509 885.657 125.007 882.44C125.535 879.283 126.778 876.221 128.736 873.252C130.784 870.315 133.291 867.633 136.259 865.208C139.227 862.784 142.357 860.762 145.647 859.145C149.057 857.468 152.689 856.166 156.541 855.238C160.393 854.31 164.152 853.947 167.818 854.151C171.484 854.354 174.802 855.286 177.773 856.946C180.803 858.576 183.185 861.157 184.921 864.686C186.509 867.917 187.054 871.141 186.555 874.357C186.056 877.574 184.783 880.651 182.736 883.589C180.749 886.498 178.271 889.164 175.303 891.589C172.395 893.985 169.325 895.976 166.095 897.565C162.744 899.212 159.143 900.499 155.291 901.427C151.468 902.415 147.693 902.822 143.968 902.648C140.242 902.474 136.864 901.572 133.834 899.941C130.804 898.311 128.406 895.701 126.642 892.111ZM130.353 892.181C131.441 894.395 133.476 895.586 136.456 895.755C139.526 895.955 143.092 895.427 147.155 894.172C151.308 892.948 155.568 891.262 159.935 889.115C163.226 887.498 166.339 885.67 169.274 883.633C172.21 881.595 174.729 879.466 176.831 877.244C178.933 875.022 180.379 872.825 181.169 870.654C182.018 868.453 181.987 866.426 181.075 864.571C179.987 862.357 177.953 861.166 174.972 860.997C172.052 860.798 168.56 861.326 164.497 862.581C160.433 863.836 156.218 865.537 151.851 867.684C148.56 869.301 145.417 871.144 142.422 873.21C139.426 875.277 136.863 877.392 134.732 879.554C132.63 881.776 131.139 883.957 130.26 886.098C129.381 888.239 129.412 890.266 130.353 892.181Z" fill="#0A2239"/>
<path d="M195.373 950.182C195.133 950.18 194.853 950.137 194.534 950.054C194.215 949.971 194.057 949.79 194.059 949.51C194.062 949.19 194.204 948.951 194.486 948.794C194.807 948.637 195.129 948.5 195.45 948.383C196.051 948.188 196.594 947.973 197.076 947.738C197.598 947.463 197.863 946.925 197.871 946.125L198.024 929.506C198.032 928.706 197.817 928.164 197.379 927.88C196.942 927.556 196.425 927.311 195.826 927.145C195.507 927.022 195.189 926.879 194.87 926.716C194.592 926.554 194.454 926.313 194.457 925.993C194.459 925.713 194.621 925.554 194.941 925.517C195.262 925.44 195.542 925.403 195.782 925.405C196.582 925.412 197.222 925.438 197.702 925.483C198.221 925.527 198.721 925.592 199.2 925.677C199.68 925.721 200.259 925.746 200.939 925.753C201.659 925.759 202.219 925.744 202.62 925.708C203.061 925.632 203.521 925.576 204.001 925.541C204.482 925.505 205.102 925.491 205.862 925.498C206.102 925.5 206.361 925.543 206.641 925.625C206.96 925.708 207.118 925.87 207.116 926.11C207.114 926.39 206.971 926.628 206.69 926.826C206.408 926.983 206.107 927.12 205.786 927.238C205.184 927.432 204.662 927.667 204.219 927.943C203.777 928.219 203.552 928.757 203.544 929.557L203.489 935.497C203.486 935.817 203.604 936.038 203.843 936.16C204.082 936.242 204.302 936.284 204.502 936.286L213.742 936.372C213.982 936.374 214.182 936.316 214.343 936.197C214.504 936.079 214.587 935.839 214.59 935.479L214.644 929.66C214.651 928.86 214.456 928.318 214.059 928.034C213.661 927.75 213.164 927.506 212.565 927.3C212.247 927.177 211.948 927.035 211.669 926.872C211.391 926.709 211.253 926.468 211.256 926.148C211.259 925.868 211.4 925.709 211.681 925.672C211.961 925.595 212.242 925.557 212.522 925.56C213.322 925.567 213.961 925.593 214.441 925.638C214.921 925.682 215.38 925.746 215.819 925.83C216.259 925.874 216.819 925.9 217.499 925.906C218.219 925.912 218.799 925.898 219.239 925.862C219.72 925.786 220.2 925.731 220.681 925.695C221.201 925.66 221.841 925.646 222.601 925.653C222.881 925.656 223.161 925.698 223.44 925.781C223.72 925.823 223.858 925.985 223.856 926.265C223.853 926.585 223.71 926.843 223.428 927.041C223.147 927.198 222.846 927.315 222.525 927.392C221.924 927.547 221.361 927.782 220.838 928.097C220.356 928.372 220.111 928.91 220.104 929.71L219.95 946.329C219.942 947.129 220.197 947.672 220.715 947.957C221.272 948.202 221.85 948.427 222.449 948.633C222.767 948.756 223.066 948.898 223.345 949.061C223.623 949.224 223.761 949.465 223.758 949.785C223.755 950.065 223.594 950.243 223.273 950.32C222.992 950.398 222.732 950.435 222.492 950.433C221.732 950.426 221.072 950.38 220.513 950.295C219.993 950.25 219.494 950.205 219.014 950.161C218.535 950.116 217.935 950.091 217.215 950.084C216.535 950.078 215.955 950.093 215.474 950.128C214.994 950.164 214.494 950.199 213.973 950.234C213.453 950.309 212.792 950.343 211.992 950.336C211.752 950.334 211.473 950.291 211.153 950.208C210.874 950.126 210.736 949.944 210.738 949.664C210.741 949.344 210.884 949.106 211.165 948.948C211.447 948.791 211.748 948.654 212.069 948.537C212.67 948.382 213.212 948.167 213.695 947.892C214.218 947.616 214.483 947.079 214.49 946.279L214.553 939.439C214.557 939.079 214.479 938.858 214.319 938.777C214.2 938.696 214.02 938.654 213.78 938.652L204.181 938.563C203.981 938.561 203.8 938.62 203.639 938.738C203.519 938.817 203.456 939.036 203.453 939.396L203.39 946.176C203.383 947.016 203.638 947.559 204.155 947.803C204.713 948.048 205.271 948.274 205.829 948.479C206.148 948.602 206.447 948.745 206.725 948.907C207.004 949.07 207.142 949.311 207.139 949.631C207.136 949.911 206.974 950.089 206.654 950.167C206.373 950.244 206.113 950.282 205.873 950.279C205.113 950.272 204.473 950.226 203.954 950.142C203.434 950.097 202.935 950.052 202.455 950.008C202.015 949.964 201.436 949.938 200.716 949.932C200.036 949.925 199.435 949.94 198.915 949.975C198.395 950.01 197.874 950.045 197.354 950.08C196.833 950.156 196.173 950.19 195.373 950.182Z" fill="#0A2239"/>
<path d="M238.109 950.89C237.269 950.907 236.444 950.644 235.633 950.1C234.822 949.596 234.149 948.949 233.613 948.16C233.076 947.331 232.8 946.516 232.784 945.716C232.758 944.396 233.096 943.329 233.8 942.515C234.544 941.7 235.689 940.957 237.236 940.286L243.005 937.71C243.799 937.374 244.273 937.084 244.428 936.841C244.583 936.558 244.672 936.016 244.696 935.215L244.742 931.553C244.761 930.473 244.483 929.578 243.908 928.87C243.334 928.161 242.507 927.818 241.427 927.839C240.867 927.85 240.29 927.982 239.695 928.234C239.139 928.445 238.684 928.694 238.33 928.982C238.133 929.146 237.997 929.368 237.923 929.65C237.888 929.931 237.874 930.231 237.881 930.551C237.885 930.751 237.89 930.991 237.895 931.271C237.94 931.51 237.964 931.709 237.967 931.869C237.972 932.109 237.698 932.415 237.146 932.786C236.632 933.116 236.018 933.429 235.304 933.723C234.63 934.017 234.053 934.168 233.573 934.178C233.333 934.183 233.132 934.127 232.969 934.01C232.846 933.853 232.782 933.654 232.777 933.414C232.764 932.774 232.951 932.11 233.337 931.422C233.763 930.694 234.388 929.961 235.214 929.224C236.157 928.365 237.182 927.604 238.289 926.942C239.435 926.239 240.544 925.697 241.617 925.315C242.729 924.933 243.705 924.733 244.545 924.716C246.225 924.682 247.596 925.235 248.659 926.374C249.762 927.472 250.291 928.922 250.247 930.723L250.219 944.286C250.196 945.167 250.391 945.883 250.802 946.435C251.213 946.987 251.719 947.257 252.319 947.245C253.238 947.226 253.953 946.972 254.464 946.482C254.62 946.318 254.759 946.236 254.879 946.233C255.079 946.229 255.24 946.286 255.362 946.403C255.525 946.52 255.608 946.679 255.612 946.879C255.622 947.358 255.352 947.864 254.802 948.395C254.136 949.089 253.407 949.623 252.614 949.999C251.862 950.414 251.126 950.629 250.406 950.644C248.407 950.684 246.785 949.636 245.542 947.501L245.362 947.504C244.065 948.651 242.842 949.495 241.692 950.038C240.543 950.582 239.349 950.866 238.109 950.89ZM241.163 947.588C241.843 947.575 242.401 947.464 242.837 947.255C243.312 947.005 243.725 946.677 244.077 946.27C244.273 946.066 244.408 945.823 244.483 945.541C244.596 945.219 244.667 944.738 244.694 944.097L244.745 940.675C244.777 940.275 244.752 939.995 244.668 939.837C244.584 939.638 244.423 939.542 244.183 939.546C244.103 939.548 243.983 939.57 243.824 939.614C243.665 939.657 243.446 939.741 243.169 939.867C241.383 940.583 240.137 941.328 239.433 942.102C238.727 942.836 238.384 943.643 238.401 944.523C238.423 945.603 238.719 946.397 239.289 946.906C239.899 947.374 240.523 947.601 241.163 947.588Z" fill="#0A2239"/>
<path d="M276.809 948.973C276.57 948.984 276.288 948.958 275.965 948.893C275.681 948.827 275.534 948.674 275.522 948.434C275.507 948.114 275.635 947.868 275.907 947.694C276.179 947.521 276.472 947.367 276.786 947.232C277.493 946.957 278.08 946.669 278.546 946.366C279.052 946.061 279.288 945.55 279.253 944.83L278.956 938.657C278.939 938.298 278.887 938.06 278.802 937.944C278.714 937.788 278.572 937.755 278.376 937.844C277.56 938.364 276.499 938.776 275.192 939.079C273.925 939.38 272.652 939.561 271.374 939.623C270.175 939.681 269.026 939.516 267.926 939.128C266.826 938.74 265.895 938.125 265.134 937.28C264.413 936.434 264.002 935.392 263.902 934.156L263.646 928.822C263.609 928.063 263.464 927.549 263.211 927.281C262.958 927.013 262.467 926.796 261.738 926.631C261.415 926.566 261.108 926.441 260.819 926.255C260.53 926.068 260.379 925.835 260.365 925.556C260.352 925.276 260.484 925.11 260.762 925.056C261.077 924.961 261.355 924.907 261.595 924.896C262.274 924.863 262.814 924.857 263.216 924.878C263.657 924.897 264.1 924.936 264.543 924.994C264.984 925.013 265.545 925.006 266.224 924.974C266.943 924.939 267.541 924.89 268.019 924.827C268.534 924.722 269.031 924.638 269.509 924.575C270.026 924.51 270.604 924.462 271.244 924.432C271.523 924.418 271.805 924.445 272.088 924.511C272.37 924.538 272.518 924.691 272.531 924.97C272.546 925.29 272.418 925.537 272.146 925.71C271.874 925.883 271.581 926.037 271.267 926.173C270.518 926.409 269.951 926.696 269.567 927.035C269.223 927.372 269.067 927.88 269.1 928.559L269.316 933.054C269.375 934.293 269.724 935.297 270.362 936.067C271.039 936.836 272.058 937.187 273.416 937.122C274.335 937.078 275.191 936.976 275.984 936.818C276.778 936.66 277.442 936.328 277.979 935.821C278.287 935.566 278.496 935.336 278.606 935.13C278.715 934.885 278.765 934.682 278.757 934.522L278.449 928.11C278.412 927.351 278.207 926.84 277.834 926.577C277.461 926.315 276.89 926.102 276.122 925.939C275.796 925.835 275.49 925.709 275.203 925.563C274.953 925.374 274.822 925.141 274.808 924.861C274.795 924.581 274.927 924.415 275.205 924.361C275.481 924.268 275.758 924.214 276.038 924.201C276.837 924.163 277.477 924.152 277.959 924.169C278.44 924.186 278.902 924.223 279.346 924.282C279.827 924.299 280.407 924.291 281.087 924.258C281.806 924.224 282.404 924.175 282.882 924.112C283.397 924.007 283.914 923.922 284.431 923.857C284.989 923.79 285.647 923.739 286.406 923.702C286.686 923.689 286.967 923.715 287.251 923.782C287.532 923.808 287.68 923.961 287.693 924.241C287.709 924.561 287.581 924.807 287.309 924.98C287.037 925.154 286.744 925.308 286.43 925.443C285.68 925.679 285.073 925.969 284.609 926.312C284.145 926.654 283.93 927.165 283.962 927.844L284.764 944.505C284.799 945.224 285.083 945.731 285.618 946.026C286.151 946.281 286.803 946.509 287.573 946.713C287.899 946.817 288.205 946.943 288.492 947.089C288.778 947.195 288.928 947.408 288.944 947.728C288.957 948.008 288.806 948.195 288.49 948.29C288.214 948.384 287.957 948.436 287.717 948.448C286.958 948.484 286.277 948.477 285.673 948.426C285.112 948.413 284.571 948.399 284.049 948.384C283.528 948.369 282.908 948.379 282.189 948.413C281.51 948.446 280.911 948.495 280.394 948.56C279.876 948.625 279.339 948.691 278.781 948.758C278.266 948.862 277.608 948.934 276.809 948.973Z" fill="#0A2239"/>
<path d="M308.836 947.688C306.683 947.853 304.727 947.46 302.97 946.511C301.25 945.519 299.836 944.082 298.73 942.201C297.621 940.28 296.967 938.023 296.77 935.43C296.59 933.077 296.964 930.882 297.892 928.846C298.86 926.806 300.217 925.138 301.964 923.842C303.707 922.506 305.676 921.754 307.869 921.586C309.505 921.462 310.986 921.69 312.314 922.271C313.679 922.808 314.766 923.648 315.575 924.79C316.421 925.889 316.902 927.196 317.017 928.712C317.118 930.028 316.55 930.733 315.313 930.827L302.929 931.771C302.371 931.814 301.984 932.004 301.769 932.341C301.554 932.679 301.479 933.266 301.543 934.104C301.676 935.859 302.198 937.443 303.109 938.858C304.016 940.233 305.161 941.309 306.544 942.087C307.927 942.864 309.416 943.191 311.012 943.07C312.208 942.979 313.268 942.677 314.192 942.165C315.153 941.611 316.02 940.883 316.794 939.981C316.901 939.813 316.992 939.685 317.065 939.6C317.179 939.511 317.295 939.462 317.415 939.452C317.774 939.425 317.97 939.631 318.004 940.07C318.052 940.708 317.831 941.487 317.339 942.407C316.845 943.287 316.186 944.119 315.364 944.904C314.578 945.646 313.622 946.261 312.495 946.748C311.412 947.271 310.192 947.585 308.836 947.688ZM302.834 929.733L307.62 929.368C308.657 929.289 309.473 929.207 310.068 929.121C310.664 929.036 311.216 928.913 311.725 928.754C311.919 928.659 312.046 928.489 312.108 928.244C312.166 927.958 312.18 927.616 312.15 927.217C312.065 926.101 311.535 925.198 310.559 924.51C309.581 923.783 308.454 923.467 307.178 923.565C306.3 923.632 305.443 923.958 304.605 924.543C303.807 925.126 303.159 925.837 302.661 926.677C302.161 927.477 301.961 928.275 302.061 929.07C302.098 929.548 302.355 929.769 302.834 929.733Z" fill="#0A2239"/>
<path d="M330.223 961.725C329.984 961.75 329.699 961.719 329.368 961.634C329.082 961.583 328.926 961.439 328.9 961.2C328.867 960.882 328.981 960.629 329.243 960.44C329.504 960.252 329.808 960.079 330.153 959.922C330.809 959.652 331.36 959.352 331.808 959.024C332.256 958.695 332.441 958.153 332.361 957.397L329.236 927.741C329.199 927.383 329.049 926.916 328.787 926.34C328.565 925.76 328.228 925.233 327.776 924.757C327.324 924.282 326.795 924.036 326.19 924.02C325.983 923.961 325.813 923.878 325.681 923.772C325.585 923.621 325.524 923.426 325.499 923.187C325.474 922.949 325.495 922.766 325.562 922.638C325.664 922.466 325.793 922.352 325.948 922.295C327.342 921.787 328.653 921.246 329.88 920.675C331.106 920.103 332.192 919.526 333.136 918.944C333.256 918.931 333.333 918.903 333.369 918.859C333.44 918.771 333.515 918.723 333.595 918.714C333.714 918.702 333.822 918.771 333.918 918.922C334.01 919.033 334.063 919.148 334.075 919.267C334.113 919.625 334.112 920.188 334.072 920.957C334.072 921.721 334.1 922.362 334.154 922.879C334.188 923.197 334.226 923.374 334.27 923.41C334.626 922.97 335.29 922.397 336.261 921.691C337.229 920.946 338.361 920.243 339.659 919.584C340.957 918.924 342.223 918.529 343.456 918.4C345.525 918.182 347.353 918.552 348.943 919.511C350.532 920.47 351.816 921.782 352.796 923.449C353.776 925.115 354.365 926.883 354.562 928.753C354.755 930.583 354.583 932.391 354.047 934.177C353.551 935.958 352.74 937.612 351.614 939.139C350.523 940.621 349.206 941.866 347.663 942.873C346.116 943.841 344.388 944.425 342.479 944.626C341.961 944.681 341.336 944.666 340.604 944.582C339.875 944.539 339.138 944.415 338.393 944.212C337.691 944.045 337.125 943.823 336.694 943.546C336.654 943.551 336.633 943.734 336.631 944.096C336.625 944.419 336.62 944.761 336.618 945.123C336.66 945.521 336.69 945.799 336.706 945.958L337.832 956.639C337.886 957.156 338.109 957.555 338.501 957.836C338.892 958.116 339.335 958.311 339.829 958.42C340.367 958.564 340.903 958.689 341.437 958.793C341.808 958.875 342.139 958.961 342.43 959.051C342.725 959.181 342.889 959.405 342.923 959.723C342.948 959.962 342.826 960.135 342.555 960.244C342.29 960.393 342.017 960.482 341.739 960.511C340.585 960.633 339.525 960.684 338.558 960.665C337.594 960.686 336.596 960.751 335.561 960.86C334.885 960.932 334.291 961.014 333.778 961.109C333.265 961.203 332.732 961.299 332.179 961.398C331.67 961.532 331.018 961.641 330.223 961.725ZM342.789 942.422C343.346 942.363 343.986 942.135 344.708 941.737C345.426 941.299 346.121 940.643 346.793 939.767C347.505 938.888 348.05 937.765 348.429 936.398C348.808 935.03 348.895 933.372 348.689 931.423C348.45 929.155 347.981 927.375 347.282 926.081C346.622 924.783 345.859 923.838 344.992 923.245C344.121 922.613 343.255 922.222 342.395 922.071C341.574 921.916 340.885 921.868 340.328 921.927C339.453 922.019 338.559 922.314 337.646 922.813C336.769 923.267 336.037 923.766 335.451 924.311C334.905 924.851 334.646 925.26 334.676 925.539C334.751 926.255 334.817 927.072 334.874 927.992C334.966 928.867 335.042 929.784 335.103 930.743C335.2 931.658 335.288 932.493 335.367 933.249C335.447 934.005 335.504 934.542 335.537 934.86C335.68 936.212 336.116 937.494 336.847 938.704C337.618 939.91 338.522 940.86 339.561 941.555C340.639 942.246 341.715 942.535 342.789 942.422Z" fill="#0A2239"/>
<path d="M370.315 940.635C370.077 940.667 369.794 940.665 369.466 940.629C369.178 940.587 369.018 940.447 368.986 940.209C368.943 939.892 369.03 939.638 369.246 939.448C369.502 939.252 369.781 939.073 370.082 938.911C370.763 938.577 371.343 938.236 371.821 937.889C372.299 937.542 372.484 936.972 372.377 936.179L370.124 919.955C370.071 919.558 369.978 919.167 369.845 918.781C369.707 918.356 369.459 918.168 369.103 918.216L366.07 918.625C365.515 918.7 365.064 918.943 364.715 919.353C364.362 919.724 364.067 920.228 363.83 920.866C363.627 921.458 363.461 922.167 363.33 922.992C363.293 923.319 363.183 923.698 362.999 924.126C362.809 924.515 362.536 924.734 362.179 924.782C361.981 924.809 361.789 924.734 361.604 924.557C361.453 924.335 361.356 924.066 361.313 923.748C361.286 923.55 361.291 923.287 361.328 922.959C361.364 922.632 361.383 922.326 361.385 922.043C361.424 921.433 361.441 920.663 361.437 919.736C361.467 918.763 361.437 917.94 361.345 917.266C361.297 916.909 361.339 916.621 361.471 916.401C361.603 916.182 361.807 916.053 362.085 916.015C362.362 915.978 362.628 916.003 362.882 916.089C363.17 916.131 363.52 916.185 363.933 916.25C364.351 916.355 364.803 916.415 365.289 916.43C365.815 916.44 366.415 916.399 367.089 916.308L379.694 914.605C380.249 914.53 380.802 914.435 381.351 914.321C381.935 914.161 382.298 914.011 382.441 913.871C382.652 913.641 382.871 913.47 383.098 913.358C383.36 913.202 383.53 913.118 383.609 913.108C383.768 913.086 383.94 913.164 384.125 913.341C384.305 913.478 384.416 913.705 384.459 914.022C384.513 914.418 384.537 914.9 384.533 915.465C384.524 915.991 384.556 916.532 384.631 917.087C384.701 917.602 384.776 918.157 384.856 918.752C384.971 919.301 385.077 919.791 385.176 920.222C385.258 920.534 385.242 920.859 385.126 921.197C385.01 921.536 384.794 921.727 384.477 921.77C384.199 921.807 383.935 921.641 383.683 921.271C383.431 920.902 383.267 920.581 383.19 920.309C383.059 919.64 382.815 919.027 382.457 918.47C382.139 917.908 381.718 917.48 381.194 917.188C380.704 916.85 380.122 916.727 379.449 916.818L376.297 917.244C375.861 917.303 375.613 917.558 375.553 918.01C375.527 918.417 375.541 918.819 375.595 919.216L377.796 935.508C377.892 936.221 378.219 936.702 378.778 936.949C379.37 937.152 380.059 937.321 380.844 937.457C381.177 937.533 381.474 937.634 381.733 937.761C382.026 937.842 382.195 938.042 382.237 938.359C382.275 938.636 382.14 938.836 381.834 938.958C381.567 939.075 381.315 939.149 381.077 939.181C380.324 939.283 379.665 939.332 379.099 939.328C378.539 939.363 377.998 939.396 377.477 939.425C376.957 939.455 376.34 939.519 375.626 939.615C374.952 939.706 374.36 939.806 373.85 939.915C373.34 940.025 372.811 940.137 372.261 940.251C371.756 940.4 371.108 940.528 370.315 940.635Z" fill="#0A2239"/>
<path d="M401.249 936.854C400.42 936.989 399.566 936.843 398.686 936.418C397.813 936.033 397.056 935.487 396.415 934.78C395.768 934.034 395.38 933.267 395.252 932.477C395.041 931.174 395.227 930.07 395.81 929.165C396.432 928.254 397.462 927.358 398.9 926.476L404.251 923.118C404.99 922.674 405.419 922.321 405.538 922.058C405.652 921.756 405.664 921.207 405.576 920.411L405.109 916.779C404.976 915.706 404.575 914.86 403.907 914.238C403.239 913.617 402.372 913.393 401.306 913.566C400.753 913.655 400.2 913.866 399.646 914.199C399.125 914.486 398.71 914.797 398.399 915.131C398.227 915.32 398.124 915.56 398.09 915.849C398.095 916.132 398.123 916.431 398.175 916.747C398.207 916.945 398.245 917.182 398.29 917.458C398.368 917.688 398.419 917.883 398.445 918.041C398.483 918.278 398.255 918.618 397.76 919.063C397.297 919.462 396.733 919.858 396.067 920.249C395.441 920.634 394.891 920.865 394.417 920.942C394.18 920.98 393.973 920.953 393.796 920.86C393.652 920.721 393.561 920.534 393.522 920.297C393.42 919.665 393.512 918.981 393.798 918.246C394.117 917.465 394.634 916.652 395.348 915.807C396.161 914.824 397.07 913.928 398.073 913.117C399.109 912.26 400.132 911.568 401.14 911.04C402.188 910.505 403.127 910.171 403.956 910.037C405.614 909.768 407.05 910.123 408.262 911.102C409.507 912.035 410.234 913.396 410.443 915.186L412.315 928.619C412.416 929.494 412.709 930.176 413.193 930.665C413.677 931.154 414.216 931.35 414.808 931.254C415.716 931.107 416.389 930.755 416.825 930.198C416.958 930.015 417.083 929.913 417.201 929.894C417.399 929.862 417.566 929.896 417.704 929.995C417.881 930.088 417.986 930.233 418.018 930.431C418.094 930.904 417.898 931.443 417.428 932.046C416.866 932.826 416.218 933.457 415.486 933.941C414.8 934.457 414.102 934.773 413.391 934.888C411.416 935.208 409.664 934.397 408.134 932.457L407.957 932.486C406.833 933.802 405.74 934.81 404.678 935.509C403.616 936.208 402.473 936.656 401.249 936.854ZM403.811 933.157C404.482 933.048 405.019 932.86 405.421 932.592C405.857 932.279 406.22 931.896 406.512 931.443C406.677 931.214 406.777 930.955 406.811 930.665C406.878 930.33 406.881 929.844 406.818 929.206L406.389 925.81C406.365 925.409 406.3 925.136 406.196 924.991C406.085 924.806 405.911 924.733 405.674 924.771C405.595 924.784 405.48 924.823 405.328 924.888C405.177 924.953 404.972 925.067 404.715 925.231C403.047 926.19 401.918 927.102 401.329 927.967C400.733 928.793 400.506 929.64 400.647 930.509C400.819 931.575 401.224 932.32 401.86 932.744C402.529 933.122 403.179 933.259 403.811 933.157Z" fill="#0A2239"/>
<path d="M426.404 932.014C426.168 932.06 425.886 932.073 425.556 932.055C425.227 932.037 425.036 931.89 424.983 931.615C424.922 931.301 425.015 931.039 425.259 930.829C425.543 930.612 425.831 930.414 426.123 930.236C426.674 929.926 427.163 929.608 427.589 929.282C428.047 928.908 428.2 928.329 428.049 927.544L424.912 911.222C424.761 910.437 424.444 909.948 423.959 909.756C423.466 909.525 422.91 909.387 422.291 909.343C421.954 909.286 421.613 909.209 421.269 909.112C420.964 909.008 420.781 908.799 420.72 908.484C420.668 908.209 420.794 908.022 421.101 907.922C421.4 907.783 421.668 907.691 421.903 907.646C422.689 907.495 423.321 907.394 423.8 907.342C424.318 907.284 424.821 907.248 425.307 907.236C425.786 907.185 426.359 907.095 427.027 906.967C427.734 906.831 428.28 906.705 428.666 906.591C429.083 906.429 429.523 906.283 429.987 906.153C430.451 906.023 431.056 905.887 431.802 905.743C432.038 905.698 432.301 905.688 432.591 905.714C432.92 905.732 433.108 905.859 433.153 906.095C433.206 906.37 433.113 906.632 432.876 906.881C432.631 907.091 432.363 907.285 432.072 907.463C431.52 907.773 431.055 908.107 430.676 908.465C430.296 908.823 430.182 909.395 430.333 910.18L431.454 916.014C431.515 916.328 431.674 916.521 431.933 916.594C432.183 916.627 432.407 916.625 432.603 916.587L441.677 914.843C441.913 914.798 442.098 914.701 442.232 914.553C442.367 914.405 442.4 914.154 442.332 913.801L441.234 908.085C441.083 907.3 440.784 906.807 440.339 906.608C439.893 906.408 439.357 906.267 438.73 906.184C438.393 906.126 438.072 906.045 437.767 905.941C437.462 905.837 437.279 905.628 437.218 905.313C437.166 905.038 437.273 904.855 437.54 904.763C437.8 904.631 438.068 904.539 438.342 904.486C439.128 904.335 439.76 904.234 440.239 904.183C440.718 904.132 441.181 904.104 441.628 904.099C442.068 904.055 442.622 903.969 443.29 903.841C443.997 903.705 444.562 903.576 444.987 903.454C445.443 903.284 445.903 903.135 446.367 903.005C446.87 902.868 447.495 902.727 448.241 902.584C448.516 902.531 448.799 902.517 449.089 902.543C449.371 902.529 449.539 902.66 449.592 902.935C449.652 903.249 449.564 903.531 449.327 903.78C449.082 903.99 448.81 904.165 448.511 904.304C447.952 904.574 447.447 904.916 446.997 905.328C446.578 905.694 446.445 906.269 446.596 907.055L449.733 923.376C449.884 924.162 450.241 924.643 450.804 924.82C451.4 924.95 452.011 925.056 452.638 925.139C452.975 925.197 453.296 925.278 453.601 925.382C453.906 925.486 454.089 925.696 454.149 926.01C454.202 926.285 454.079 926.492 453.78 926.631C453.52 926.762 453.272 926.85 453.036 926.896C452.29 927.039 451.634 927.124 451.069 927.152C450.551 927.21 450.052 927.266 449.574 927.317C449.095 927.368 448.502 927.462 447.795 927.598C447.127 927.726 446.561 927.855 446.097 927.985C445.633 928.115 445.15 928.249 444.647 928.386C444.151 928.563 443.511 928.727 442.725 928.878C442.489 928.923 442.207 928.936 441.877 928.918C441.587 928.893 441.416 928.742 441.363 928.467C441.303 928.153 441.395 927.891 441.64 927.681C441.884 927.471 442.153 927.277 442.444 927.099C443.003 926.828 443.492 926.51 443.91 926.145C444.368 925.772 444.522 925.192 444.371 924.407L443.08 917.69C443.012 917.336 442.892 917.135 442.719 917.087C442.586 917.031 442.402 917.025 442.166 917.071L432.739 918.883C432.543 918.92 432.377 919.013 432.243 919.161C432.14 919.263 432.123 919.49 432.191 919.843L433.47 926.502C433.629 927.327 433.986 927.808 434.542 927.945C435.137 928.075 435.729 928.186 436.316 928.276C436.653 928.334 436.974 928.415 437.279 928.519C437.585 928.623 437.767 928.832 437.828 929.147C437.881 929.422 437.757 929.629 437.458 929.768C437.198 929.899 436.951 929.987 436.715 930.033C435.969 930.176 435.333 930.258 434.807 930.277C434.289 930.336 433.79 930.391 433.311 930.442C432.872 930.486 432.298 930.576 431.591 930.712C430.923 930.84 430.338 930.973 429.835 931.111C429.332 931.248 428.829 931.386 428.325 931.523C427.83 931.7 427.189 931.863 426.404 932.014Z" fill="#0A2239"/>
<path d="M463.81 924.65C463.576 924.703 463.314 924.722 463.023 924.706C462.732 924.689 462.556 924.545 462.494 924.272C462.423 923.96 462.507 923.695 462.745 923.477C463.021 923.25 463.303 923.043 463.588 922.855C464.129 922.528 464.607 922.194 465.022 921.854C465.468 921.466 465.602 920.882 465.426 920.101L461.756 903.892C461.579 903.111 461.226 902.638 460.696 902.471C460.196 902.256 459.636 902.136 459.015 902.113C458.677 902.067 458.334 902.001 457.986 901.915C457.678 901.821 457.488 901.618 457.418 901.306C457.365 901.072 457.466 900.885 457.721 900.745C458.016 900.596 458.26 900.5 458.456 900.456C459.236 900.279 459.884 900.153 460.4 900.077C460.955 899.992 461.475 899.936 461.961 899.908C462.438 899.841 463.008 899.732 463.671 899.582C464.374 899.423 464.935 899.276 465.355 899.14C465.767 898.964 466.202 898.804 466.661 898.659C467.16 898.506 467.799 898.34 468.579 898.164C468.774 898.119 469.017 898.105 469.308 898.122C469.599 898.138 469.771 898.263 469.824 898.497C469.885 898.77 469.802 899.035 469.573 899.292C469.335 899.51 469.074 899.713 468.788 899.9C468.247 900.228 467.793 900.577 467.425 900.947C467.058 901.317 466.963 901.893 467.139 902.673L469.643 913.733C469.696 913.967 469.81 914.105 469.983 914.148C470.157 914.191 470.289 914.14 470.38 913.997L478.053 900.879C478.134 900.696 478.186 900.562 478.207 900.475C478.268 900.379 478.276 900.234 478.232 900.039C478.055 899.258 477.745 898.795 477.302 898.65C476.889 898.456 476.372 898.347 475.752 898.324C475.413 898.277 475.09 898.207 474.781 898.113C474.473 898.019 474.283 897.816 474.213 897.503C474.16 897.269 474.241 897.087 474.458 896.956C474.713 896.816 474.958 896.72 475.192 896.667C475.972 896.49 476.601 896.368 477.078 896.301C477.594 896.225 478.075 896.178 478.522 896.159C478.999 896.092 479.569 895.983 480.232 895.833C480.935 895.674 481.496 895.526 481.916 895.39C482.367 895.206 482.841 895.037 483.339 894.884C483.838 894.73 484.477 894.564 485.257 894.388C485.491 894.335 485.734 894.321 485.986 894.346C486.277 894.362 486.449 894.487 486.502 894.721C486.572 895.033 486.489 895.298 486.251 895.516C486.013 895.734 485.751 895.937 485.466 896.125C484.916 896.413 484.423 896.771 483.986 897.198C483.58 897.577 483.465 898.157 483.642 898.937L487.312 915.147C487.488 915.927 487.861 916.396 488.43 916.554C489.029 916.665 489.644 916.751 490.273 916.814C490.611 916.86 490.935 916.931 491.243 917.025C491.552 917.119 491.741 917.322 491.812 917.634C491.874 917.907 491.777 918.114 491.522 918.254C491.266 918.393 491.041 918.485 490.846 918.53C490.066 918.706 489.394 918.817 488.83 918.863C488.314 918.939 487.798 919.015 487.282 919.09C486.805 919.157 486.215 919.27 485.513 919.429C484.85 919.58 484.269 919.732 483.771 919.885C483.311 920.03 482.813 920.184 482.276 920.347C481.786 920.54 481.151 920.724 480.371 920.901C480.176 920.945 479.933 920.959 479.642 920.943C479.352 920.927 479.175 920.782 479.113 920.509C479.043 920.197 479.126 919.932 479.364 919.714C479.602 919.496 479.863 919.294 480.149 919.106C480.69 918.778 481.168 918.444 481.583 918.104C481.99 917.725 482.105 917.146 481.928 916.365L479.199 904.31C479.155 904.115 479.089 904.007 479.002 903.986C478.945 903.917 478.891 903.949 478.84 904.084L470.935 917.808C470.754 918.095 470.712 918.453 470.809 918.883C470.995 919.702 471.368 920.171 471.928 920.29C472.488 920.41 473.083 920.501 473.712 920.563C474.051 920.61 474.374 920.68 474.683 920.774C474.991 920.868 475.18 921.071 475.251 921.384C475.304 921.618 475.203 921.805 474.947 921.944C474.701 922.123 474.48 922.235 474.285 922.279C473.505 922.456 472.833 922.567 472.269 922.612C471.753 922.688 471.256 922.76 470.779 922.827C470.302 922.894 469.713 923.007 469.011 923.166C468.347 923.316 467.767 923.468 467.268 923.621C466.77 923.775 466.252 923.934 465.715 924.096C465.225 924.289 464.59 924.474 463.81 924.65Z" fill="#0A2239"/>
<path d="M501.012 916.052C500.78 916.113 500.518 916.14 500.227 916.133C499.936 916.126 499.755 915.988 499.684 915.717C499.604 915.407 499.678 915.139 499.909 914.914C500.178 914.678 500.452 914.462 500.732 914.265C501.262 913.92 501.729 913.571 502.132 913.217C502.565 912.815 502.68 912.227 502.478 911.453L498.279 895.372C498.077 894.598 497.708 894.136 497.173 893.986C496.667 893.788 496.103 893.687 495.482 893.684C495.142 893.648 494.797 893.594 494.447 893.52C494.136 893.436 493.939 893.239 493.859 892.929C493.798 892.697 493.893 892.507 494.144 892.359C494.433 892.201 494.675 892.096 494.868 892.046C495.642 891.844 496.286 891.696 496.799 891.603C497.351 891.501 497.869 891.427 498.354 891.384C498.828 891.301 499.395 891.174 500.053 891.002C500.749 890.82 501.305 890.654 501.721 890.504C502.127 890.316 502.556 890.142 503.011 889.982C503.504 889.811 504.137 889.625 504.911 889.423C505.105 889.373 505.347 889.351 505.638 889.357C505.929 889.364 506.105 889.484 506.166 889.716C506.237 889.987 506.162 890.254 505.942 890.519C505.711 890.744 505.456 890.955 505.177 891.152C504.647 891.497 504.204 891.861 503.849 892.243C503.494 892.625 503.418 893.203 503.62 893.977L506.485 904.949C506.546 905.182 506.663 905.316 506.838 905.353C507.013 905.39 507.144 905.335 507.23 905.189L514.469 891.827C514.544 891.642 514.591 891.505 514.61 891.418C514.667 891.32 514.67 891.175 514.62 890.981C514.418 890.207 514.093 889.754 513.645 889.623C513.226 889.443 512.706 889.352 512.085 889.349C511.745 889.313 511.42 889.254 511.108 889.17C510.797 889.085 510.601 888.889 510.52 888.579C510.459 888.347 510.535 888.162 510.747 888.024C510.998 887.875 511.239 887.771 511.471 887.71C512.246 887.508 512.87 887.366 513.344 887.283C513.858 887.191 514.337 887.128 514.783 887.094C515.258 887.011 515.824 886.884 516.482 886.712C517.178 886.53 517.735 886.364 518.15 886.215C518.594 886.016 519.063 885.832 519.556 885.662C520.049 885.491 520.683 885.305 521.457 885.103C521.689 885.043 521.931 885.021 522.184 885.037C522.475 885.044 522.651 885.164 522.711 885.396C522.792 885.705 522.717 885.973 522.487 886.199C522.256 886.424 522.001 886.635 521.722 886.832C521.182 887.139 520.701 887.512 520.279 887.953C519.885 888.346 519.789 888.929 519.991 889.703L524.19 905.784C524.392 906.558 524.78 907.014 525.354 907.154C525.956 907.245 526.573 907.311 527.204 907.353C527.544 907.388 527.87 907.448 528.181 907.532C528.492 907.616 528.689 907.813 528.769 908.123C528.84 908.393 528.75 908.603 528.499 908.751C528.249 908.899 528.027 908.999 527.833 909.049C527.059 909.251 526.391 909.384 525.829 909.448C525.316 909.541 524.802 909.634 524.289 909.726C523.815 909.809 523.229 909.941 522.532 910.123C521.875 910.295 521.299 910.466 520.806 910.636C520.352 910.796 519.859 910.966 519.327 911.146C518.844 911.355 518.216 911.56 517.441 911.762C517.248 911.813 517.006 911.835 516.715 911.828C516.423 911.822 516.242 911.683 516.172 911.412C516.091 911.102 516.166 910.835 516.396 910.609C516.627 910.384 516.882 910.172 517.161 909.975C517.691 909.63 518.158 909.281 518.562 908.927C518.955 908.535 519.051 907.952 518.849 907.178L515.726 895.219C515.676 895.026 515.607 894.92 515.519 894.901C515.46 894.834 515.407 894.868 515.36 895.005L507.909 908.98C507.738 909.273 507.708 909.632 507.819 910.058C508.031 910.871 508.419 911.328 508.983 911.429C509.547 911.529 510.144 911.601 510.775 911.643C511.115 911.678 511.441 911.738 511.752 911.822C512.063 911.906 512.259 912.103 512.34 912.412C512.401 912.644 512.306 912.835 512.055 912.983C511.814 913.17 511.597 913.288 511.404 913.339C510.63 913.541 509.962 913.674 509.4 913.738C508.887 913.831 508.393 913.918 507.918 914.001C507.444 914.084 506.858 914.216 506.161 914.398C505.503 914.569 504.928 914.74 504.435 914.91C503.942 915.081 503.429 915.256 502.898 915.436C502.415 915.645 501.786 915.85 501.012 916.052ZM507.048 885.021C505.694 885.374 504.419 885.48 503.224 885.337C502.058 885.145 501.059 884.724 500.228 884.073C499.425 883.373 498.887 882.501 498.614 881.456C498.331 880.372 498.351 879.499 498.674 878.836C498.987 878.134 499.473 877.697 500.13 877.525C500.827 877.343 501.376 877.386 501.776 877.654C502.205 877.872 502.486 878.233 502.617 878.736C502.708 879.085 502.77 879.399 502.802 879.68C502.862 879.912 502.933 880.183 503.014 880.493C503.196 881.19 503.701 881.699 504.529 882.02C505.385 882.292 506.317 882.297 507.323 882.034C508.213 881.802 509.027 881.279 509.766 880.466C510.543 879.643 510.992 878.431 511.111 876.829C511.181 876.149 511.254 875.716 511.33 875.531C511.396 875.307 511.525 875.17 511.719 875.12C512.028 875.039 512.264 875.308 512.426 875.927C512.82 877.437 512.81 878.824 512.396 880.09C512.011 881.306 511.333 882.352 510.362 883.225C509.43 884.089 508.326 884.687 507.048 885.021Z" fill="#0A2239"/>
</svg>
