<svg width="284" height="284" viewBox="0 0 284 284" fill="none" xmlns="http://www.w3.org/2000/svg">
<circle cx="141.92" cy="141.763" r="140.5" fill="#0A2239" stroke="#D6BA73" stroke-width="2"/>
<circle cx="147.27" cy="143.368" r="134.08" fill="#0A2239" stroke="#D6BA73" stroke-width="2"/>
<circle cx="160.109" cy="154.602" r="116.961" fill="#0A2239" stroke="#D6BA73" stroke-width="2"/>
<circle cx="152.62" cy="147.112" r="124.451" fill="#0A2239" stroke="#D6BA73" stroke-width="2"/>
<circle cx="160.109" cy="156.207" r="115.356" fill="#0A2239" stroke="#D6BA73" stroke-width="2"/>
<circle cx="160.109" cy="156.207" r="115.356" fill="#0A2239" stroke="#D6BA73" stroke-width="2"/>
<circle cx="164.389" cy="160.487" r="108.937" fill="#0A2239" stroke="#D6BA73" stroke-width="2"/>
<path d="M270.651 167.441C270.651 223.769 225.226 269.423 169.204 269.423C113.181 269.423 67.7566 223.769 67.7566 167.441C67.7566 111.113 113.181 65.4592 169.204 65.4592C225.226 65.4592 270.651 111.113 270.651 167.441Z" fill="#0A2239" stroke="#D6BA73" stroke-width="2"/>
<path d="M270.651 173.059C270.651 226.285 227.741 269.423 174.821 269.423C121.901 269.423 78.9912 226.285 78.9912 173.059C78.9912 119.833 121.901 76.6937 174.821 76.6937C227.741 76.6937 270.651 119.833 270.651 173.059Z" fill="#0A2239" stroke="#D6BA73" stroke-width="2"/>
<path d="M254.602 134.54C254.602 156.449 236.96 174.198 215.211 174.198C193.463 174.198 175.821 156.449 175.821 134.54C175.821 112.632 193.463 94.8826 215.211 94.8826C236.96 94.8826 254.602 112.632 254.602 134.54Z" fill="#0A2239" stroke="#D6BA73" stroke-width="2"/>
<path d="M262.091 152.195C262.091 188.582 232.832 218.066 196.755 218.066C160.678 218.066 131.418 188.582 131.418 152.195C131.418 115.807 160.678 86.3231 196.755 86.3231C232.832 86.3231 262.091 115.807 262.091 152.195Z" stroke="#D6BA73" stroke-width="2"/>
</svg>
