<svg width="443" height="443" viewBox="0 0 443 443" fill="none" xmlns="http://www.w3.org/2000/svg">
<circle cx="221.475" cy="221.318" r="157.39" transform="rotate(125.703 221.475 221.318)" fill="#0A2239" stroke="#D6BA73" stroke-width="2"/>
<circle cx="216.522" cy="225.132" r="150.204" transform="rotate(125.703 216.522 225.132)" fill="#0A2239" stroke="#D6BA73" stroke-width="2"/>
<circle cx="197.923" cy="229.464" r="131.042" transform="rotate(125.703 197.923 229.464)" fill="#0A2239" stroke="#D6BA73" stroke-width="2"/>
<circle cx="209.623" cy="227.548" r="139.425" transform="rotate(125.703 209.623 227.548)" fill="#0A2239" stroke="#D6BA73" stroke-width="2"/>
<circle cx="196.464" cy="228.416" r="129.245" transform="rotate(125.703 196.464 228.416)" fill="#0A2239" stroke="#D6BA73" stroke-width="2"/>
<circle cx="196.464" cy="228.416" r="129.245" transform="rotate(125.703 196.464 228.416)" fill="#0A2239" stroke="#D6BA73" stroke-width="2"/>
<circle cx="189.778" cy="229.51" r="122.059" transform="rotate(125.703 189.778 229.51)" fill="#0A2239" stroke="#D6BA73" stroke-width="2"/>
<path d="M113.972 321.654C62.7174 284.82 50.879 213.632 87.5144 162.654C124.15 111.677 195.396 100.199 246.651 137.033C297.905 173.867 309.743 245.055 273.108 296.032C236.472 347.01 165.226 358.488 113.972 321.654Z" fill="#0A2239" stroke="#D6BA73" stroke-width="2"/>
<path d="M108.866 317.984C60.4311 283.176 49.2362 215.918 83.8449 167.76C118.454 119.603 185.771 108.767 234.206 143.575C282.64 178.383 293.835 245.642 259.227 293.799C224.618 341.957 157.3 352.792 108.866 317.984Z" fill="#0A2239" stroke="#D6BA73" stroke-width="2"/>
<path d="M154.362 328.558C134.394 314.208 129.772 286.503 144.018 266.68C158.264 246.857 185.997 242.404 205.964 256.754C225.932 271.104 230.554 298.809 216.308 318.632C202.062 338.455 174.329 342.908 154.362 328.558Z" fill="#0A2239" stroke="#D6BA73" stroke-width="2"/>
<path d="M133.422 323.833C100.294 300.025 92.5934 254.094 116.199 221.247C139.805 188.399 185.794 181.052 218.923 204.86C252.051 228.668 259.751 274.599 236.145 307.447C212.539 340.294 166.55 347.641 133.422 323.833Z" stroke="#D6BA73" stroke-width="2"/>
</svg>
