<svg width="273" height="272" viewBox="0 0 273 272" fill="none" xmlns="http://www.w3.org/2000/svg">
<circle cx="136.266" cy="136.108" r="134.5" transform="rotate(179.854 136.266 136.108)" fill="#0A2239" stroke="#D6BA73" stroke-width="2"/>
<circle cx="131.139" cy="134.584" r="128.353" transform="rotate(179.854 131.139 134.584)" fill="#0A2239" stroke="#D6BA73" stroke-width="2"/>
<circle cx="118.817" cy="123.858" r="111.959" transform="rotate(179.854 118.817 123.858)" fill="#0A2239" stroke="#D6BA73" stroke-width="2"/>
<circle cx="126.007" cy="131.011" r="119.131" transform="rotate(179.854 126.007 131.011)" fill="#0A2239" stroke="#D6BA73" stroke-width="2"/>
<circle cx="118.812" cy="122.321" r="110.423" transform="rotate(179.854 118.812 122.321)" fill="#0A2239" stroke="#D6BA73" stroke-width="2"/>
<circle cx="118.812" cy="122.321" r="110.423" transform="rotate(179.854 118.812 122.321)" fill="#0A2239" stroke="#D6BA73" stroke-width="2"/>
<circle cx="114.704" cy="118.233" r="104.275" transform="rotate(179.854 114.704 118.233)" fill="#0A2239" stroke="#D6BA73" stroke-width="2"/>
<path d="M11.9738 111.833C11.836 57.9171 55.2036 14.1072 108.827 13.9702C162.45 13.8332 206.041 57.4209 206.179 111.337C206.317 165.253 162.949 209.063 109.326 209.2C55.7025 209.337 12.1115 165.75 11.9738 111.833Z" fill="#0A2239" stroke="#D6BA73" stroke-width="2"/>
<path d="M12.9599 106.454C12.8297 55.5085 53.7955 14.1133 104.448 13.9839C155.1 13.8544 196.277 55.0398 196.407 105.985C196.537 156.931 155.572 198.326 104.919 198.456C54.2669 198.585 13.0901 157.4 12.9599 106.454Z" fill="#0A2239" stroke="#D6BA73" stroke-width="2"/>
<path d="M16.4228 115.3C16.3693 94.3433 33.2009 77.3229 54.0035 77.2697C74.806 77.2166 91.7244 94.1507 91.778 115.107C91.8315 136.064 74.9999 153.084 54.1973 153.137C33.3948 153.19 16.4764 136.256 16.4228 115.3Z" fill="#0A2239" stroke="#D6BA73" stroke-width="2"/>
<path d="M15.2146 112.225C15.1216 75.8505 44.2957 46.3021 80.3597 46.21C116.424 46.1178 145.748 75.5167 145.841 111.891C145.934 148.266 116.76 177.814 80.6962 177.906C44.6322 177.999 15.3075 148.6 15.2146 112.225Z" stroke="#D6BA73" stroke-width="2"/>
</svg>
