<svg width="406" height="406" viewBox="0 0 406 406" fill="none" xmlns="http://www.w3.org/2000/svg">
<circle cx="202.92" cy="202.763" r="201.5" fill="#0A2239" stroke="#D6BA73" stroke-width="2"/>
<circle cx="210.576" cy="205.059" r="192.313" fill="#0A2239" stroke="#D6BA73" stroke-width="2"/>
<circle cx="228.951" cy="221.137" r="167.814" fill="#0A2239" stroke="#D6BA73" stroke-width="2"/>
<circle cx="218.232" cy="210.419" r="178.532" fill="#0A2239" stroke="#D6BA73" stroke-width="2"/>
<circle cx="228.951" cy="223.434" r="165.517" fill="#0A2239" stroke="#D6BA73" stroke-width="2"/>
<circle cx="228.951" cy="223.434" r="165.517" fill="#0A2239" stroke="#D6BA73" stroke-width="2"/>
<circle cx="235.075" cy="229.558" r="156.33" fill="#0A2239" stroke="#D6BA73" stroke-width="2"/>
<path d="M387.577 239.511C387.577 320.358 322.38 385.888 241.966 385.888C161.551 385.888 96.354 320.358 96.354 239.511C96.354 158.665 161.551 93.1342 241.966 93.1342C322.38 93.1342 387.577 158.665 387.577 239.511Z" fill="#0A2239" stroke="#D6BA73" stroke-width="2"/>
<path d="M387.577 247.55C387.577 323.958 325.979 385.889 250.004 385.889C174.03 385.889 112.432 323.958 112.432 247.55C112.432 171.143 174.03 109.212 250.004 109.212C325.979 109.212 387.577 171.143 387.577 247.55Z" fill="#0A2239" stroke="#D6BA73" stroke-width="2"/>
<path d="M364.609 192.427C364.609 224.016 339.172 249.612 307.807 249.612C276.442 249.612 251.004 224.016 251.004 192.427C251.004 160.838 276.442 135.242 307.807 135.242C339.172 135.242 364.609 160.838 364.609 192.427Z" fill="#0A2239" stroke="#D6BA73" stroke-width="2"/>
<path d="M375.328 217.692C375.328 270 333.264 312.391 281.394 312.391C229.523 312.391 187.46 270 187.46 217.692C187.46 165.383 229.523 122.992 281.394 122.992C333.264 122.992 375.328 165.383 375.328 217.692Z" stroke="#D6BA73" stroke-width="2"/>
</svg>
