<svg width="193" height="197" viewBox="0 0 193 197" fill="none" xmlns="http://www.w3.org/2000/svg">
<path d="M71.7249 87.9944L69.5277 0.655198L111.295 77.3917L192.394 72.2961L119.612 108.433L121.809 195.772L80.0424 119.036L1.14097 123.542L71.7249 87.9944Z" fill="#0A2239"/>
<path d="M95.6685 98.2137L82.5981 49.4345L69.5277 0.655199M95.6685 98.2137L71.7249 87.9944M95.6685 98.2137L1.14097 123.542M95.6685 98.2137L80.0424 119.036M95.6685 98.2137L121.809 195.772M95.6685 98.2137L119.612 108.433M95.6685 98.2137L192.394 72.2961M95.6685 98.2137L111.295 77.3917M69.5277 0.655199L71.7249 87.9944M69.5277 0.655199L111.295 77.3917M71.7249 87.9944L1.14097 123.542M1.14097 123.542L80.0424 119.036M80.0424 119.036L121.809 195.772M121.809 195.772L119.612 108.433M119.612 108.433L192.394 72.2961M192.394 72.2961L111.295 77.3917" stroke="#D6BA73" stroke-linejoin="round"/>
</svg>
