<svg width="311" height="317" viewBox="0 0 311 317" fill="none" xmlns="http://www.w3.org/2000/svg">
<path d="M128.696 124.502L196.147 0.672607L192.647 141.638L310.284 200.006L179.223 191.735L111.772 315.564L115.272 174.599L1.18774 117.183L128.696 124.502Z" fill="#0A2239"/>
<path d="M153.959 158.119L175.053 79.3956L196.147 0.672607M153.959 158.119L128.696 124.503M153.959 158.119L1.18774 117.183M153.959 158.119L115.272 174.599M153.959 158.119L111.772 315.564M153.959 158.119L179.223 191.735M153.959 158.119L310.284 200.006M153.959 158.119L192.647 141.638M196.147 0.672607L128.696 124.503M196.147 0.672607L192.647 141.638M128.696 124.503L1.18774 117.183M1.18774 117.183L115.272 174.599M115.272 174.599L111.772 315.564M111.772 315.564L179.223 191.735M179.223 191.735L310.284 200.006M310.284 200.006L192.647 141.638" stroke="#D6BA73" stroke-linejoin="round"/>
</svg>
