<svg width="193" height="197" viewBox="0 0 193 197" fill="none" xmlns="http://www.w3.org/2000/svg">
<path d="M71.1448 88.5193L68.9477 1.1801L110.714 77.9166L191.814 72.821L119.032 108.958L121.229 196.297L79.4623 119.561L0.560889 124.067L71.1448 88.5193Z" fill="#0A2239"/>
<path d="M95.0884 98.7386L82.018 49.9594L68.9477 1.1801M95.0884 98.7386L71.1448 88.5193M95.0884 98.7386L0.560889 124.067M95.0884 98.7386L79.4623 119.561M95.0884 98.7386L121.229 196.297M95.0884 98.7386L119.032 108.958M95.0884 98.7386L191.814 72.821M95.0884 98.7386L110.714 77.9166M68.9477 1.1801L71.1448 88.5193M68.9477 1.1801L110.714 77.9166M71.1448 88.5193L0.560889 124.067M0.560889 124.067L79.4623 119.561M79.4623 119.561L121.229 196.297M121.229 196.297L119.032 108.958M119.032 108.958L191.814 72.821M191.814 72.821L110.714 77.9166" stroke="#D6BA73" stroke-linejoin="round"/>
</svg>
