<svg width="538" height="494" viewBox="0 0 538 494" fill="none" xmlns="http://www.w3.org/2000/svg">
<path d="M215.133 400.746C295.693 449.512 400.532 423.737 449.297 343.177C498.063 262.617 472.288 157.778 391.728 109.012" stroke="#D6BA73" stroke-width="44"/>
<ellipse cx="47.4275" cy="359.206" rx="20.9194" ry="52.6109" transform="rotate(-35.2123 47.4275 359.206)" fill="#0A2239" stroke="#D6BA73" stroke-width="3"/>
<path d="M82.4794 392.19L104.685 376.329L50.7566 299.401L29.3438 316.055C29.3438 358.564 64.5032 383.995 82.4794 392.19Z" fill="#0A2239" stroke="#D6BA73" stroke-width="3"/>
<ellipse cx="85.4949" cy="332.242" rx="20.9194" ry="52.6109" transform="rotate(-35.2123 85.4949 332.242)" fill="#0A2239" stroke="#D6BA73" stroke-width="3"/>
<path d="M505.978 86.8584L120.546 358.088C86.9197 340.323 73.7547 305.746 71.3755 290.677L456.807 21.8267C465.69 52.2806 493.288 77.8703 505.978 86.8584Z" fill="#0A2239" stroke="#D6BA73" stroke-width="3"/>
<path d="M511.53 89.2377C474.097 68.9351 459.188 32.1366 456.015 16.2753L477.428 2C502.172 16.5925 523.162 56.1931 530.564 74.1693L511.53 89.2377Z" fill="#0A2239"/>
<path d="M477.428 2L456.015 16.2753C459.188 32.1366 474.097 68.9351 511.53 89.2377L530.564 74.1693M477.428 2C478.221 15.2178 489.959 48.1567 530.564 74.1693M477.428 2C502.172 16.5925 523.162 56.1931 530.564 74.1693" stroke="#D6BA73" stroke-width="3"/>
<path d="M258.454 251.301H287.177V194.942C278.359 189.569 267.271 189.569 258.454 194.942V251.301Z" fill="#0A2239" stroke="#D6BA73" stroke-width="3" stroke-linejoin="round"/>
<path d="M222.059 213.77H245.058C253.781 203.725 278.049 189.661 305.331 213.77H328.33V229.632V258.182C323.043 258.975 313.42 268.492 317.227 300.215L396.534 473.897L383.845 490.552L283.918 286.733H264.884L174.475 490.552L161.785 470.725L234.748 300.215C237.92 267.858 227.61 258.711 222.059 258.182V229.632V213.77Z" fill="#0A2239"/>
<path d="M245.058 213.77H222.059V229.632M245.058 213.77C253.781 203.725 278.049 189.661 305.331 213.77M245.058 213.77V229.632M305.331 213.77H328.33V229.632M305.331 213.77V229.632M328.33 229.632V258.182C323.043 258.975 313.42 268.492 317.227 300.215L396.534 473.897L383.845 490.552L283.918 286.733H264.884L174.475 490.552L161.785 470.725L234.748 300.215C237.92 267.858 227.61 258.711 222.059 258.182V229.632M328.33 229.632H305.331M305.331 229.632C295.285 217.736 269.167 201.081 245.058 229.632M245.058 229.632H222.059" stroke="#D6BA73" stroke-width="3"/>
<circle cx="274.401" cy="246.286" r="15.8614" fill="#0A2239" stroke="#D6BA73" stroke-width="3"/>
</svg>
