<svg width="607" height="468" viewBox="0 0 607 468" fill="none" xmlns="http://www.w3.org/2000/svg">
<path d="M535.879 133.489L522.701 236.715M522.701 236.715L461.783 163.938M522.701 236.715L467.662 308.119L378.849 394.635L346.546 379.754L251.864 336.638L242.561 230.541M242.561 230.541L262.134 187.551L214.105 136.877M242.561 230.541L185.712 200.185M214.105 136.877L185.712 200.185M214.105 136.877L179.46 64.9377M185.712 200.185L134.961 226.188M134.961 226.188L97.2147 180.328M134.961 226.188L142.096 278.703L121.052 316.848M179.46 64.9377L81.7281 50.9724M179.46 64.9377L228.254 22.3312M228.254 22.3312L289.549 41.1929L300.04 -21.5277M228.254 22.3312L235.433 -51.2899L170.509 -114.03" stroke="#D6BA73" stroke-width="2" stroke-linejoin="round"/>
<circle cx="535.547" cy="130.944" r="9.28277" transform="rotate(-106.9 535.547 130.944)" fill="#D6BA73"/>
<circle cx="187.731" cy="199.572" r="9.28277" transform="rotate(-106.9 187.731 199.572)" fill="#D6BA73"/>
<circle cx="465.925" cy="308.206" r="9.28277" transform="rotate(-106.9 465.925 308.206)" fill="#D6BA73"/>
<circle cx="181.198" cy="64.8508" r="9.28277" transform="rotate(-106.9 181.198 64.8508)" fill="#D6BA73"/>
<circle cx="289.672" cy="41.5968" r="9.28277" transform="rotate(-106.9 289.672 41.5968)" fill="#D6BA73"/>
<circle cx="80.3943" cy="50.9368" r="10.5486" transform="rotate(-106.9 80.3943 50.9368)" fill="#D6BA73"/>
<circle cx="462.274" cy="165.553" r="6.75111" transform="rotate(-106.9 462.274 165.553)" fill="#D6BA73"/>
<circle cx="380.06" cy="394.267" r="6.75111" transform="rotate(-106.9 380.06 394.267)" fill="#D6BA73"/>
<circle cx="254.496" cy="338.043" r="6.75111" transform="rotate(-106.9 254.496 338.043)" fill="#D6BA73"/>
<circle cx="343.914" cy="378.348" r="5.48527" transform="rotate(-106.9 343.914 378.348)" fill="#D6BA73"/>
<circle cx="243.492" cy="230.699" r="5.48527" transform="rotate(-106.9 243.492 230.699)" fill="#D6BA73"/>
<circle cx="262.011" cy="187.148" r="5.48527" transform="rotate(-106.9 262.011 187.148)" fill="#D6BA73"/>
<circle cx="135.769" cy="225.943" r="4.21944" transform="rotate(-106.9 135.769 225.943)" fill="#D6BA73"/>
<circle cx="142.341" cy="279.51" r="4.21944" transform="rotate(-106.9 142.341 279.51)" fill="#D6BA73"/>
<circle cx="120.807" cy="316.04" r="4.21944" transform="rotate(-106.9 120.807 316.04)" fill="#D6BA73"/>
<circle cx="96.6525" cy="181.38" r="4.21944" transform="rotate(-106.9 96.6525 181.38)" fill="#D6BA73"/>
<circle cx="214.544" cy="135.42" r="5.48527" transform="rotate(-106.9 214.544 135.42)" fill="#D6BA73"/>
<circle cx="228.78" cy="22.6121" r="5.48527" transform="rotate(-106.9 228.78 22.6121)" fill="#D6BA73"/>
<circle cx="523.14" cy="235.258" r="6.75111" transform="rotate(-106.9 523.14 235.258)" fill="#D6BA73"/>
</svg>
